%TF.GenerationSoftware,KiCad,Pcbnew,(6.0.0)*%
%TF.CreationDate,2023-04-26T08:22:48-05:00*%
%TF.ProjectId,SNAP_Project,534e4150-5f50-4726-9f6a-6563742e6b69,1.0*%
%TF.SameCoordinates,Original*%
%TF.FileFunction,Paste,Top*%
%TF.FilePolarity,Positive*%
%FSLAX46Y46*%
G04 Gerber Fmt 4.6, Leading zero omitted, Abs format (unit mm)*
G04 Created by KiCad (PCBNEW (6.0.0)) date 2023-04-26 08:22:48*
%MOMM*%
%LPD*%
G01*
G04 APERTURE LIST*
G04 Aperture macros list*
%AMRoundRect*
0 Rectangle with rounded corners*
0 $1 Rounding radius*
0 $2 $3 $4 $5 $6 $7 $8 $9 X,Y pos of 4 corners*
0 Add a 4 corners polygon primitive as box body*
4,1,4,$2,$3,$4,$5,$6,$7,$8,$9,$2,$3,0*
0 Add four circle primitives for the rounded corners*
1,1,$1+$1,$2,$3*
1,1,$1+$1,$4,$5*
1,1,$1+$1,$6,$7*
1,1,$1+$1,$8,$9*
0 Add four rect primitives between the rounded corners*
20,1,$1+$1,$2,$3,$4,$5,0*
20,1,$1+$1,$4,$5,$6,$7,0*
20,1,$1+$1,$6,$7,$8,$9,0*
20,1,$1+$1,$8,$9,$2,$3,0*%
%AMFreePoly0*
4,1,6,0.450000,-0.800000,-0.450000,-0.800000,-0.450000,0.530000,-0.180000,0.800000,0.450000,0.800000,0.450000,-0.800000,0.450000,-0.800000,$1*%
G04 Aperture macros list end*
%ADD10RoundRect,0.140000X-0.170000X0.140000X-0.170000X-0.140000X0.170000X-0.140000X0.170000X0.140000X0*%
%ADD11R,0.600000X1.150000*%
%ADD12RoundRect,0.140000X0.170000X-0.140000X0.170000X0.140000X-0.170000X0.140000X-0.170000X-0.140000X0*%
%ADD13R,1.700000X0.900000*%
%ADD14RoundRect,0.250000X0.650000X-0.325000X0.650000X0.325000X-0.650000X0.325000X-0.650000X-0.325000X0*%
%ADD15RoundRect,0.250000X0.262500X0.450000X-0.262500X0.450000X-0.262500X-0.450000X0.262500X-0.450000X0*%
%ADD16RoundRect,0.200000X0.275000X-0.200000X0.275000X0.200000X-0.275000X0.200000X-0.275000X-0.200000X0*%
%ADD17RoundRect,0.140000X-0.140000X-0.170000X0.140000X-0.170000X0.140000X0.170000X-0.140000X0.170000X0*%
%ADD18RoundRect,0.250000X0.450000X-0.262500X0.450000X0.262500X-0.450000X0.262500X-0.450000X-0.262500X0*%
%ADD19RoundRect,0.140000X0.140000X0.170000X-0.140000X0.170000X-0.140000X-0.170000X0.140000X-0.170000X0*%
%ADD20RoundRect,0.250000X-0.625000X0.312500X-0.625000X-0.312500X0.625000X-0.312500X0.625000X0.312500X0*%
%ADD21R,0.800000X0.500000*%
%ADD22R,0.500000X0.300000*%
%ADD23RoundRect,0.150000X-0.150000X0.512500X-0.150000X-0.512500X0.150000X-0.512500X0.150000X0.512500X0*%
%ADD24R,0.700000X0.750000*%
%ADD25R,1.000000X1.800000*%
%ADD26RoundRect,0.250000X-0.450000X0.262500X-0.450000X-0.262500X0.450000X-0.262500X0.450000X0.262500X0*%
%ADD27RoundRect,0.250000X0.325000X0.650000X-0.325000X0.650000X-0.325000X-0.650000X0.325000X-0.650000X0*%
%ADD28RoundRect,0.150000X0.150000X-0.512500X0.150000X0.512500X-0.150000X0.512500X-0.150000X-0.512500X0*%
%ADD29R,0.600000X1.450000*%
%ADD30R,0.300000X1.450000*%
%ADD31RoundRect,0.150000X0.512500X0.150000X-0.512500X0.150000X-0.512500X-0.150000X0.512500X-0.150000X0*%
%ADD32RoundRect,0.250000X-0.262500X-0.450000X0.262500X-0.450000X0.262500X0.450000X-0.262500X0.450000X0*%
%ADD33R,2.250000X1.600000*%
%ADD34RoundRect,0.135000X-0.135000X-0.185000X0.135000X-0.185000X0.135000X0.185000X-0.135000X0.185000X0*%
%ADD35R,1.903000X2.790000*%
%ADD36R,0.650000X1.220000*%
%ADD37RoundRect,0.135000X-0.185000X0.135000X-0.185000X-0.135000X0.185000X-0.135000X0.185000X0.135000X0*%
%ADD38RoundRect,0.250000X-0.650000X0.325000X-0.650000X-0.325000X0.650000X-0.325000X0.650000X0.325000X0*%
%ADD39RoundRect,0.135000X0.185000X-0.135000X0.185000X0.135000X-0.185000X0.135000X-0.185000X-0.135000X0*%
%ADD40RoundRect,0.200000X-0.275000X0.200000X-0.275000X-0.200000X0.275000X-0.200000X0.275000X0.200000X0*%
%ADD41R,1.200000X0.900000*%
%ADD42RoundRect,0.200000X0.200000X0.275000X-0.200000X0.275000X-0.200000X-0.275000X0.200000X-0.275000X0*%
%ADD43FreePoly0,90.000000*%
%ADD44R,0.250000X0.550000*%
%ADD45R,0.400000X1.000000*%
%ADD46RoundRect,0.218750X0.256250X-0.218750X0.256250X0.218750X-0.256250X0.218750X-0.256250X-0.218750X0*%
%ADD47RoundRect,0.147500X-0.147500X-0.172500X0.147500X-0.172500X0.147500X0.172500X-0.147500X0.172500X0*%
%ADD48R,1.500000X0.400000*%
%ADD49R,0.400000X2.900000*%
%ADD50R,1.600000X0.400000*%
%ADD51R,0.400000X9.300000*%
%ADD52R,0.400000X6.600000*%
%ADD53RoundRect,0.147500X0.172500X-0.147500X0.172500X0.147500X-0.172500X0.147500X-0.172500X-0.147500X0*%
%ADD54R,0.300000X0.850000*%
%ADD55R,0.850000X0.300000*%
%ADD56R,5.700000X5.700000*%
%ADD57R,3.300000X2.500000*%
G04 APERTURE END LIST*
D10*
%TO.C,C13*%
X102830000Y-101790000D03*
X102830000Y-102750000D03*
%TD*%
D11*
%TO.C,IC1*%
X91850000Y-113207500D03*
X92800000Y-113207500D03*
X93750000Y-113207500D03*
X93750000Y-110707500D03*
X91850000Y-110707500D03*
%TD*%
D12*
%TO.C,C24*%
X107150000Y-93450000D03*
X107150000Y-92490000D03*
%TD*%
D13*
%TO.C,SW2*%
X109160000Y-108950000D03*
X109160000Y-112350000D03*
%TD*%
D14*
%TO.C,C5*%
X114960000Y-109595000D03*
X114960000Y-106645000D03*
%TD*%
D15*
%TO.C,R27*%
X74232500Y-85780000D03*
X72407500Y-85780000D03*
%TD*%
D16*
%TO.C,R4*%
X75460000Y-100905000D03*
X75460000Y-99255000D03*
%TD*%
D17*
%TO.C,C20*%
X76730000Y-94690000D03*
X77690000Y-94690000D03*
%TD*%
D18*
%TO.C,R11*%
X106450000Y-113402500D03*
X106450000Y-111577500D03*
%TD*%
D19*
%TO.C,C31*%
X101430000Y-97107500D03*
X100470000Y-97107500D03*
%TD*%
D12*
%TO.C,C9*%
X104300000Y-93487500D03*
X104300000Y-92527500D03*
%TD*%
D18*
%TO.C,R19*%
X98550000Y-103720000D03*
X98550000Y-101895000D03*
%TD*%
D20*
%TO.C,R1*%
X76710000Y-102297500D03*
X76710000Y-105222500D03*
%TD*%
D15*
%TO.C,R18*%
X74232500Y-87950000D03*
X72407500Y-87950000D03*
%TD*%
D21*
%TO.C,FL1*%
X117760000Y-96850000D03*
D22*
X118610000Y-97300000D03*
D21*
X117760000Y-97750000D03*
D22*
X116910000Y-97300000D03*
%TD*%
D23*
%TO.C,U2*%
X79550000Y-107082500D03*
X78600000Y-107082500D03*
X77650000Y-107082500D03*
X77650000Y-109357500D03*
X78600000Y-109357500D03*
X79550000Y-109357500D03*
%TD*%
D24*
%TO.C,Y1*%
X111350000Y-92632500D03*
X111350000Y-93982500D03*
X112350000Y-93982500D03*
X112350000Y-92632500D03*
%TD*%
D18*
%TO.C,R28*%
X74230000Y-83822500D03*
X74230000Y-81997500D03*
%TD*%
%TO.C,R30*%
X77580000Y-97952500D03*
X77580000Y-96127500D03*
%TD*%
D25*
%TO.C,Y2*%
X107200000Y-105207500D03*
X104700000Y-105207500D03*
%TD*%
D14*
%TO.C,C7*%
X117329273Y-116247500D03*
X117329273Y-113297500D03*
%TD*%
D19*
%TO.C,C22*%
X107430000Y-106857500D03*
X106470000Y-106857500D03*
%TD*%
D12*
%TO.C,C12*%
X105350000Y-93487500D03*
X105350000Y-92527500D03*
%TD*%
D10*
%TO.C,C11*%
X113920000Y-99210000D03*
X113920000Y-100170000D03*
%TD*%
D26*
%TO.C,R26*%
X99450000Y-88245000D03*
X99450000Y-90070000D03*
%TD*%
D27*
%TO.C,C2*%
X91825000Y-108407500D03*
X88875000Y-108407500D03*
%TD*%
D15*
%TO.C,R22*%
X82662500Y-93457500D03*
X80837500Y-93457500D03*
%TD*%
D14*
%TO.C,C6*%
X112144637Y-113287864D03*
X112144637Y-110337864D03*
%TD*%
D28*
%TO.C,U1*%
X100115773Y-110095000D03*
X101065773Y-110095000D03*
X102015773Y-110095000D03*
X102015773Y-107820000D03*
X101065773Y-107820000D03*
X100115773Y-107820000D03*
%TD*%
D18*
%TO.C,R9*%
X117040000Y-108292500D03*
X117040000Y-106467500D03*
%TD*%
D29*
%TO.C,J1*%
X97589273Y-115572500D03*
X98389273Y-115572500D03*
D30*
X99589273Y-115572500D03*
X100589273Y-115572500D03*
X101089273Y-115572500D03*
X102089273Y-115572500D03*
D29*
X103289273Y-115572500D03*
X104089273Y-115572500D03*
X104089273Y-115572500D03*
X103289273Y-115572500D03*
D30*
X102589273Y-115572500D03*
X101589273Y-115572500D03*
X100089273Y-115572500D03*
X99089273Y-115572500D03*
D29*
X98389273Y-115572500D03*
X97589273Y-115572500D03*
%TD*%
D19*
%TO.C,C28*%
X119380000Y-89827500D03*
X118420000Y-89827500D03*
%TD*%
D31*
%TO.C,U8*%
X115076773Y-117067500D03*
X115076773Y-116117500D03*
X115076773Y-115167500D03*
X112801773Y-115167500D03*
X112801773Y-117067500D03*
%TD*%
D32*
%TO.C,R23*%
X90937500Y-94957500D03*
X92762500Y-94957500D03*
%TD*%
D27*
%TO.C,C3*%
X78875000Y-111720000D03*
X75925000Y-111720000D03*
%TD*%
D12*
%TO.C,C26*%
X94625000Y-101737500D03*
X94625000Y-100777500D03*
%TD*%
D33*
%TO.C,D5*%
X89900000Y-116907500D03*
X94000000Y-116907500D03*
%TD*%
D26*
%TO.C,R24*%
X86600000Y-88745000D03*
X86600000Y-90570000D03*
%TD*%
D34*
%TO.C,R15*%
X94110000Y-82570000D03*
X95130000Y-82570000D03*
%TD*%
D20*
%TO.C,R2*%
X75940000Y-106847500D03*
X75940000Y-109772500D03*
%TD*%
D34*
%TO.C,R13*%
X112780000Y-105080000D03*
X113800000Y-105080000D03*
%TD*%
D32*
%TO.C,R25*%
X94537500Y-94957500D03*
X96362500Y-94957500D03*
%TD*%
D15*
%TO.C,R29*%
X79362500Y-99770000D03*
X77537500Y-99770000D03*
%TD*%
D35*
%TO.C,L1*%
X80800000Y-114020000D03*
X85653000Y-114020000D03*
%TD*%
D36*
%TO.C,Q6*%
X109794637Y-115115000D03*
X107894637Y-115115000D03*
X108844637Y-117735000D03*
%TD*%
D37*
%TO.C,R6*%
X102665773Y-112347500D03*
X102665773Y-113367500D03*
%TD*%
D10*
%TO.C,C18*%
X106950000Y-109070000D03*
X106950000Y-110030000D03*
%TD*%
D14*
%TO.C,C1*%
X89800000Y-113432500D03*
X89800000Y-110482500D03*
%TD*%
D38*
%TO.C,C4*%
X79200000Y-101545000D03*
X79200000Y-104495000D03*
%TD*%
D17*
%TO.C,C21*%
X104470000Y-106857500D03*
X105430000Y-106857500D03*
%TD*%
D10*
%TO.C,C25*%
X115910000Y-97300000D03*
X115910000Y-98260000D03*
%TD*%
D37*
%TO.C,R7*%
X99365773Y-112347500D03*
X99365773Y-113367500D03*
%TD*%
D39*
%TO.C,R12*%
X112410000Y-108070000D03*
X112410000Y-107050000D03*
%TD*%
D17*
%TO.C,C17*%
X108620000Y-104407500D03*
X109580000Y-104407500D03*
%TD*%
D40*
%TO.C,R5*%
X73040000Y-113975000D03*
X73040000Y-115625000D03*
%TD*%
D12*
%TO.C,C19*%
X79280000Y-97960000D03*
X79280000Y-97000000D03*
%TD*%
D41*
%TO.C,D6*%
X128060000Y-89855000D03*
X130860000Y-89855000D03*
X130860000Y-91305000D03*
X128060000Y-91305000D03*
%TD*%
D12*
%TO.C,C27*%
X94750000Y-99537500D03*
X94750000Y-98577500D03*
%TD*%
D18*
%TO.C,R8*%
X115239273Y-113030000D03*
X115239273Y-111205000D03*
%TD*%
D10*
%TO.C,C23*%
X112840000Y-97300000D03*
X112840000Y-98260000D03*
%TD*%
D42*
%TO.C,R10*%
X113175000Y-119100000D03*
X111525000Y-119100000D03*
%TD*%
D19*
%TO.C,C10*%
X104400000Y-103060000D03*
X103440000Y-103060000D03*
%TD*%
D10*
%TO.C,C8*%
X129980000Y-84110000D03*
X129980000Y-85070000D03*
%TD*%
D34*
%TO.C,R16*%
X96690000Y-82570000D03*
X97710000Y-82570000D03*
%TD*%
D18*
%TO.C,R3*%
X75220000Y-97862500D03*
X75220000Y-96037500D03*
%TD*%
D32*
%TO.C,R21*%
X84587500Y-93457500D03*
X86412500Y-93457500D03*
%TD*%
D43*
%TO.C,U4*%
X128055000Y-85267500D03*
D44*
X127305000Y-86442500D03*
X127805000Y-86442500D03*
X128305000Y-86442500D03*
X128805000Y-86442500D03*
X128805000Y-84092500D03*
X128305000Y-84092500D03*
X127805000Y-84092500D03*
X127305000Y-84092500D03*
%TD*%
D37*
%TO.C,R17*%
X110850000Y-105697500D03*
X110850000Y-106717500D03*
%TD*%
D45*
%TO.C,Q5*%
X118980000Y-107855000D03*
X119630000Y-107855000D03*
X120280000Y-107855000D03*
X120280000Y-105955000D03*
X119630000Y-105955000D03*
X118980000Y-105955000D03*
%TD*%
D16*
%TO.C,R14*%
X131380000Y-88055000D03*
X131380000Y-86405000D03*
%TD*%
D17*
%TO.C,C30*%
X105890000Y-89807500D03*
X106850000Y-89807500D03*
%TD*%
D19*
%TO.C,C29*%
X113080000Y-89807500D03*
X112120000Y-89807500D03*
%TD*%
D46*
%TO.C,F1*%
X104180000Y-113635000D03*
X104180000Y-112060000D03*
%TD*%
D17*
%TO.C,C14*%
X112920000Y-95120000D03*
X113880000Y-95120000D03*
%TD*%
D47*
%TO.C,L3*%
X113885000Y-97300000D03*
X114855000Y-97300000D03*
%TD*%
D17*
%TO.C,C15*%
X112920000Y-96220000D03*
X113880000Y-96220000D03*
%TD*%
D31*
%TO.C,U3*%
X119766773Y-111622500D03*
X119766773Y-110672500D03*
X119766773Y-109722500D03*
X117491773Y-109722500D03*
X117491773Y-110672500D03*
X117491773Y-111622500D03*
%TD*%
D48*
%TO.C,AE1*%
X123075000Y-97300000D03*
D49*
X123625000Y-96050000D03*
D50*
X125425000Y-103700000D03*
D51*
X127225000Y-99250000D03*
D50*
X124225000Y-94800000D03*
D51*
X124825000Y-99250000D03*
X126025000Y-99250000D03*
D52*
X128425000Y-100600000D03*
D50*
X127825000Y-103700000D03*
X126625000Y-94800000D03*
%TD*%
D17*
%TO.C,C16*%
X108620000Y-105487500D03*
X109580000Y-105487500D03*
%TD*%
D18*
%TO.C,R20*%
X98550000Y-100270000D03*
X98550000Y-98445000D03*
%TD*%
D53*
%TO.C,L2*%
X108620000Y-107532500D03*
X108620000Y-106562500D03*
%TD*%
D54*
%TO.C,IC2*%
X104850000Y-102007500D03*
X105350000Y-102007500D03*
X105850000Y-102007500D03*
X106350000Y-102007500D03*
X106850000Y-102007500D03*
X107350000Y-102007500D03*
X107850000Y-102007500D03*
X108350000Y-102007500D03*
X108850000Y-102007500D03*
X109350000Y-102007500D03*
X109850000Y-102007500D03*
X110350000Y-102007500D03*
D55*
X111050000Y-101307500D03*
X111050000Y-100807500D03*
X111050000Y-100307500D03*
X111050000Y-99807500D03*
X111050000Y-99307500D03*
X111050000Y-98807500D03*
X111050000Y-98307500D03*
X111050000Y-97807500D03*
X111050000Y-97307500D03*
X111050000Y-96807500D03*
X111050000Y-96307500D03*
X111050000Y-95807500D03*
D54*
X110350000Y-95107500D03*
X109850000Y-95107500D03*
X109350000Y-95107500D03*
X108850000Y-95107500D03*
X108350000Y-95107500D03*
X107850000Y-95107500D03*
X107350000Y-95107500D03*
X106850000Y-95107500D03*
X106350000Y-95107500D03*
X105850000Y-95107500D03*
X105350000Y-95107500D03*
X104850000Y-95107500D03*
D55*
X104150000Y-95807500D03*
X104150000Y-96307500D03*
X104150000Y-96807500D03*
X104150000Y-97307500D03*
X104150000Y-97807500D03*
X104150000Y-98307500D03*
X104150000Y-98807500D03*
X104150000Y-99307500D03*
X104150000Y-99807500D03*
X104150000Y-100307500D03*
X104150000Y-100807500D03*
X104150000Y-101307500D03*
D56*
X107600000Y-98557500D03*
%TD*%
D57*
%TO.C,D1*%
X84300000Y-102220000D03*
X84300000Y-109020000D03*
%TD*%
M02*
