M48
; DRILL file {KiCad (6.0.0)} date Mon Apr 24 11:59:42 2023
; FORMAT={-:-/ absolute / inch / decimal}
; #@! TF.CreationDate,2023-04-24T11:59:42-05:00
; #@! TF.GenerationSoftware,Kicad,Pcbnew,(6.0.0)
; #@! TF.FileFunction,Plated,1,4,PTH
FMAT,2
INCH
; #@! TA.AperFunction,Plated,PTH,ViaDrill
T1C0.0079
; #@! TA.AperFunction,Plated,PTH,ViaDrill
T2C0.0098
; #@! TA.AperFunction,Plated,PTH,ViaDrill
T3C0.0118
; #@! TA.AperFunction,Plated,PTH,ViaDrill
T4C0.0157
; #@! TA.AperFunction,Plated,PTH,ViaDrill
T5C0.0197
; #@! TA.AperFunction,Plated,PTH,ViaDrill
T6C0.0236
; #@! TA.AperFunction,Plated,PTH,ComponentDrill
T7C0.0236
; #@! TA.AperFunction,Plated,PTH,ViaDrill
T8C0.0276
; #@! TA.AperFunction,Plated,PTH,ComponentDrill
T9C0.0295
; #@! TA.AperFunction,Plated,PTH,ViaDrill
T10C0.0315
; #@! TA.AperFunction,Plated,PTH,ComponentDrill
T11C0.0315
; #@! TA.AperFunction,Plated,PTH,ComponentDrill
T12C0.0469
; #@! TA.AperFunction,Plated,PTH,ComponentDrill
T13C0.0591
; #@! TA.AperFunction,Plated,PTH,ComponentDrill
T14C0.1260
%
G90
G05
T1
X2.9031Y-3.7866
X3.1642Y-3.928
X3.8697Y-3.2878
X3.8872Y-3.7714
X3.9082Y-3.793
X3.9232Y-4.1932
X3.9469Y-3.9688
X3.9547Y-3.9412
X3.9783Y-3.9039
X3.9894Y-3.9319
X3.9941Y-4.1912
X4.0197Y-3.9334
X4.0589Y-3.8104
X4.4094Y-4.0067
X4.4837Y-4.041
X4.5047Y-4.6638
X4.5665Y-4.0622
X4.5929Y-4.0795
X4.6843Y-4.2659
X4.9665Y-3.2728
T2
X2.678Y-3.7965
X2.6803Y-3.9476
X2.6839Y-4.228
X2.6866Y-4.4815
X2.6969Y-3.3
X2.7366Y-3.2378
X2.7673Y-3.4315
X2.8366Y-3.2878
X2.8965Y-4.3516
X2.9004Y-4.439
X2.9224Y-3.1898
X2.9437Y-4.3181
X2.9437Y-4.365
X2.9437Y-4.4098
X2.9547Y-4.726
X2.9902Y-4.6362
X3.0126Y-3.1563
X3.0154Y-2.9976
X3.0378Y-4.7445
X3.065Y-4.4677
X3.0819Y-3.7445
X3.0827Y-3.0791
X3.0945Y-4.1683
X3.1209Y-3.7921
X3.1319Y-3.2783
X3.139Y-2.9992
X3.1551Y-3.5657
X3.1791Y-4.2109
X3.1866Y-3.3323
X3.2055Y-3.1386
X3.2197Y-4.4047
X3.2382Y-3.2539
X3.2406Y-3.0126
X3.2437Y-3.5094
X3.2575Y-4.1677
X3.2878Y-4.1098
X3.3138Y-4.5657
X3.3169Y-3.1535
X3.3382Y-3.6087
X3.3626Y-4.1614
X3.3839Y-3.1732
X3.3862Y-3.2689
X3.389Y-2.9961
X3.3986Y-3.1083
X3.4035Y-3.4163
X3.4067Y-4.3843
X3.4114Y-4.0898
X3.4262Y-3.2028
X3.4406Y-3.9205
X3.4488Y-4.4528
X3.4787Y-4.5268
X3.4811Y-3.7811
X3.4882Y-3.1726
X3.4941Y-3.1083
X3.4961Y-3.0028
X3.4966Y-3.2393
X3.5161Y-3.7386
X3.5167Y-3.44
X3.5476Y-4.7386
X3.5633Y-3.0827
X3.5713Y-3.1717
X3.587Y-4.1677
X3.5933Y-4.522
X3.6024Y-3.5366
X3.6059Y-3.8437
X3.6087Y-4.0323
X3.6118Y-3.1213
X3.6165Y-3.2504
X3.6181Y-3.9055
X3.6201Y-2.998
X3.6224Y-4.5831
X3.6323Y-4.7358
X3.6457Y-3.9598
X3.6476Y-4.502
X3.6524Y-3.1642
X3.6531Y-4.074
X3.6663Y-3.8386
X3.6713Y-4.2345
X3.6764Y-3.8976
X3.6909Y-3.9675
X3.7047Y-3.4537
X3.7098Y-4.737
X3.7114Y-4.1154
X3.7303Y-3.8504
X3.7417Y-4.3898
X3.7417Y-4.4681
X3.7563Y-3.5909
X3.7943Y-3.7854
X3.8272Y-3.5047
X3.8311Y-3.4268
X3.8409Y-4.3799
X3.8976Y-3.6067
X3.8996Y-3.3622
X3.9026Y-4.373
X3.9045Y-3.6713
X3.9114Y-4.1211
X3.9114Y-4.7437
X3.9252Y-3.8197
X3.9685Y-4.1339
X3.9823Y-4.7433
X4.0484Y-4.0669
X4.0488Y-4.7433
X4.0492Y-3.7365
X4.0579Y-4.3866
X4.0756Y-4.0339
X4.0974Y-3.7264
X4.1177Y-3.5118
X4.1283Y-3.2724
X4.1309Y-4.2411
X4.1457Y-3.8514
X4.1457Y-3.8888
X4.1457Y-3.9311
X4.1457Y-3.9715
X4.1462Y-3.6078
X4.1467Y-3.8091
X4.1693Y-3.502
X4.1703Y-4.2411
X4.186Y-3.8159
X4.187Y-3.8514
X4.187Y-3.8888
X4.187Y-3.9301
X4.188Y-3.9715
X4.1894Y-3.2819
X4.2126Y-3.6112
X4.2303Y-3.8159
X4.2323Y-3.8514
X4.2323Y-3.8888
X4.2333Y-3.9301
X4.2343Y-3.9715
X4.2475Y-3.256
X4.2815Y-3.8514
X4.2815Y-3.8898
X4.2815Y-3.9715
X4.2825Y-3.9291
X4.2835Y-3.8159
X4.2874Y-4.0713
X4.3031Y-3.2776
X4.3043Y-3.4185
X4.3083Y-3.5047
X4.314Y-4.2303
X4.3142Y-4.1783
X4.3297Y-3.9715
X4.3303Y-4.1319
X4.3563Y-4.4242
X4.3638Y-4.2374
X4.3642Y-4.1204
X4.378Y-3.737
X4.4114Y-4.6441
X4.4144Y-3.5
X4.4181Y-3.2894
X4.4256Y-3.2343
X4.4351Y-3.9517
X4.4572Y-4.0304
X4.4594Y-3.6469
X4.4665Y-3.872
X4.4795Y-4.1677
X4.4833Y-4.5719
X4.4913Y-3.2252
X4.4988Y-3.2913
X4.5039Y-3.7449
X4.5039Y-3.7882
X4.5098Y-3.9656
X4.5236Y-3.5031
X4.5295Y-3.6244
X4.5335Y-3.6846
X4.535Y-3.8685
X4.5413Y-4.0421
X4.5827Y-4.4124
X4.6016Y-3.6343
X4.6039Y-3.4858
X4.6166Y-2.995
X4.6362Y-3.7933
X4.6368Y-3.8652
X4.6402Y-3.9406
X4.6429Y-3.7406
X4.6512Y-3.1661
X4.6624Y-3.5
X4.6939Y-3.0325
X4.6984Y-4.0646
X4.7043Y-3.2205
X4.7213Y-3.8008
X4.7293Y-3.8573
X4.7303Y-3.0843
X4.7323Y-3.928
X4.7327Y-4.5642
X4.7366Y-3.7039
X4.7386Y-4.0122
X4.7536Y-3.2374
X4.7579Y-3.8008
X4.7598Y-3.8573
X4.7638Y-3.1303
X4.7904Y-4.002
X4.7904Y-4.0374
X4.7906Y-3.0157
X4.7913Y-3.7057
X4.7913Y-3.8602
X4.7913Y-3.8957
X4.7913Y-3.9272
X4.7913Y-3.9646
X4.7913Y-4.0738
X4.7913Y-4.1132
X4.7913Y-4.186
X4.7913Y-4.2205
X4.7913Y-4.253
X4.7913Y-4.2864
X4.7913Y-4.3209
X4.7913Y-4.3543
X4.7913Y-4.3878
X4.7913Y-4.4252
X4.7913Y-4.4587
X4.7923Y-3.7382
X4.7923Y-3.7677
X4.7923Y-3.7982
X4.7923Y-4.1506
X4.7933Y-3.6752
X4.8016Y-3.3654
X4.8024Y-3.6106
X4.8173Y-3.4244
X4.8197Y-4.5079
X4.8258Y-3.6732
X4.8268Y-3.0728
X4.8278Y-4.4606
X4.8483Y-3.1344
X4.8543Y-3.5654
X4.8587Y-3.2799
X4.8602Y-3.6732
X4.8701Y-4.4606
X4.8732Y-3.0232
X4.8776Y-4.75
X4.8831Y-3.1811
X4.8917Y-3.6732
X4.8929Y-4.6606
X4.8972Y-4.5598
X4.9024Y-3.5213
X4.9055Y-4.5055
X4.9075Y-4.4606
X4.9146Y-3.0854
X4.9252Y-3.6732
X4.9307Y-4.6094
X4.9386Y-3.0075
X4.9398Y-3.3654
X4.9406Y-4.735
X4.9457Y-3.5752
X4.9469Y-4.4606
X4.9563Y-3.5378
X4.9577Y-3.6732
X4.9591Y-4.5709
X4.9598Y-3.1244
X4.9813Y-4.4606
X4.9898Y-3.6358
X4.9911Y-3.6742
X4.9951Y-4.5335
X4.9976Y-3.189
X5.0157Y-4.4596
X5.0199Y-3.349
X5.0256Y-3.6732
X5.0394Y-4.5344
X5.0531Y-4.4606
X5.0571Y-3.6732
X5.0638Y-3.3657
X5.0701Y-3.4878
X5.0846Y-4.5354
X5.0856Y-4.4606
X5.0876Y-3.6732
X5.1012Y-3.6362
X5.1094Y-3.4476
X5.1173Y-3.374
X5.1211Y-4.4596
X5.1254Y-3.2234
X5.127Y-4.5344
X5.1289Y-3.6732
X5.1575Y-4.4606
X5.1624Y-3.6732
X5.1644Y-4.5335
X5.1728Y-3.3736
X5.1852Y-3.2447
X5.1874Y-3.6386
X5.1919Y-4.4596
X5.1921Y-3.3142
X5.1959Y-3.6732
X5.1969Y-4.5325
X5.2254Y-3.4183
X5.2254Y-3.4518
X5.2264Y-3.3848
X5.2264Y-3.4843
X5.2274Y-3.5226
X5.2274Y-3.5591
X5.2274Y-4.4606
X5.2283Y-3.5965
X5.2283Y-3.6368
X5.2283Y-3.6732
X5.2283Y-4.4984
X5.2291Y-4.5323
T3
X3.1555Y-3.627
X3.4114Y-3.6319
X4.1934Y-4.051
X4.2283Y-4.0626
X4.4193Y-3.7862
T4
X3.2559Y-3.5968
X3.2583Y-4.4937
X3.5929Y-4.3984
X3.6909Y-4.52
X3.8524Y-3.5475
X3.876Y-4.268
X4.0047Y-4.0177
X4.0197Y-3.8236
X4.0287Y-4.1094
X4.0787Y-3.6799
X4.1346Y-4.3736
X4.1806Y-3.6807
X4.5362Y-3.9264
X5.0756Y-3.2299
T5
X3.2037Y-4.1142
X4.526Y-4.2492
X4.6858Y-4.4606
T6
X3.4744Y-4.3846
X4.3961Y-4.3961
T8
X4.3622Y-4.5866
T9
X2.7402Y-3.5425
X2.7402Y-3.5925
X2.7402Y-3.6425
X2.9102Y-3.5819
X2.9102Y-3.6319
X2.9102Y-3.6819
X2.963Y-4.5377
X3.013Y-4.5377
X3.063Y-4.5377
T10
X3.5669Y-4.6755
T11
X3.0386Y-3.2374
X3.0386Y-3.3374
X3.0386Y-3.4374
X3.0386Y-3.5374
X3.2185Y-4.7105
X3.2972Y-4.7105
X3.3386Y-3.2374
X3.3386Y-3.3374
X3.3386Y-3.4374
X3.3386Y-3.5374
X3.376Y-4.7105
X3.4972Y-3.8538
X3.4972Y-3.9538
X3.4972Y-4.0538
X3.4972Y-4.1538
X3.5138Y-3.3519
X3.5138Y-3.6519
X3.6138Y-3.3519
X3.6138Y-3.6519
X3.7138Y-3.3519
X3.7138Y-3.6519
X3.7972Y-3.8538
X3.7972Y-3.9538
X3.7972Y-4.0538
X3.7972Y-4.1538
X3.8138Y-3.3519
X3.8138Y-3.6519
T12
X2.8256Y-4.0546
X2.8256Y-4.1546
X2.8256Y-4.3007
X2.8256Y-4.4007
X2.8268Y-3.8117
X2.8268Y-3.9117
X3.2941Y-3.7958
X3.2941Y-3.8908
X3.7457Y-3.1074
X3.8457Y-3.1074
X3.9457Y-3.1074
X4.0457Y-3.1074
X4.1339Y-3.383
X4.2063Y-3.1054
X4.2339Y-3.383
X4.3063Y-3.1054
X4.3819Y-3.383
X4.4063Y-3.1054
X4.4819Y-3.383
X4.5063Y-3.1054
X4.6189Y-3.3839
X4.7189Y-3.3839
X4.8094Y-4.6141
X4.8094Y-4.7091
T13
X3.1358Y-4.7105
X3.4587Y-4.7105
T14
X2.7494Y-4.6857
X2.7535Y-3.0664
X5.1363Y-3.0645
X5.1366Y-4.6818
T7
G00X3.8Y-4.5645
M15
G01X3.8Y-4.6078
M16
G05
G00X3.8Y-4.7349
M15
G01X3.8Y-4.7664
M16
G05
G00X4.1401Y-4.5645
M15
G01X4.1401Y-4.6078
M16
G05
G00X4.1401Y-4.7349
M15
G01X4.1401Y-4.7664
M16
G05
T0
M30
