%TF.GenerationSoftware,KiCad,Pcbnew,(6.0.0)*%
%TF.CreationDate,2023-04-26T08:22:48-05:00*%
%TF.ProjectId,SNAP_Project,534e4150-5f50-4726-9f6a-6563742e6b69,1.0*%
%TF.SameCoordinates,Original*%
%TF.FileFunction,Copper,L1,Top*%
%TF.FilePolarity,Positive*%
%FSLAX46Y46*%
G04 Gerber Fmt 4.6, Leading zero omitted, Abs format (unit mm)*
G04 Created by KiCad (PCBNEW (6.0.0)) date 2023-04-26 08:22:48*
%MOMM*%
%LPD*%
G01*
G04 APERTURE LIST*
G04 Aperture macros list*
%AMRoundRect*
0 Rectangle with rounded corners*
0 $1 Rounding radius*
0 $2 $3 $4 $5 $6 $7 $8 $9 X,Y pos of 4 corners*
0 Add a 4 corners polygon primitive as box body*
4,1,4,$2,$3,$4,$5,$6,$7,$8,$9,$2,$3,0*
0 Add four circle primitives for the rounded corners*
1,1,$1+$1,$2,$3*
1,1,$1+$1,$4,$5*
1,1,$1+$1,$6,$7*
1,1,$1+$1,$8,$9*
0 Add four rect primitives between the rounded corners*
20,1,$1+$1,$2,$3,$4,$5,0*
20,1,$1+$1,$4,$5,$6,$7,0*
20,1,$1+$1,$6,$7,$8,$9,0*
20,1,$1+$1,$8,$9,$2,$3,0*%
%AMFreePoly0*
4,1,6,0.500000,-0.850000,-0.500000,-0.850000,-0.500000,0.550000,-0.200000,0.850000,0.500000,0.850000,0.500000,-0.850000,0.500000,-0.850000,$1*%
G04 Aperture macros list end*
%TA.AperFunction,ComponentPad*%
%ADD10RoundRect,0.250000X-0.620000X-0.845000X0.620000X-0.845000X0.620000X0.845000X-0.620000X0.845000X0*%
%TD*%
%TA.AperFunction,ComponentPad*%
%ADD11O,1.740000X2.190000*%
%TD*%
%TA.AperFunction,SMDPad,CuDef*%
%ADD12RoundRect,0.140000X-0.170000X0.140000X-0.170000X-0.140000X0.170000X-0.140000X0.170000X0.140000X0*%
%TD*%
%TA.AperFunction,SMDPad,CuDef*%
%ADD13R,0.600000X1.150000*%
%TD*%
%TA.AperFunction,SMDPad,CuDef*%
%ADD14RoundRect,0.140000X0.170000X-0.140000X0.170000X0.140000X-0.170000X0.140000X-0.170000X-0.140000X0*%
%TD*%
%TA.AperFunction,SMDPad,CuDef*%
%ADD15R,1.700000X0.900000*%
%TD*%
%TA.AperFunction,ComponentPad*%
%ADD16R,1.050000X1.500000*%
%TD*%
%TA.AperFunction,ComponentPad*%
%ADD17O,1.050000X1.500000*%
%TD*%
%TA.AperFunction,SMDPad,CuDef*%
%ADD18RoundRect,0.250000X0.650000X-0.325000X0.650000X0.325000X-0.650000X0.325000X-0.650000X-0.325000X0*%
%TD*%
%TA.AperFunction,SMDPad,CuDef*%
%ADD19RoundRect,0.250000X0.262500X0.450000X-0.262500X0.450000X-0.262500X-0.450000X0.262500X-0.450000X0*%
%TD*%
%TA.AperFunction,SMDPad,CuDef*%
%ADD20RoundRect,0.200000X0.275000X-0.200000X0.275000X0.200000X-0.275000X0.200000X-0.275000X-0.200000X0*%
%TD*%
%TA.AperFunction,SMDPad,CuDef*%
%ADD21RoundRect,0.140000X-0.140000X-0.170000X0.140000X-0.170000X0.140000X0.170000X-0.140000X0.170000X0*%
%TD*%
%TA.AperFunction,SMDPad,CuDef*%
%ADD22C,1.000000*%
%TD*%
%TA.AperFunction,SMDPad,CuDef*%
%ADD23RoundRect,0.250000X0.450000X-0.262500X0.450000X0.262500X-0.450000X0.262500X-0.450000X-0.262500X0*%
%TD*%
%TA.AperFunction,SMDPad,CuDef*%
%ADD24RoundRect,0.140000X0.140000X0.170000X-0.140000X0.170000X-0.140000X-0.170000X0.140000X-0.170000X0*%
%TD*%
%TA.AperFunction,ComponentPad*%
%ADD25C,6.000000*%
%TD*%
%TA.AperFunction,SMDPad,CuDef*%
%ADD26RoundRect,0.250000X-0.625000X0.312500X-0.625000X-0.312500X0.625000X-0.312500X0.625000X0.312500X0*%
%TD*%
%TA.AperFunction,SMDPad,CuDef*%
%ADD27R,0.800000X0.500000*%
%TD*%
%TA.AperFunction,SMDPad,CuDef*%
%ADD28R,0.500000X0.300000*%
%TD*%
%TA.AperFunction,SMDPad,CuDef*%
%ADD29RoundRect,0.150000X-0.150000X0.512500X-0.150000X-0.512500X0.150000X-0.512500X0.150000X0.512500X0*%
%TD*%
%TA.AperFunction,SMDPad,CuDef*%
%ADD30R,0.700000X0.750000*%
%TD*%
%TA.AperFunction,ComponentPad*%
%ADD31RoundRect,0.250000X0.845000X-0.620000X0.845000X0.620000X-0.845000X0.620000X-0.845000X-0.620000X0*%
%TD*%
%TA.AperFunction,ComponentPad*%
%ADD32O,2.190000X1.740000*%
%TD*%
%TA.AperFunction,ComponentPad*%
%ADD33R,1.500000X1.050000*%
%TD*%
%TA.AperFunction,ComponentPad*%
%ADD34O,1.500000X1.050000*%
%TD*%
%TA.AperFunction,SMDPad,CuDef*%
%ADD35R,1.000000X1.800000*%
%TD*%
%TA.AperFunction,SMDPad,CuDef*%
%ADD36RoundRect,0.250000X-0.450000X0.262500X-0.450000X-0.262500X0.450000X-0.262500X0.450000X0.262500X0*%
%TD*%
%TA.AperFunction,SMDPad,CuDef*%
%ADD37RoundRect,0.250000X0.325000X0.650000X-0.325000X0.650000X-0.325000X-0.650000X0.325000X-0.650000X0*%
%TD*%
%TA.AperFunction,SMDPad,CuDef*%
%ADD38RoundRect,0.150000X0.150000X-0.512500X0.150000X0.512500X-0.150000X0.512500X-0.150000X-0.512500X0*%
%TD*%
%TA.AperFunction,SMDPad,CuDef*%
%ADD39R,0.600000X1.450000*%
%TD*%
%TA.AperFunction,SMDPad,CuDef*%
%ADD40R,0.300000X1.450000*%
%TD*%
%TA.AperFunction,ComponentPad*%
%ADD41O,1.000000X2.100000*%
%TD*%
%TA.AperFunction,ComponentPad*%
%ADD42O,1.000000X1.800000*%
%TD*%
%TA.AperFunction,SMDPad,CuDef*%
%ADD43RoundRect,0.150000X0.512500X0.150000X-0.512500X0.150000X-0.512500X-0.150000X0.512500X-0.150000X0*%
%TD*%
%TA.AperFunction,SMDPad,CuDef*%
%ADD44RoundRect,0.250000X-0.262500X-0.450000X0.262500X-0.450000X0.262500X0.450000X-0.262500X0.450000X0*%
%TD*%
%TA.AperFunction,SMDPad,CuDef*%
%ADD45R,2.250000X1.600000*%
%TD*%
%TA.AperFunction,SMDPad,CuDef*%
%ADD46RoundRect,0.135000X-0.135000X-0.185000X0.135000X-0.185000X0.135000X0.185000X-0.135000X0.185000X0*%
%TD*%
%TA.AperFunction,SMDPad,CuDef*%
%ADD47R,1.903000X2.790000*%
%TD*%
%TA.AperFunction,SMDPad,CuDef*%
%ADD48R,0.650000X1.220000*%
%TD*%
%TA.AperFunction,SMDPad,CuDef*%
%ADD49RoundRect,0.135000X-0.185000X0.135000X-0.185000X-0.135000X0.185000X-0.135000X0.185000X0.135000X0*%
%TD*%
%TA.AperFunction,SMDPad,CuDef*%
%ADD50RoundRect,0.250000X-0.650000X0.325000X-0.650000X-0.325000X0.650000X-0.325000X0.650000X0.325000X0*%
%TD*%
%TA.AperFunction,SMDPad,CuDef*%
%ADD51RoundRect,0.135000X0.185000X-0.135000X0.185000X0.135000X-0.185000X0.135000X-0.185000X-0.135000X0*%
%TD*%
%TA.AperFunction,SMDPad,CuDef*%
%ADD52RoundRect,0.200000X-0.275000X0.200000X-0.275000X-0.200000X0.275000X-0.200000X0.275000X0.200000X0*%
%TD*%
%TA.AperFunction,SMDPad,CuDef*%
%ADD53R,1.200000X0.900000*%
%TD*%
%TA.AperFunction,ComponentPad*%
%ADD54R,1.600000X1.600000*%
%TD*%
%TA.AperFunction,ComponentPad*%
%ADD55O,1.600000X1.600000*%
%TD*%
%TA.AperFunction,SMDPad,CuDef*%
%ADD56RoundRect,0.200000X0.200000X0.275000X-0.200000X0.275000X-0.200000X-0.275000X0.200000X-0.275000X0*%
%TD*%
%TA.AperFunction,SMDPad,CuDef*%
%ADD57R,0.250000X0.550000*%
%TD*%
%TA.AperFunction,SMDPad,CuDef*%
%ADD58FreePoly0,90.000000*%
%TD*%
%TA.AperFunction,SMDPad,CuDef*%
%ADD59R,0.400000X1.000000*%
%TD*%
%TA.AperFunction,SMDPad,CuDef*%
%ADD60RoundRect,0.218750X0.256250X-0.218750X0.256250X0.218750X-0.256250X0.218750X-0.256250X-0.218750X0*%
%TD*%
%TA.AperFunction,ComponentPad*%
%ADD61C,1.300000*%
%TD*%
%TA.AperFunction,ComponentPad*%
%ADD62C,2.250000*%
%TD*%
%TA.AperFunction,SMDPad,CuDef*%
%ADD63RoundRect,0.147500X-0.147500X-0.172500X0.147500X-0.172500X0.147500X0.172500X-0.147500X0.172500X0*%
%TD*%
%TA.AperFunction,SMDPad,CuDef*%
%ADD64R,1.500000X0.400000*%
%TD*%
%TA.AperFunction,SMDPad,CuDef*%
%ADD65R,0.400000X2.900000*%
%TD*%
%TA.AperFunction,SMDPad,CuDef*%
%ADD66R,1.600000X0.400000*%
%TD*%
%TA.AperFunction,SMDPad,CuDef*%
%ADD67R,0.400000X9.300000*%
%TD*%
%TA.AperFunction,SMDPad,CuDef*%
%ADD68R,0.400000X6.600000*%
%TD*%
%TA.AperFunction,SMDPad,CuDef*%
%ADD69RoundRect,0.147500X0.172500X-0.147500X0.172500X0.147500X-0.172500X0.147500X-0.172500X-0.147500X0*%
%TD*%
%TA.AperFunction,SMDPad,CuDef*%
%ADD70R,0.300000X0.850000*%
%TD*%
%TA.AperFunction,SMDPad,CuDef*%
%ADD71R,0.850000X0.300000*%
%TD*%
%TA.AperFunction,SMDPad,CuDef*%
%ADD72R,5.700000X5.700000*%
%TD*%
%TA.AperFunction,SMDPad,CuDef*%
%ADD73R,3.300000X2.500000*%
%TD*%
%TA.AperFunction,ViaPad*%
%ADD74C,1.200000*%
%TD*%
%TA.AperFunction,ViaPad*%
%ADD75C,0.550000*%
%TD*%
%TA.AperFunction,ViaPad*%
%ADD76C,1.000000*%
%TD*%
%TA.AperFunction,ViaPad*%
%ADD77C,0.800000*%
%TD*%
%TA.AperFunction,ViaPad*%
%ADD78C,0.700000*%
%TD*%
%TA.AperFunction,ViaPad*%
%ADD79C,0.500000*%
%TD*%
%TA.AperFunction,ViaPad*%
%ADD80C,0.600000*%
%TD*%
%TA.AperFunction,Conductor*%
%ADD81C,0.800000*%
%TD*%
%TA.AperFunction,Conductor*%
%ADD82C,0.700000*%
%TD*%
%TA.AperFunction,Conductor*%
%ADD83C,0.350000*%
%TD*%
%TA.AperFunction,Conductor*%
%ADD84C,0.250000*%
%TD*%
%TA.AperFunction,Conductor*%
%ADD85C,1.000000*%
%TD*%
%TA.AperFunction,Conductor*%
%ADD86C,0.600000*%
%TD*%
%TA.AperFunction,Conductor*%
%ADD87C,0.500000*%
%TD*%
%TA.AperFunction,Conductor*%
%ADD88C,0.400000*%
%TD*%
%TA.AperFunction,Conductor*%
%ADD89C,0.200000*%
%TD*%
%TA.AperFunction,Conductor*%
%ADD90C,0.900000*%
%TD*%
%TA.AperFunction,Conductor*%
%ADD91C,0.300000*%
%TD*%
%TA.AperFunction,Conductor*%
%ADD92C,1.800000*%
%TD*%
G04 APERTURE END LIST*
D10*
%TO.P,J4,1,Pin_1*%
%TO.N,I2C1_SDA*%
X95140000Y-78927500D03*
D11*
%TO.P,J4,2,Pin_2*%
%TO.N,I2C1_SCL*%
X97680000Y-78927500D03*
%TO.P,J4,3,Pin_3*%
%TO.N,GND*%
X100220000Y-78927500D03*
%TO.P,J4,4,Pin_4*%
%TO.N,+3V0*%
X102760000Y-78927500D03*
%TD*%
D12*
%TO.P,C13,1*%
%TO.N,+3V0*%
X102830000Y-101790000D03*
%TO.P,C13,2*%
%TO.N,GND*%
X102830000Y-102750000D03*
%TD*%
D13*
%TO.P,IC1,1,VIN*%
%TO.N,SW_ON*%
X91850000Y-113207500D03*
%TO.P,IC1,2,GND*%
%TO.N,GND*%
X92800000Y-113207500D03*
%TO.P,IC1,3,EN*%
%TO.N,SW_EN*%
X93750000Y-113207500D03*
%TO.P,IC1,4,NC*%
%TO.N,unconnected-(IC1-Pad4)*%
X93750000Y-110707500D03*
%TO.P,IC1,5,VOUT*%
%TO.N,+3V0*%
X91850000Y-110707500D03*
%TD*%
D14*
%TO.P,C24,1*%
%TO.N,+3V0*%
X107150000Y-93450000D03*
%TO.P,C24,2*%
%TO.N,GND*%
X107150000Y-92490000D03*
%TD*%
D15*
%TO.P,SW2,1,1*%
%TO.N,NRST*%
X109160000Y-108950000D03*
%TO.P,SW2,2,2*%
%TO.N,GND*%
X109160000Y-112350000D03*
%TD*%
D16*
%TO.P,Q3,1,S*%
%TO.N,GND*%
X77800000Y-115257500D03*
D17*
%TO.P,Q3,2,G*%
%TO.N,FILT_PWM*%
X76530000Y-115257500D03*
%TO.P,Q3,3,D*%
%TO.N,Net-(Q3-Pad3)*%
X75260000Y-115257500D03*
%TD*%
D18*
%TO.P,C5,1*%
%TO.N,Net-(C5-Pad1)*%
X114960000Y-109595000D03*
%TO.P,C5,2*%
%TO.N,GND*%
X114960000Y-106645000D03*
%TD*%
D19*
%TO.P,R27,1*%
%TO.N,Net-(Q4-Pad2)*%
X74232500Y-85780000D03*
%TO.P,R27,2*%
%TO.N,Net-(R18-Pad2)*%
X72407500Y-85780000D03*
%TD*%
D20*
%TO.P,R4,1*%
%TO.N,Net-(D3-Pad1)*%
X75460000Y-100905000D03*
%TO.P,R4,2*%
%TO.N,Net-(Q2-Pad3)*%
X75460000Y-99255000D03*
%TD*%
D21*
%TO.P,C20,1*%
%TO.N,FILT_PWM*%
X76730000Y-94690000D03*
%TO.P,C20,2*%
%TO.N,GND*%
X77690000Y-94690000D03*
%TD*%
D22*
%TO.P,TP1,1,1*%
%TO.N,VBUS*%
X96330000Y-112200000D03*
%TD*%
D23*
%TO.P,R11,1*%
%TO.N,VBUS*%
X106450000Y-113402500D03*
%TO.P,R11,2*%
%TO.N,GND*%
X106450000Y-111577500D03*
%TD*%
D24*
%TO.P,C31,1*%
%TO.N,+3V0*%
X101430000Y-97107500D03*
%TO.P,C31,2*%
%TO.N,GND*%
X100470000Y-97107500D03*
%TD*%
D14*
%TO.P,C9,1*%
%TO.N,+3V0*%
X104300000Y-93487500D03*
%TO.P,C9,2*%
%TO.N,GND*%
X104300000Y-92527500D03*
%TD*%
D23*
%TO.P,R19,1*%
%TO.N,PWM_VREF*%
X98550000Y-103720000D03*
%TO.P,R19,2*%
%TO.N,Net-(C26-Pad1)*%
X98550000Y-101895000D03*
%TD*%
D25*
%TO.P,H2,1*%
%TO.N,N/C*%
X69940000Y-77887500D03*
%TD*%
D26*
%TO.P,R1,1*%
%TO.N,+5V*%
X76710000Y-102297500D03*
%TO.P,R1,2*%
%TO.N,Net-(R1-Pad2)*%
X76710000Y-105222500D03*
%TD*%
D19*
%TO.P,R18,1*%
%TO.N,Net-(Q4-Pad2)*%
X74232500Y-87950000D03*
%TO.P,R18,2*%
%TO.N,Net-(R18-Pad2)*%
X72407500Y-87950000D03*
%TD*%
D27*
%TO.P,FL1,1,GND_1*%
%TO.N,GND*%
X117760000Y-96850000D03*
D28*
%TO.P,FL1,2,OUT*%
%TO.N,Net-(AE1-Pad1)*%
X118610000Y-97300000D03*
D27*
%TO.P,FL1,3,GND_2*%
%TO.N,GND*%
X117760000Y-97750000D03*
D28*
%TO.P,FL1,4,IN*%
%TO.N,Net-(C25-Pad1)*%
X116910000Y-97300000D03*
%TD*%
D29*
%TO.P,U2,1,SW*%
%TO.N,Net-(D1-Pad2)*%
X79550000Y-107082500D03*
%TO.P,U2,2,GND*%
%TO.N,GND*%
X78600000Y-107082500D03*
%TO.P,U2,3,FB*%
%TO.N,Net-(R1-Pad2)*%
X77650000Y-107082500D03*
%TO.P,U2,4,EN*%
%TO.N,MT3608_EN*%
X77650000Y-109357500D03*
%TO.P,U2,5,IN*%
%TO.N,+3V0*%
X78600000Y-109357500D03*
%TO.P,U2,6,NC*%
%TO.N,unconnected-(U2-Pad6)*%
X79550000Y-109357500D03*
%TD*%
D30*
%TO.P,Y1,1,1*%
%TO.N,HSE_IN*%
X111350000Y-92632500D03*
%TO.P,Y1,2,2*%
%TO.N,GND*%
X111350000Y-93982500D03*
%TO.P,Y1,3,3*%
%TO.N,HSE_OUT*%
X112350000Y-93982500D03*
%TO.P,Y1,4,4*%
%TO.N,GND*%
X112350000Y-92632500D03*
%TD*%
D31*
%TO.P,BT1,1,+*%
%TO.N,+BATT*%
X122160000Y-117197000D03*
D32*
%TO.P,BT1,2,-*%
%TO.N,GND*%
X122160000Y-119610000D03*
%TD*%
D33*
%TO.P,Q2,1,S*%
%TO.N,GND*%
X73920000Y-90980000D03*
D34*
%TO.P,Q2,2,G*%
%TO.N,FILT_PWM*%
X73920000Y-92250000D03*
%TO.P,Q2,3,D*%
%TO.N,Net-(Q2-Pad3)*%
X73920000Y-93520000D03*
%TD*%
D23*
%TO.P,R28,1*%
%TO.N,Net-(R18-Pad2)*%
X74230000Y-83822500D03*
%TO.P,R28,2*%
%TO.N,GND*%
X74230000Y-81997500D03*
%TD*%
D22*
%TO.P,TP4,1,1*%
%TO.N,GND*%
X120450000Y-113920000D03*
%TD*%
%TO.P,TP2,1,1*%
%TO.N,+5V*%
X78000000Y-93290000D03*
%TD*%
D23*
%TO.P,R30,1*%
%TO.N,Net-(C19-Pad1)*%
X77580000Y-97952500D03*
%TO.P,R30,2*%
%TO.N,FILT_PWM*%
X77580000Y-96127500D03*
%TD*%
D35*
%TO.P,Y2,1,1*%
%TO.N,LSE_OUT*%
X107200000Y-105207500D03*
%TO.P,Y2,2,2*%
%TO.N,LSE_IN*%
X104700000Y-105207500D03*
%TD*%
D31*
%TO.P,D4,1,K*%
%TO.N,Net-(D4-Pad1)*%
X71770000Y-111777500D03*
D32*
%TO.P,D4,2,A*%
%TO.N,4261_EN*%
X71770000Y-109237500D03*
%TD*%
D18*
%TO.P,C7,1*%
%TO.N,+BATT*%
X117329273Y-116247500D03*
%TO.P,C7,2*%
%TO.N,GND*%
X117329273Y-113297500D03*
%TD*%
D24*
%TO.P,C22,1*%
%TO.N,LSE_OUT*%
X107430000Y-106857500D03*
%TO.P,C22,2*%
%TO.N,GND*%
X106470000Y-106857500D03*
%TD*%
D14*
%TO.P,C12,1*%
%TO.N,+3V0*%
X105350000Y-93487500D03*
%TO.P,C12,2*%
%TO.N,GND*%
X105350000Y-92527500D03*
%TD*%
D12*
%TO.P,C11,1*%
%TO.N,+3V0*%
X113920000Y-99210000D03*
%TO.P,C11,2*%
%TO.N,GND*%
X113920000Y-100170000D03*
%TD*%
D36*
%TO.P,R26,1*%
%TO.N,OPAMP_ADC*%
X99450000Y-88245000D03*
%TO.P,R26,2*%
%TO.N,Net-(R23-Pad2)*%
X99450000Y-90070000D03*
%TD*%
D37*
%TO.P,C2,1*%
%TO.N,+3V0*%
X91825000Y-108407500D03*
%TO.P,C2,2*%
%TO.N,GND*%
X88875000Y-108407500D03*
%TD*%
D19*
%TO.P,R22,1*%
%TO.N,Net-(Q4-Pad2)*%
X82662500Y-93457500D03*
%TO.P,R22,2*%
%TO.N,GND*%
X80837500Y-93457500D03*
%TD*%
D18*
%TO.P,C6,1*%
%TO.N,VBUS*%
X112144637Y-113287864D03*
%TO.P,C6,2*%
%TO.N,GND*%
X112144637Y-110337864D03*
%TD*%
D25*
%TO.P,H4,1*%
%TO.N,N/C*%
X69833680Y-119017500D03*
%TD*%
D38*
%TO.P,U1,1,I/O1*%
%TO.N,USB_CONN_D-*%
X100115773Y-110095000D03*
%TO.P,U1,2,GND*%
%TO.N,GND*%
X101065773Y-110095000D03*
%TO.P,U1,3,I/O2*%
%TO.N,USB_CONN_D+*%
X102015773Y-110095000D03*
%TO.P,U1,4,I/O2*%
%TO.N,USB_D+*%
X102015773Y-107820000D03*
%TO.P,U1,5,VBUS*%
%TO.N,Net-(F1-Pad1)*%
X101065773Y-107820000D03*
%TO.P,U1,6,I/O1*%
%TO.N,USB_D-*%
X100115773Y-107820000D03*
%TD*%
D23*
%TO.P,R9,1*%
%TO.N,Net-(R9-Pad1)*%
X117040000Y-108292500D03*
%TO.P,R9,2*%
%TO.N,Net-(Q5-Pad4)*%
X117040000Y-106467500D03*
%TD*%
D39*
%TO.P,J1,A1,GND*%
%TO.N,GND*%
X97589273Y-115572500D03*
%TO.P,J1,A4,VBUS*%
%TO.N,Net-(F1-Pad1)*%
X98389273Y-115572500D03*
D40*
%TO.P,J1,A5,CC1*%
%TO.N,Net-(J1-PadA5)*%
X99589273Y-115572500D03*
%TO.P,J1,A6,D+*%
%TO.N,USB_CONN_D+*%
X100589273Y-115572500D03*
%TO.P,J1,A7,D-*%
%TO.N,USB_CONN_D-*%
X101089273Y-115572500D03*
%TO.P,J1,A8,SBU1*%
%TO.N,unconnected-(J1-PadA8)*%
X102089273Y-115572500D03*
D39*
%TO.P,J1,A9,VBUS*%
%TO.N,Net-(F1-Pad1)*%
X103289273Y-115572500D03*
%TO.P,J1,A12,GND*%
%TO.N,GND*%
X104089273Y-115572500D03*
%TO.P,J1,B1,GND*%
X104089273Y-115572500D03*
%TO.P,J1,B4,VBUS*%
%TO.N,Net-(F1-Pad1)*%
X103289273Y-115572500D03*
D40*
%TO.P,J1,B5,CC2*%
%TO.N,Net-(J1-PadB5)*%
X102589273Y-115572500D03*
%TO.P,J1,B6,D+*%
%TO.N,USB_CONN_D+*%
X101589273Y-115572500D03*
%TO.P,J1,B7,D-*%
%TO.N,USB_CONN_D-*%
X100089273Y-115572500D03*
%TO.P,J1,B8,SBU2*%
%TO.N,unconnected-(J1-PadB8)*%
X99089273Y-115572500D03*
D39*
%TO.P,J1,B9,VBUS*%
%TO.N,Net-(F1-Pad1)*%
X98389273Y-115572500D03*
%TO.P,J1,B12,GND*%
%TO.N,GND*%
X97589273Y-115572500D03*
D41*
%TO.P,J1,S1,SHIELD*%
X105159273Y-116487500D03*
D42*
X96519273Y-120667500D03*
X105159273Y-120667500D03*
D41*
X96519273Y-116487500D03*
%TD*%
D24*
%TO.P,C28,1*%
%TO.N,BUTT_BT*%
X119380000Y-89827500D03*
%TO.P,C28,2*%
%TO.N,GND*%
X118420000Y-89827500D03*
%TD*%
D43*
%TO.P,U8,1,STAT*%
%TO.N,BAT_STAT*%
X115076773Y-117067500D03*
%TO.P,U8,2,VSS*%
%TO.N,GND*%
X115076773Y-116117500D03*
%TO.P,U8,3,VBAT*%
%TO.N,+BATT*%
X115076773Y-115167500D03*
%TO.P,U8,4,VDD*%
%TO.N,VBUS*%
X112801773Y-115167500D03*
%TO.P,U8,5,PROG*%
%TO.N,Net-(R10-Pad1)*%
X112801773Y-117067500D03*
%TD*%
D31*
%TO.P,D3,1,K*%
%TO.N,Net-(D3-Pad1)*%
X71770000Y-105527500D03*
D32*
%TO.P,D3,2,A*%
%TO.N,4273_EN*%
X71770000Y-102987500D03*
%TD*%
D44*
%TO.P,R23,1*%
%TO.N,Feedback_VREF*%
X90937500Y-94957500D03*
%TO.P,R23,2*%
%TO.N,Net-(R23-Pad2)*%
X92762500Y-94957500D03*
%TD*%
D37*
%TO.P,C3,1*%
%TO.N,+3V0*%
X78875000Y-111720000D03*
%TO.P,C3,2*%
%TO.N,GND*%
X75925000Y-111720000D03*
%TD*%
D14*
%TO.P,C26,1*%
%TO.N,Net-(C26-Pad1)*%
X94625000Y-101737500D03*
%TO.P,C26,2*%
%TO.N,GND*%
X94625000Y-100777500D03*
%TD*%
D45*
%TO.P,D5,1,K*%
%TO.N,SW_ON*%
X89900000Y-116907500D03*
%TO.P,D5,2,A*%
%TO.N,VBUS*%
X94000000Y-116907500D03*
%TD*%
D36*
%TO.P,R24,1*%
%TO.N,Net-(R24-Pad1)*%
X86600000Y-88745000D03*
%TO.P,R24,2*%
%TO.N,Net-(R24-Pad2)*%
X86600000Y-90570000D03*
%TD*%
D25*
%TO.P,H3,1*%
%TO.N,N/C*%
X130468680Y-118918680D03*
%TD*%
D46*
%TO.P,R15,1*%
%TO.N,+3V0*%
X94110000Y-82570000D03*
%TO.P,R15,2*%
%TO.N,I2C1_SDA*%
X95130000Y-82570000D03*
%TD*%
D33*
%TO.P,Q1,1,S*%
%TO.N,GND*%
X69600000Y-92520000D03*
D34*
%TO.P,Q1,2,G*%
%TO.N,FILT_PWM*%
X69600000Y-91250000D03*
%TO.P,Q1,3,D*%
%TO.N,Net-(Q1-Pad3)*%
X69600000Y-89980000D03*
%TD*%
D10*
%TO.P,J3,1,Pin_1*%
%TO.N,unconnected-(J3-Pad1)*%
X106840000Y-78877500D03*
D11*
%TO.P,J3,2,Pin_2*%
%TO.N,SWCLK*%
X109380000Y-78877500D03*
%TO.P,J3,3,Pin_3*%
%TO.N,SWDIO*%
X111920000Y-78877500D03*
%TO.P,J3,4,Pin_4*%
%TO.N,GND*%
X114460000Y-78877500D03*
%TD*%
D26*
%TO.P,R2,1*%
%TO.N,Net-(R1-Pad2)*%
X75940000Y-106847500D03*
%TO.P,R2,2*%
%TO.N,GND*%
X75940000Y-109772500D03*
%TD*%
D46*
%TO.P,R13,1*%
%TO.N,BATT_ADC*%
X112780000Y-105080000D03*
%TO.P,R13,2*%
%TO.N,GND*%
X113800000Y-105080000D03*
%TD*%
D44*
%TO.P,R25,1*%
%TO.N,Net-(R24-Pad2)*%
X94537500Y-94957500D03*
%TO.P,R25,2*%
%TO.N,GND*%
X96362500Y-94957500D03*
%TD*%
D19*
%TO.P,R29,1*%
%TO.N,PWM_LEDS*%
X79362500Y-99770000D03*
%TO.P,R29,2*%
%TO.N,Net-(C19-Pad1)*%
X77537500Y-99770000D03*
%TD*%
D47*
%TO.P,L1,1*%
%TO.N,+3V0*%
X80800000Y-114020000D03*
%TO.P,L1,2*%
%TO.N,Net-(D1-Pad2)*%
X85653000Y-114020000D03*
%TD*%
D48*
%TO.P,Q6,1,D*%
%TO.N,SW_ON*%
X109794637Y-115115000D03*
%TO.P,Q6,2,G*%
%TO.N,VBUS*%
X107894637Y-115115000D03*
%TO.P,Q6,3,S*%
%TO.N,+BATT*%
X108844637Y-117735000D03*
%TD*%
D49*
%TO.P,R6,1*%
%TO.N,GND*%
X102665773Y-112347500D03*
%TO.P,R6,2*%
%TO.N,Net-(J1-PadB5)*%
X102665773Y-113367500D03*
%TD*%
D10*
%TO.P,SW3,1,1*%
%TO.N,GND*%
X117320000Y-85950000D03*
D11*
%TO.P,SW3,2,2*%
%TO.N,BUTT_BT*%
X119860000Y-85950000D03*
%TD*%
D12*
%TO.P,C18,1*%
%TO.N,NRST*%
X106950000Y-109070000D03*
%TO.P,C18,2*%
%TO.N,GND*%
X106950000Y-110030000D03*
%TD*%
D18*
%TO.P,C1,1*%
%TO.N,SW_ON*%
X89800000Y-113432500D03*
%TO.P,C1,2*%
%TO.N,GND*%
X89800000Y-110482500D03*
%TD*%
D25*
%TO.P,H1,1*%
%TO.N,N/C*%
X130461320Y-77838680D03*
%TD*%
D50*
%TO.P,C4,1*%
%TO.N,+5V*%
X79200000Y-101545000D03*
%TO.P,C4,2*%
%TO.N,GND*%
X79200000Y-104495000D03*
%TD*%
D21*
%TO.P,C21,1*%
%TO.N,LSE_IN*%
X104470000Y-106857500D03*
%TO.P,C21,2*%
%TO.N,GND*%
X105430000Y-106857500D03*
%TD*%
D12*
%TO.P,C25,1*%
%TO.N,Net-(C25-Pad1)*%
X115910000Y-97300000D03*
%TO.P,C25,2*%
%TO.N,GND*%
X115910000Y-98260000D03*
%TD*%
D49*
%TO.P,R7,1*%
%TO.N,GND*%
X99365773Y-112347500D03*
%TO.P,R7,2*%
%TO.N,Net-(J1-PadA5)*%
X99365773Y-113367500D03*
%TD*%
D51*
%TO.P,R12,1*%
%TO.N,+BATT*%
X112410000Y-108070000D03*
%TO.P,R12,2*%
%TO.N,BATT_ADC*%
X112410000Y-107050000D03*
%TD*%
D21*
%TO.P,C17,1*%
%TO.N,+3.3VA*%
X108620000Y-104407500D03*
%TO.P,C17,2*%
%TO.N,GND*%
X109580000Y-104407500D03*
%TD*%
D52*
%TO.P,R5,1*%
%TO.N,Net-(D4-Pad1)*%
X73040000Y-113975000D03*
%TO.P,R5,2*%
%TO.N,Net-(Q3-Pad3)*%
X73040000Y-115625000D03*
%TD*%
D14*
%TO.P,C19,1*%
%TO.N,Net-(C19-Pad1)*%
X79280000Y-97960000D03*
%TO.P,C19,2*%
%TO.N,GND*%
X79280000Y-97000000D03*
%TD*%
D53*
%TO.P,D6,1,RA*%
%TO.N,RGB_RED*%
X128060000Y-89855000D03*
%TO.P,D6,2,K*%
%TO.N,Net-(D6-Pad2)*%
X130860000Y-89855000D03*
%TO.P,D6,3,GA*%
%TO.N,RGB_GREEN*%
X130860000Y-91305000D03*
%TO.P,D6,4,BA*%
%TO.N,RGB_BLUE*%
X128060000Y-91305000D03*
%TD*%
D54*
%TO.P,U5,1,VOS_1*%
%TO.N,unconnected-(U5-Pad1)*%
X96450000Y-105507500D03*
D55*
%TO.P,U5,2,-*%
%TO.N,Feedback_VREF*%
X96450000Y-102967500D03*
%TO.P,U5,3,+*%
%TO.N,Net-(C27-Pad1)*%
X96450000Y-100427500D03*
%TO.P,U5,4,V-*%
%TO.N,GND*%
X96450000Y-97887500D03*
%TO.P,U5,5,NC*%
%TO.N,unconnected-(U5-Pad5)*%
X88830000Y-97887500D03*
%TO.P,U5,6,OUT*%
%TO.N,Feedback_VREF*%
X88830000Y-100427500D03*
%TO.P,U5,7,V+*%
%TO.N,+5V*%
X88830000Y-102967500D03*
%TO.P,U5,8,VOS_8*%
%TO.N,unconnected-(U5-Pad8)*%
X88830000Y-105507500D03*
%TD*%
D14*
%TO.P,C27,1*%
%TO.N,Net-(C27-Pad1)*%
X94750000Y-99537500D03*
%TO.P,C27,2*%
%TO.N,GND*%
X94750000Y-98577500D03*
%TD*%
D23*
%TO.P,R8,1*%
%TO.N,+BATT*%
X115239273Y-113030000D03*
%TO.P,R8,2*%
%TO.N,Net-(C5-Pad1)*%
X115239273Y-111205000D03*
%TD*%
D12*
%TO.P,C23,1*%
%TO.N,BLE_RF*%
X112840000Y-97300000D03*
%TO.P,C23,2*%
%TO.N,GND*%
X112840000Y-98260000D03*
%TD*%
D56*
%TO.P,R10,1*%
%TO.N,Net-(R10-Pad1)*%
X113175000Y-119100000D03*
%TO.P,R10,2*%
%TO.N,GND*%
X111525000Y-119100000D03*
%TD*%
D24*
%TO.P,C10,1*%
%TO.N,+3V0*%
X104400000Y-103060000D03*
%TO.P,C10,2*%
%TO.N,GND*%
X103440000Y-103060000D03*
%TD*%
D54*
%TO.P,U6,1,VOS_1*%
%TO.N,unconnected-(U6-Pad1)*%
X77180000Y-82230000D03*
D55*
%TO.P,U6,2,-*%
%TO.N,Net-(R24-Pad1)*%
X77180000Y-84770000D03*
%TO.P,U6,3,+*%
%TO.N,Net-(Q4-Pad2)*%
X77180000Y-87310000D03*
%TO.P,U6,4,V-*%
%TO.N,GND*%
X77180000Y-89850000D03*
%TO.P,U6,5,NC*%
%TO.N,unconnected-(U6-Pad5)*%
X84800000Y-89850000D03*
%TO.P,U6,6,OUT*%
%TO.N,Net-(R24-Pad1)*%
X84800000Y-87310000D03*
%TO.P,U6,7,V+*%
%TO.N,+5V*%
X84800000Y-84770000D03*
%TO.P,U6,8,VOS_8*%
%TO.N,unconnected-(U6-Pad8)*%
X84800000Y-82230000D03*
%TD*%
D12*
%TO.P,C8,1*%
%TO.N,+3V0*%
X129980000Y-84110000D03*
%TO.P,C8,2*%
%TO.N,GND*%
X129980000Y-85070000D03*
%TD*%
D46*
%TO.P,R16,1*%
%TO.N,+3V0*%
X96690000Y-82570000D03*
%TO.P,R16,2*%
%TO.N,I2C1_SCL*%
X97710000Y-82570000D03*
%TD*%
D23*
%TO.P,R3,1*%
%TO.N,Net-(D2-Pad1)*%
X75220000Y-97862500D03*
%TO.P,R3,2*%
%TO.N,Net-(Q1-Pad3)*%
X75220000Y-96037500D03*
%TD*%
D44*
%TO.P,R21,1*%
%TO.N,Net-(Q4-Pad2)*%
X84587500Y-93457500D03*
%TO.P,R21,2*%
%TO.N,GND*%
X86412500Y-93457500D03*
%TD*%
D57*
%TO.P,U4,1,SDA*%
%TO.N,I2C1_SDA*%
X127305000Y-86442500D03*
%TO.P,U4,2,ADDR*%
%TO.N,GND*%
X127805000Y-86442500D03*
%TO.P,U4,3,ALERT*%
%TO.N,unconnected-(U4-Pad3)*%
X128305000Y-86442500D03*
%TO.P,U4,4,SCL*%
%TO.N,I2C1_SCL*%
X128805000Y-86442500D03*
%TO.P,U4,5,VDD*%
%TO.N,+3V0*%
X128805000Y-84092500D03*
%TO.P,U4,6,~{RESET}*%
%TO.N,RESET_SHT31*%
X128305000Y-84092500D03*
%TO.P,U4,7,R*%
%TO.N,GND*%
X127805000Y-84092500D03*
%TO.P,U4,8,VSS*%
X127305000Y-84092500D03*
D58*
%TO.P,U4,9,VSS*%
X128055000Y-85267500D03*
%TD*%
D10*
%TO.P,SW4,1,1*%
%TO.N,GND*%
X111300000Y-85927500D03*
D11*
%TO.P,SW4,2,2*%
%TO.N,BUTT_1*%
X113840000Y-85927500D03*
%TD*%
D49*
%TO.P,R17,1*%
%TO.N,BOOT0*%
X110850000Y-105697500D03*
%TO.P,R17,2*%
%TO.N,GND*%
X110850000Y-106717500D03*
%TD*%
D59*
%TO.P,Q5,1,S1*%
%TO.N,GND*%
X118980000Y-107855000D03*
%TO.P,Q5,2,G1*%
%TO.N,Net-(Q5-Pad2)*%
X119630000Y-107855000D03*
%TO.P,Q5,3,D2*%
%TO.N,Net-(Q5-Pad3)*%
X120280000Y-107855000D03*
%TO.P,Q5,4,S2*%
%TO.N,Net-(Q5-Pad4)*%
X120280000Y-105955000D03*
%TO.P,Q5,5,G2*%
%TO.N,Net-(Q5-Pad5)*%
X119630000Y-105955000D03*
%TO.P,Q5,6,D1*%
%TO.N,Net-(Q5-Pad3)*%
X118980000Y-105955000D03*
%TD*%
D20*
%TO.P,R14,1*%
%TO.N,Net-(D6-Pad2)*%
X131380000Y-88055000D03*
%TO.P,R14,2*%
%TO.N,GND*%
X131380000Y-86405000D03*
%TD*%
D54*
%TO.P,U7,1,VOS_1*%
%TO.N,unconnected-(U7-Pad1)*%
X89250000Y-92757500D03*
D55*
%TO.P,U7,2,-*%
%TO.N,Net-(R23-Pad2)*%
X91790000Y-92757500D03*
%TO.P,U7,3,+*%
%TO.N,Net-(R24-Pad2)*%
X94330000Y-92757500D03*
%TO.P,U7,4,V-*%
%TO.N,GND*%
X96870000Y-92757500D03*
%TO.P,U7,5,NC*%
%TO.N,unconnected-(U7-Pad5)*%
X96870000Y-85137500D03*
%TO.P,U7,6,OUT*%
%TO.N,OPAMP_ADC*%
X94330000Y-85137500D03*
%TO.P,U7,7,V+*%
%TO.N,+5V*%
X91790000Y-85137500D03*
%TO.P,U7,8,VOS_8*%
%TO.N,unconnected-(U7-Pad8)*%
X89250000Y-85137500D03*
%TD*%
D21*
%TO.P,C30,1*%
%TO.N,GND*%
X105890000Y-89807500D03*
%TO.P,C30,2*%
%TO.N,BUTT_2*%
X106850000Y-89807500D03*
%TD*%
D24*
%TO.P,C29,1*%
%TO.N,BUTT_1*%
X113080000Y-89807500D03*
%TO.P,C29,2*%
%TO.N,GND*%
X112120000Y-89807500D03*
%TD*%
D60*
%TO.P,F1,1*%
%TO.N,Net-(F1-Pad1)*%
X104180000Y-113635000D03*
%TO.P,F1,2*%
%TO.N,VBUS*%
X104180000Y-112060000D03*
%TD*%
D61*
%TO.P,SW1,1,A*%
%TO.N,SW_ON*%
X81750000Y-119647640D03*
%TO.P,SW1,2,B*%
%TO.N,SW_EN*%
X83750000Y-119647640D03*
%TO.P,SW1,3,C*%
%TO.N,GND*%
X85750000Y-119647640D03*
D62*
%TO.P,SW1,4*%
%TO.N,N/C*%
X79650000Y-119647640D03*
%TO.P,SW1,5*%
X87850000Y-119647640D03*
%TD*%
D21*
%TO.P,C14,1*%
%TO.N,+3V0*%
X112920000Y-95120000D03*
%TO.P,C14,2*%
%TO.N,GND*%
X113880000Y-95120000D03*
%TD*%
D63*
%TO.P,L3,1*%
%TO.N,BLE_RF*%
X113885000Y-97300000D03*
%TO.P,L3,2*%
%TO.N,Net-(C25-Pad1)*%
X114855000Y-97300000D03*
%TD*%
D21*
%TO.P,C15,1*%
%TO.N,+3V0*%
X112920000Y-96220000D03*
%TO.P,C15,2*%
%TO.N,GND*%
X113880000Y-96220000D03*
%TD*%
D31*
%TO.P,D2,1,K*%
%TO.N,Net-(D2-Pad1)*%
X71270000Y-99350000D03*
D32*
%TO.P,D2,2,A*%
%TO.N,WP7_EN*%
X71270000Y-96810000D03*
%TD*%
D43*
%TO.P,U3,1,DO*%
%TO.N,Net-(Q5-Pad2)*%
X119766773Y-111622500D03*
%TO.P,U3,2,VM*%
%TO.N,Net-(R9-Pad1)*%
X119766773Y-110672500D03*
%TO.P,U3,3,CO*%
%TO.N,Net-(Q5-Pad5)*%
X119766773Y-109722500D03*
%TO.P,U3,4,NC*%
%TO.N,unconnected-(U3-Pad4)*%
X117491773Y-109722500D03*
%TO.P,U3,5,VDD*%
%TO.N,Net-(C5-Pad1)*%
X117491773Y-110672500D03*
%TO.P,U3,6,VSS*%
%TO.N,GND*%
X117491773Y-111622500D03*
%TD*%
D22*
%TO.P,TP3,1,1*%
%TO.N,SW_ON*%
X87670000Y-116200000D03*
%TD*%
D64*
%TO.P,AE1,*%
%TO.N,*%
X123075000Y-97300000D03*
D65*
X123625000Y-96050000D03*
D66*
%TO.P,AE1,1,A*%
%TO.N,Net-(AE1-Pad1)*%
X125425000Y-103700000D03*
D67*
X127225000Y-99250000D03*
D66*
X124225000Y-94800000D03*
D67*
X124825000Y-99250000D03*
X126025000Y-99250000D03*
D68*
X128425000Y-100600000D03*
D66*
X127825000Y-103700000D03*
X126625000Y-94800000D03*
%TD*%
D21*
%TO.P,C16,1*%
%TO.N,+3.3VA*%
X108620000Y-105487500D03*
%TO.P,C16,2*%
%TO.N,GND*%
X109580000Y-105487500D03*
%TD*%
D31*
%TO.P,Q4,1,C*%
%TO.N,+5V*%
X83670000Y-96414500D03*
D32*
%TO.P,Q4,2,E*%
%TO.N,Net-(Q4-Pad2)*%
X83670000Y-98827500D03*
%TD*%
D23*
%TO.P,R20,1*%
%TO.N,Net-(C26-Pad1)*%
X98550000Y-100270000D03*
%TO.P,R20,2*%
%TO.N,Net-(C27-Pad1)*%
X98550000Y-98445000D03*
%TD*%
D10*
%TO.P,SW5,1,1*%
%TO.N,GND*%
X105000000Y-85927500D03*
D11*
%TO.P,SW5,2,2*%
%TO.N,BUTT_2*%
X107540000Y-85927500D03*
%TD*%
D69*
%TO.P,L2,1*%
%TO.N,+3V0*%
X108620000Y-107532500D03*
%TO.P,L2,2*%
%TO.N,+3.3VA*%
X108620000Y-106562500D03*
%TD*%
D70*
%TO.P,IC2,1,VBAT*%
%TO.N,+3V0*%
X104850000Y-102007500D03*
%TO.P,IC2,2,PC14-OSC32_IN*%
%TO.N,LSE_IN*%
X105350000Y-102007500D03*
%TO.P,IC2,3,PC15-OSC32_OUT*%
%TO.N,LSE_OUT*%
X105850000Y-102007500D03*
%TO.P,IC2,4,PH3-BOOT0*%
%TO.N,BOOT0*%
X106350000Y-102007500D03*
%TO.P,IC2,5,PB8*%
%TO.N,unconnected-(IC2-Pad5)*%
X106850000Y-102007500D03*
%TO.P,IC2,6,PB9*%
%TO.N,unconnected-(IC2-Pad6)*%
X107350000Y-102007500D03*
%TO.P,IC2,7,NRST*%
%TO.N,NRST*%
X107850000Y-102007500D03*
%TO.P,IC2,8,VDDA*%
%TO.N,+3.3VA*%
X108350000Y-102007500D03*
%TO.P,IC2,9,PA0*%
%TO.N,Feedback_VREF*%
X108850000Y-102007500D03*
%TO.P,IC2,10,PA1*%
%TO.N,BATT_ADC*%
X109350000Y-102007500D03*
%TO.P,IC2,11,PA2*%
%TO.N,RGB_RED*%
X109850000Y-102007500D03*
%TO.P,IC2,12,PA3*%
%TO.N,RGB_BLUE*%
X110350000Y-102007500D03*
D71*
%TO.P,IC2,13,PA4*%
%TO.N,RGB_GREEN*%
X111050000Y-101307500D03*
%TO.P,IC2,14,PA5*%
%TO.N,RESET_SHT31*%
X111050000Y-100807500D03*
%TO.P,IC2,15,PA6*%
%TO.N,MT3608_EN*%
X111050000Y-100307500D03*
%TO.P,IC2,16,PA7*%
%TO.N,OPAMP_ADC*%
X111050000Y-99807500D03*
%TO.P,IC2,17,PA8*%
%TO.N,unconnected-(IC2-Pad17)*%
X111050000Y-99307500D03*
%TO.P,IC2,18,PA9*%
%TO.N,BAT_STAT*%
X111050000Y-98807500D03*
%TO.P,IC2,19,PB2*%
%TO.N,unconnected-(IC2-Pad19)*%
X111050000Y-98307500D03*
%TO.P,IC2,20,VDD_1*%
%TO.N,+3V0*%
X111050000Y-97807500D03*
%TO.P,IC2,21,RF1*%
%TO.N,BLE_RF*%
X111050000Y-97307500D03*
%TO.P,IC2,22,VSSRF*%
%TO.N,GND*%
X111050000Y-96807500D03*
%TO.P,IC2,23,VDDRF*%
%TO.N,+3V0*%
X111050000Y-96307500D03*
%TO.P,IC2,24,OSC_OUT*%
%TO.N,HSE_OUT*%
X111050000Y-95807500D03*
D70*
%TO.P,IC2,25,OSC_IN*%
%TO.N,HSE_IN*%
X110350000Y-95107500D03*
%TO.P,IC2,26,AT0*%
%TO.N,unconnected-(IC2-Pad26)*%
X109850000Y-95107500D03*
%TO.P,IC2,27,AT1*%
%TO.N,unconnected-(IC2-Pad27)*%
X109350000Y-95107500D03*
%TO.P,IC2,28,PB0*%
%TO.N,BUTT_BT*%
X108850000Y-95107500D03*
%TO.P,IC2,29,PB1*%
%TO.N,BUTT_1*%
X108350000Y-95107500D03*
%TO.P,IC2,30,PE4*%
%TO.N,BUTT_2*%
X107850000Y-95107500D03*
%TO.P,IC2,31,VFBSMPS*%
%TO.N,+3V0*%
X107350000Y-95107500D03*
%TO.P,IC2,32,VSSSMPS*%
%TO.N,GND*%
X106850000Y-95107500D03*
%TO.P,IC2,33,VLXSMPS*%
%TO.N,+3V0*%
X106350000Y-95107500D03*
%TO.P,IC2,34,VDDSMPS*%
X105850000Y-95107500D03*
%TO.P,IC2,35,VDD_2*%
X105350000Y-95107500D03*
%TO.P,IC2,36,PA10*%
%TO.N,WP7_EN*%
X104850000Y-95107500D03*
D71*
%TO.P,IC2,37,PA11*%
%TO.N,USB_D-*%
X104150000Y-95807500D03*
%TO.P,IC2,38,PA12*%
%TO.N,USB_D+*%
X104150000Y-96307500D03*
%TO.P,IC2,39,PA13*%
%TO.N,SWDIO*%
X104150000Y-96807500D03*
%TO.P,IC2,40,VDDUSB*%
%TO.N,+3V0*%
X104150000Y-97307500D03*
%TO.P,IC2,41,PA14*%
%TO.N,SWCLK*%
X104150000Y-97807500D03*
%TO.P,IC2,42,PA15*%
%TO.N,PWM_VREF*%
X104150000Y-98307500D03*
%TO.P,IC2,43,PB3*%
%TO.N,PWM_LEDS*%
X104150000Y-98807500D03*
%TO.P,IC2,44,PB4*%
%TO.N,4273_EN*%
X104150000Y-99307500D03*
%TO.P,IC2,45,PB5*%
%TO.N,4261_EN*%
X104150000Y-99807500D03*
%TO.P,IC2,46,PB6*%
%TO.N,I2C1_SCL*%
X104150000Y-100307500D03*
%TO.P,IC2,47,PB7*%
%TO.N,I2C1_SDA*%
X104150000Y-100807500D03*
%TO.P,IC2,48,VDD_3*%
%TO.N,+3V0*%
X104150000Y-101307500D03*
D72*
%TO.P,IC2,49,EP*%
%TO.N,GND*%
X107600000Y-98557500D03*
%TD*%
D73*
%TO.P,D1,1,K*%
%TO.N,+5V*%
X84300000Y-102220000D03*
%TO.P,D1,2,A*%
%TO.N,Net-(D1-Pad2)*%
X84300000Y-109020000D03*
%TD*%
D74*
%TO.N,SW_ON*%
X110800000Y-116500000D03*
X90600000Y-118757500D03*
D75*
%TO.N,GND*%
X125620000Y-90810000D03*
X86325000Y-78950000D03*
X82250000Y-82650000D03*
X97310000Y-87040000D03*
X132800000Y-93300000D03*
X121700000Y-112400000D03*
X124650000Y-113300000D03*
X103070000Y-111420000D03*
X99000000Y-91610000D03*
X104590000Y-89200000D03*
X119490000Y-81800000D03*
X121000000Y-79510000D03*
X86450000Y-86775000D03*
X78280000Y-95110000D03*
X96375000Y-96150000D03*
X121700000Y-100700000D03*
X92650000Y-114350000D03*
X121700000Y-111450000D03*
X75050000Y-120040000D03*
X122575000Y-93300000D03*
X109990000Y-104950000D03*
X118140000Y-80420000D03*
D76*
X88250000Y-111370000D03*
D75*
X129225000Y-93300000D03*
X68020000Y-96430000D03*
X102830000Y-103300000D03*
X132000000Y-115125000D03*
D77*
X105020000Y-111090000D03*
D75*
X89325000Y-87375000D03*
X129570000Y-92360000D03*
X124520000Y-89440000D03*
X88360000Y-114980000D03*
X113780000Y-105860000D03*
X122420000Y-114500000D03*
X99350000Y-120490000D03*
X117775000Y-98175000D03*
X114080000Y-81920000D03*
X126525000Y-113300000D03*
X88750000Y-78950000D03*
X123450000Y-93300000D03*
X121700000Y-108875000D03*
X102840000Y-120480000D03*
X74770000Y-112010000D03*
X111200000Y-94920000D03*
X117930000Y-95010000D03*
X114400000Y-96220000D03*
X128000000Y-115175000D03*
X93125000Y-97500000D03*
X106375000Y-100875000D03*
X121725000Y-105425000D03*
X118425000Y-88900000D03*
X80140000Y-90570000D03*
X106325000Y-96925000D03*
X119225000Y-77025000D03*
X103520000Y-102460000D03*
D78*
X80150000Y-92125000D03*
D75*
X108775000Y-99800000D03*
X108750000Y-97825000D03*
X88600084Y-80584059D03*
X127650000Y-93300000D03*
X112410000Y-82150000D03*
X124600000Y-114440000D03*
X124250000Y-93300000D03*
X120210000Y-115930000D03*
X123300000Y-90560000D03*
X105313589Y-91638589D03*
X124280000Y-118380000D03*
X112220000Y-83550000D03*
X97210000Y-89020000D03*
X131875000Y-113275000D03*
X82390000Y-89140000D03*
X83510000Y-104390000D03*
X119340000Y-103240000D03*
X105300000Y-98775000D03*
X132725000Y-86825000D03*
X121750000Y-93350000D03*
X109975000Y-100875000D03*
X121700000Y-99750000D03*
X121675000Y-101650000D03*
X90110000Y-120360000D03*
X91500000Y-89830000D03*
X128450000Y-93300000D03*
X125240000Y-117080000D03*
X117261417Y-76073976D03*
X105300000Y-99850000D03*
X123890000Y-120650000D03*
X92790000Y-103480000D03*
X121725000Y-96475000D03*
D76*
X119020000Y-113300000D03*
D75*
X131975000Y-93300000D03*
X121725000Y-94950000D03*
X114400000Y-95120000D03*
X74770000Y-109680000D03*
X86080000Y-76100000D03*
X115190000Y-98260000D03*
D76*
X114960000Y-107930000D03*
D75*
X120850000Y-96540000D03*
X117860000Y-100090000D03*
X119920000Y-96540000D03*
X106350000Y-97825000D03*
X121700000Y-103475000D03*
X121700000Y-94125000D03*
X121700000Y-109750000D03*
X92770000Y-80370000D03*
X99125000Y-111075000D03*
X132800000Y-91350000D03*
X94230000Y-120320000D03*
X124830000Y-78370000D03*
X104925000Y-107725000D03*
X109580000Y-106130000D03*
X76590000Y-76140000D03*
X114900000Y-88980000D03*
X132750000Y-85975000D03*
X121675000Y-102550000D03*
X75950000Y-117760000D03*
X125960000Y-116100000D03*
X85950000Y-80600000D03*
X130225000Y-115175000D03*
X131175000Y-115150000D03*
X92010000Y-116410000D03*
X91900000Y-99200000D03*
X92600000Y-100580000D03*
X123780000Y-76790000D03*
X121700000Y-108025000D03*
X110840000Y-107630000D03*
X72050000Y-83510000D03*
X121700000Y-98950000D03*
X120200000Y-99770000D03*
X107525000Y-99825000D03*
X120360000Y-101910000D03*
X121700000Y-110600000D03*
X74230000Y-81020000D03*
X126740000Y-92350000D03*
X109330000Y-86830000D03*
X78300000Y-78210000D03*
X88800000Y-76270000D03*
X116880000Y-92310000D03*
X120741928Y-82229369D03*
X124030000Y-80800000D03*
D79*
X118980000Y-108355000D03*
D75*
X128620000Y-85490000D03*
X121680000Y-76600000D03*
X99700000Y-97020000D03*
X113450000Y-98350000D03*
X91110000Y-105860000D03*
X122600000Y-78050000D03*
X125980000Y-79360000D03*
X129980000Y-85700000D03*
X95040000Y-113490000D03*
X132775000Y-89475000D03*
X93750000Y-100775000D03*
X127505000Y-85065000D03*
X70290000Y-87160000D03*
X82310000Y-76520000D03*
X78600000Y-105875000D03*
X132750000Y-88500000D03*
X87390000Y-99580000D03*
X131880000Y-84180000D03*
X131703551Y-82416110D03*
X123410000Y-83310000D03*
X74770000Y-110870000D03*
X125470000Y-85480000D03*
X132775000Y-90400000D03*
X97560000Y-111250000D03*
X125925000Y-93300000D03*
X125490000Y-120270000D03*
X108750000Y-98800000D03*
X95040000Y-111500000D03*
X125100000Y-93300000D03*
X99175000Y-93250000D03*
X107450000Y-96925000D03*
X132800000Y-114260000D03*
X86010000Y-83030000D03*
X130275000Y-93300000D03*
X91740000Y-79280000D03*
X126940000Y-81000000D03*
X112050000Y-117960000D03*
X86650000Y-103880000D03*
X117760000Y-96350000D03*
X121700000Y-113250000D03*
X84790000Y-91660000D03*
X68080000Y-100270000D03*
X126775000Y-93325000D03*
X132820000Y-115120000D03*
X131125000Y-93300000D03*
X107550000Y-100875000D03*
X113270000Y-92630000D03*
X124390000Y-115820000D03*
X101150000Y-120480000D03*
X105900000Y-88950000D03*
X132800000Y-92375000D03*
X86530000Y-111360000D03*
X105925000Y-107725000D03*
X91860000Y-82560000D03*
X87025000Y-81350000D03*
X123147924Y-79613819D03*
X128350000Y-113300000D03*
X121700000Y-104475000D03*
X79550000Y-83270000D03*
X127400000Y-113275000D03*
X94750000Y-97800000D03*
X113875000Y-116125000D03*
D78*
X86650000Y-92250000D03*
D75*
X77160000Y-120510000D03*
X115050000Y-92060000D03*
X79730000Y-76180000D03*
X125440000Y-76390000D03*
X99050000Y-85400000D03*
X120900000Y-97975000D03*
X68170000Y-107390000D03*
X110650000Y-112375000D03*
X90508785Y-78300753D03*
X76520000Y-80170000D03*
X116940000Y-88540000D03*
X105300000Y-100875000D03*
X120150000Y-78340000D03*
X104860000Y-83120000D03*
X84250000Y-80100000D03*
X105300000Y-97825000D03*
X108800000Y-96925000D03*
X84170000Y-115970000D03*
X106350000Y-99825000D03*
X94100000Y-87725000D03*
X121700000Y-98050000D03*
X81420000Y-79720000D03*
X123700000Y-113300000D03*
X91590000Y-97630000D03*
X122625000Y-113300000D03*
X91660000Y-102420000D03*
X93380000Y-99000000D03*
X108750000Y-100875000D03*
X121700000Y-107200000D03*
X79270000Y-96320000D03*
X130184992Y-81875500D03*
X68500000Y-83820000D03*
X82740000Y-105860000D03*
X114550000Y-100725000D03*
X132725000Y-87675000D03*
D76*
X81375000Y-104500000D03*
D75*
X129780000Y-87570000D03*
X106350000Y-98775000D03*
X130075000Y-113275000D03*
X80940000Y-84640000D03*
X73570000Y-110530000D03*
X126875000Y-115150000D03*
X105325000Y-96750000D03*
X107000000Y-91725000D03*
X116400000Y-112075000D03*
X106410000Y-83360000D03*
X68240000Y-113830000D03*
X87600000Y-113100000D03*
X114270000Y-83600000D03*
X92260000Y-120290000D03*
X120310000Y-94080000D03*
X95410000Y-91210000D03*
X121960000Y-85480000D03*
X132775000Y-113300000D03*
X81780000Y-111880000D03*
X109300000Y-83250000D03*
X107885877Y-82702232D03*
X131000000Y-113300000D03*
X90710000Y-80560000D03*
X125650000Y-113300000D03*
X89310000Y-94960000D03*
X88814144Y-82278701D03*
X129150000Y-115200000D03*
X73670000Y-112750000D03*
X121700000Y-106325000D03*
X129175000Y-113300000D03*
D76*
X111660000Y-111660000D03*
D75*
X115150000Y-93590000D03*
X120125000Y-97975000D03*
X122360000Y-86980000D03*
X85410000Y-105700000D03*
X131390000Y-85690000D03*
X107500000Y-98775000D03*
X91270000Y-114860000D03*
X94270000Y-104530000D03*
X112125000Y-88900000D03*
X69510000Y-82240000D03*
X121725000Y-95700000D03*
X88420000Y-96040000D03*
X91950000Y-76150000D03*
X107500000Y-97825000D03*
X109430000Y-89020000D03*
X131760000Y-92420000D03*
D77*
%TO.N,+3V0*%
X103600000Y-93470000D03*
D79*
X98290000Y-83510000D03*
D77*
X115220000Y-99730000D03*
D80*
X112250000Y-96170000D03*
D77*
X106186044Y-93488555D03*
X101720000Y-102050000D03*
X91260000Y-111720000D03*
X128920000Y-82040000D03*
X98450000Y-108407500D03*
X82760000Y-114140000D03*
X102330000Y-104380000D03*
X102100000Y-97120000D03*
D80*
%TO.N,NRST*%
X107400000Y-103190000D03*
D75*
X109575000Y-107450000D03*
D77*
%TO.N,SW_EN*%
X93750000Y-114807500D03*
D75*
%TO.N,BOOT0*%
X110850000Y-104657500D03*
D80*
X106513341Y-102895814D03*
D79*
%TO.N,RESET_SHT31*%
X112000000Y-101770293D03*
X126150000Y-83130000D03*
D75*
%TO.N,MT3608_EN*%
X77850000Y-113480000D03*
X113214046Y-102371868D03*
%TO.N,OPAMP_ADC*%
X112651089Y-100372905D03*
%TO.N,WP7_EN*%
X104075000Y-94650000D03*
D79*
%TO.N,4273_EN*%
X101330000Y-99870000D03*
D75*
X99350000Y-104675000D03*
X80750000Y-106957500D03*
%TO.N,4261_EN*%
X93250000Y-107557500D03*
X100800000Y-105000000D03*
D79*
X102100000Y-99907500D03*
D75*
%TO.N,RGB_RED*%
X125890000Y-89860000D03*
D79*
X116660000Y-103620000D03*
D75*
%TO.N,RGB_GREEN*%
X128780000Y-88590000D03*
X115350000Y-102670000D03*
D79*
%TO.N,USB_D-*%
X98734834Y-95792334D03*
X99650000Y-106507500D03*
%TO.N,USB_D+*%
X101450000Y-106457500D03*
X99267669Y-96341834D03*
D75*
%TO.N,SWDIO*%
X102850000Y-94907500D03*
D79*
X103096448Y-96783490D03*
%TO.N,I2C1_SCL*%
X100450000Y-100107500D03*
%TO.N,I2C1_SDA*%
X100250000Y-100807500D03*
%TO.N,Net-(Q1-Pad3)*%
X73130000Y-95770000D03*
D77*
%TO.N,Net-(Q4-Pad2)*%
X82700000Y-91357500D03*
D75*
%TO.N,RGB_BLUE*%
X121980000Y-91710000D03*
D79*
X115990000Y-103180000D03*
D75*
%TO.N,Feedback_VREF*%
X108900000Y-103410000D03*
D77*
%TO.N,Net-(R23-Pad2)*%
X97850000Y-90107500D03*
D79*
%TO.N,BAT_STAT*%
X114420000Y-118460000D03*
X113886721Y-102640962D03*
%TO.N,PWM_LEDS*%
X80370000Y-99770000D03*
X101050000Y-99160000D03*
%TD*%
D81*
%TO.N,SW_ON*%
X87667500Y-116907500D02*
X87667500Y-116202500D01*
X89900000Y-113532500D02*
X89800000Y-113432500D01*
X83150000Y-116907500D02*
X87667500Y-116907500D01*
X91650000Y-113207500D02*
X91350000Y-113507500D01*
X89900000Y-116907500D02*
X89900000Y-113532500D01*
D82*
X110340000Y-116500000D02*
X110800000Y-116500000D01*
D81*
X89875000Y-113507500D02*
X89800000Y-113432500D01*
X81750000Y-118307500D02*
X83150000Y-116907500D01*
X91350000Y-113507500D02*
X89875000Y-113507500D01*
X89900000Y-118057500D02*
X89900000Y-116907500D01*
D82*
X109794637Y-115954637D02*
X110340000Y-116500000D01*
D81*
X87667500Y-116202500D02*
X87670000Y-116200000D01*
X87667500Y-116907500D02*
X89900000Y-116907500D01*
D82*
X109794637Y-115115000D02*
X109794637Y-115954637D01*
D83*
X91850000Y-113207500D02*
X91650000Y-113207500D01*
D81*
X81750000Y-119647640D02*
X81750000Y-118307500D01*
X90600000Y-118757500D02*
X89900000Y-118057500D01*
D84*
%TO.N,GND*%
X113880000Y-95120000D02*
X114400000Y-95120000D01*
X109350000Y-96807500D02*
X107600000Y-98557500D01*
X103130000Y-102750000D02*
X103440000Y-103060000D01*
X99125000Y-111075000D02*
X99365773Y-111315773D01*
X105430000Y-107220000D02*
X105430000Y-106857500D01*
X118425000Y-88900000D02*
X118425000Y-89822500D01*
X117760000Y-97750000D02*
X117760000Y-98160000D01*
D85*
X75340000Y-110372500D02*
X75340000Y-111420000D01*
D84*
X112125000Y-88900000D02*
X112125000Y-89802500D01*
X78600000Y-107082500D02*
X78600000Y-105875000D01*
X104300000Y-92527500D02*
X105350000Y-92527500D01*
D86*
X88875000Y-110250000D02*
X89107500Y-110482500D01*
D84*
X79280000Y-97000000D02*
X79280000Y-96330000D01*
D85*
X75940000Y-109772500D02*
X75340000Y-110372500D01*
D84*
X102770000Y-108970000D02*
X103070000Y-109270000D01*
X127805000Y-86542500D02*
X127805000Y-85617500D01*
D87*
X118362500Y-113297500D02*
X118997500Y-113297500D01*
D84*
X103440000Y-103060000D02*
X103440000Y-102540000D01*
X112840000Y-98260000D02*
X113360000Y-98260000D01*
X111200000Y-94920000D02*
X111200000Y-94580000D01*
X106470000Y-107280000D02*
X106470000Y-106857500D01*
X103200000Y-103300000D02*
X103440000Y-103060000D01*
X109580000Y-105487500D02*
X109580000Y-106130000D01*
D85*
X75867500Y-109700000D02*
X75940000Y-109772500D01*
D84*
X118425000Y-89822500D02*
X118420000Y-89827500D01*
X131380000Y-85700000D02*
X131390000Y-85690000D01*
X102665773Y-112347500D02*
X102665773Y-111824227D01*
X104925000Y-107725000D02*
X105430000Y-107220000D01*
X111350000Y-94430000D02*
X111350000Y-93982500D01*
X113360000Y-98260000D02*
X113450000Y-98350000D01*
X80837500Y-93457500D02*
X80757500Y-93457500D01*
X86412500Y-92662500D02*
X86650000Y-92425000D01*
X109580000Y-104850000D02*
X109680000Y-104950000D01*
X105925000Y-107725000D02*
X106025000Y-107725000D01*
D87*
X119830000Y-113300000D02*
X120450000Y-113920000D01*
D84*
X111525000Y-118145000D02*
X111710000Y-117960000D01*
X118980000Y-107855000D02*
X118980000Y-108355000D01*
X105890000Y-89807500D02*
X105890000Y-88960000D01*
X111525000Y-119100000D02*
X111525000Y-118145000D01*
D86*
X88875000Y-108407500D02*
X88875000Y-110250000D01*
D84*
X103070000Y-103060000D02*
X102830000Y-103300000D01*
X103070000Y-102990000D02*
X103070000Y-103060000D01*
D85*
X75925000Y-109787500D02*
X75940000Y-109772500D01*
D87*
X79200000Y-104495000D02*
X81370000Y-104495000D01*
D84*
X102830000Y-102750000D02*
X103070000Y-102990000D01*
D85*
X74810000Y-109700000D02*
X74810000Y-112080000D01*
D84*
X105159273Y-116487500D02*
X105159273Y-116159273D01*
X80150000Y-92850000D02*
X80150000Y-92125000D01*
X78280000Y-95110000D02*
X78110000Y-95110000D01*
X103440000Y-102540000D02*
X103520000Y-102460000D01*
X74230000Y-81997500D02*
X74230000Y-81020000D01*
X109680000Y-104950000D02*
X109990000Y-104950000D01*
X113880000Y-96220000D02*
X114400000Y-96220000D01*
X99787500Y-97107500D02*
X99700000Y-97020000D01*
D87*
X113800000Y-105080000D02*
X113800000Y-106500000D01*
D84*
X106850000Y-95107500D02*
X106850000Y-97807500D01*
D86*
X112144637Y-110337864D02*
X112144637Y-111175363D01*
D84*
X96519273Y-116487500D02*
X96519273Y-116030727D01*
X92650000Y-114100000D02*
X92800000Y-113950000D01*
X111710000Y-117960000D02*
X112050000Y-117960000D01*
D87*
X119017500Y-113297500D02*
X119020000Y-113300000D01*
D84*
X116852500Y-111622500D02*
X117491773Y-111622500D01*
X114475000Y-100725000D02*
X114550000Y-100725000D01*
X109160000Y-112350000D02*
X110625000Y-112350000D01*
X78110000Y-95110000D02*
X77690000Y-94690000D01*
X101065773Y-109324227D02*
X101420000Y-108970000D01*
X106025000Y-107725000D02*
X106470000Y-107280000D01*
X101065773Y-110095000D02*
X101065773Y-109324227D01*
X103440000Y-103060000D02*
X103070000Y-103060000D01*
X110840000Y-106727500D02*
X110850000Y-106717500D01*
D87*
X81370000Y-104495000D02*
X81375000Y-104500000D01*
D84*
X115190000Y-98260000D02*
X115910000Y-98260000D01*
X79280000Y-96330000D02*
X79270000Y-96320000D01*
X99365773Y-111315773D02*
X99365773Y-112347500D01*
X101420000Y-108970000D02*
X102770000Y-108970000D01*
X127805000Y-85117500D02*
X128055000Y-85367500D01*
D85*
X75565000Y-112080000D02*
X75925000Y-111720000D01*
D84*
X96375000Y-96150000D02*
X96375000Y-94970000D01*
X102830000Y-102750000D02*
X103130000Y-102750000D01*
X109160000Y-112350000D02*
X109160000Y-110735000D01*
X113920000Y-100170000D02*
X114475000Y-100725000D01*
D87*
X118362500Y-113297500D02*
X119017500Y-113297500D01*
D86*
X96519273Y-116030727D02*
X96977500Y-115572500D01*
D84*
X116400000Y-112075000D02*
X116852500Y-111622500D01*
D86*
X104572500Y-115572500D02*
X104089273Y-115572500D01*
D84*
X92800000Y-113950000D02*
X92800000Y-113207500D01*
X94622500Y-100775000D02*
X94625000Y-100777500D01*
D86*
X89107500Y-110482500D02*
X89800000Y-110482500D01*
D84*
X110840000Y-107630000D02*
X110840000Y-106727500D01*
X127305000Y-84192500D02*
X127305000Y-84617500D01*
X107000000Y-92340000D02*
X107000000Y-91725000D01*
X127305000Y-84617500D02*
X128055000Y-85367500D01*
X111050000Y-96807500D02*
X109350000Y-96807500D01*
D85*
X75925000Y-111720000D02*
X75925000Y-109787500D01*
D84*
X80757500Y-93457500D02*
X80150000Y-92850000D01*
D87*
X117329273Y-113297500D02*
X118362500Y-113297500D01*
D84*
X111200000Y-94580000D02*
X111350000Y-94430000D01*
D86*
X112144637Y-111175363D02*
X111660000Y-111660000D01*
D84*
X109580000Y-104407500D02*
X109580000Y-104850000D01*
X109160000Y-110735000D02*
X108455000Y-110030000D01*
X86412500Y-93457500D02*
X86412500Y-92662500D01*
X117760000Y-96350000D02*
X117760000Y-96850000D01*
X93750000Y-100775000D02*
X94622500Y-100775000D01*
X127805000Y-84192500D02*
X127805000Y-85117500D01*
X103230000Y-102750000D02*
X103520000Y-102460000D01*
X117760000Y-98160000D02*
X117775000Y-98175000D01*
X106850000Y-97807500D02*
X107600000Y-98557500D01*
X113267500Y-92632500D02*
X113270000Y-92630000D01*
D87*
X119020000Y-113300000D02*
X119830000Y-113300000D01*
D84*
X102830000Y-103300000D02*
X102830000Y-102750000D01*
X96375000Y-94970000D02*
X96362500Y-94957500D01*
D86*
X96977500Y-115572500D02*
X97589273Y-115572500D01*
D85*
X74810000Y-112080000D02*
X75565000Y-112080000D01*
D88*
X105962500Y-111090000D02*
X106450000Y-111577500D01*
D84*
X92650000Y-114350000D02*
X92650000Y-114100000D01*
D85*
X74810000Y-109700000D02*
X75867500Y-109700000D01*
D87*
X113945000Y-106645000D02*
X114960000Y-106645000D01*
X113800000Y-106500000D02*
X113945000Y-106645000D01*
D84*
X102830000Y-103300000D02*
X103200000Y-103300000D01*
X102830000Y-102750000D02*
X103230000Y-102750000D01*
D86*
X89137500Y-110482500D02*
X88250000Y-111370000D01*
D84*
X107150000Y-92490000D02*
X107000000Y-92340000D01*
X108455000Y-110030000D02*
X106950000Y-110030000D01*
X112125000Y-89802500D02*
X112120000Y-89807500D01*
D86*
X105159273Y-116159273D02*
X104572500Y-115572500D01*
D84*
X131380000Y-86405000D02*
X131380000Y-85700000D01*
D87*
X114960000Y-107930000D02*
X114960000Y-106645000D01*
D84*
X112350000Y-92632500D02*
X113267500Y-92632500D01*
X103070000Y-109270000D02*
X103070000Y-111420000D01*
D88*
X105020000Y-111090000D02*
X105962500Y-111090000D01*
D84*
X105350000Y-91675000D02*
X105313589Y-91638589D01*
X115069273Y-116125000D02*
X115076773Y-116117500D01*
X100470000Y-97107500D02*
X99787500Y-97107500D01*
D86*
X89800000Y-110482500D02*
X89137500Y-110482500D01*
D84*
X102665773Y-111824227D02*
X103070000Y-111420000D01*
X113875000Y-116125000D02*
X115069273Y-116125000D01*
X86650000Y-92425000D02*
X86650000Y-92250000D01*
X129980000Y-85700000D02*
X129980000Y-85070000D01*
X110625000Y-112350000D02*
X110650000Y-112375000D01*
X105350000Y-92527500D02*
X105350000Y-91675000D01*
X128077500Y-85290000D02*
X128055000Y-85267500D01*
X127805000Y-85617500D02*
X128055000Y-85367500D01*
X105890000Y-88960000D02*
X105900000Y-88950000D01*
X94750000Y-97800000D02*
X94750000Y-98577500D01*
%TO.N,+3V0*%
X94110000Y-82570000D02*
X94110000Y-83030000D01*
D86*
X80800000Y-114020000D02*
X80270000Y-114020000D01*
D88*
X103000000Y-105050000D02*
X102330000Y-104380000D01*
D87*
X103617500Y-93487500D02*
X104300000Y-93487500D01*
D84*
X106650000Y-94070000D02*
X107050000Y-94070000D01*
X105850000Y-95107500D02*
X105850000Y-94370000D01*
X105850000Y-94370000D02*
X106150000Y-94070000D01*
X102830000Y-101790000D02*
X101980000Y-101790000D01*
X96910000Y-83460000D02*
X96960000Y-83510000D01*
D88*
X103000000Y-107875000D02*
X103000000Y-105050000D01*
D84*
X111799511Y-97910000D02*
X111799511Y-98197271D01*
X107150000Y-93970000D02*
X107150000Y-93450000D01*
X111697011Y-97807500D02*
X111799511Y-97910000D01*
X104850000Y-102840000D02*
X104630000Y-103060000D01*
D86*
X91825000Y-109435000D02*
X91860000Y-109470000D01*
X80920000Y-114140000D02*
X80800000Y-114020000D01*
D84*
X107050000Y-94070000D02*
X107150000Y-93970000D01*
X102100000Y-97120000D02*
X102387500Y-97407500D01*
X112550000Y-95120000D02*
X112920000Y-95120000D01*
D86*
X91850000Y-110707500D02*
X91850000Y-111130000D01*
D84*
X94110000Y-83030000D02*
X94590000Y-83510000D01*
D88*
X107709520Y-108290480D02*
X106515103Y-108290480D01*
D84*
X112920000Y-96220000D02*
X112150000Y-96220000D01*
X78875000Y-110575000D02*
X78875000Y-111720000D01*
X107350000Y-94470000D02*
X107150000Y-94270000D01*
X105350000Y-95107500D02*
X105350000Y-93487500D01*
X106350000Y-94370000D02*
X106650000Y-94070000D01*
X106350000Y-95107500D02*
X106350000Y-94370000D01*
D86*
X101720000Y-102050000D02*
X101670000Y-102100000D01*
D89*
X128920000Y-82040000D02*
X129980000Y-83100000D01*
D84*
X102387500Y-97407500D02*
X103350000Y-97407500D01*
X104400000Y-103210000D02*
X103230000Y-104380000D01*
X94590000Y-83510000D02*
X96960000Y-83510000D01*
D86*
X80270000Y-114020000D02*
X78875000Y-112625000D01*
D84*
X103100000Y-101307500D02*
X104150000Y-101307500D01*
X107150000Y-94270000D02*
X107150000Y-93970000D01*
X102087500Y-97107500D02*
X101430000Y-97107500D01*
X101980000Y-101790000D02*
X101720000Y-102050000D01*
D89*
X129980000Y-84110000D02*
X128822500Y-84110000D01*
D84*
X96690000Y-83240000D02*
X96910000Y-83460000D01*
X103230000Y-104380000D02*
X102330000Y-104380000D01*
X111050000Y-96307500D02*
X112062500Y-96307500D01*
X78600000Y-110300000D02*
X78875000Y-110575000D01*
X115220000Y-99730000D02*
X114700000Y-99210000D01*
D87*
X104300000Y-93487500D02*
X105350000Y-93487500D01*
D84*
X107350000Y-95107500D02*
X107350000Y-94470000D01*
X78600000Y-109357500D02*
X78600000Y-110300000D01*
D89*
X128822500Y-84110000D02*
X128805000Y-84092500D01*
D84*
X104630000Y-103060000D02*
X104400000Y-103060000D01*
X112300000Y-96070000D02*
X112300000Y-95370000D01*
X112300000Y-95370000D02*
X112550000Y-95120000D01*
X111799511Y-98197271D02*
X112812240Y-99210000D01*
D86*
X91860000Y-109470000D02*
X91850000Y-109480000D01*
D84*
X111050000Y-97807500D02*
X111697011Y-97807500D01*
X104400000Y-103060000D02*
X104400000Y-103210000D01*
D86*
X98450000Y-108407500D02*
X91825000Y-108407500D01*
D84*
X102100000Y-97120000D02*
X102087500Y-97107500D01*
X114700000Y-99210000D02*
X113920000Y-99210000D01*
D88*
X108620000Y-107532500D02*
X108467500Y-107532500D01*
D87*
X107112500Y-93487500D02*
X107150000Y-93450000D01*
D89*
X129980000Y-83100000D02*
X129980000Y-84110000D01*
D84*
X102900000Y-101507500D02*
X103100000Y-101307500D01*
D86*
X91850000Y-109480000D02*
X91850000Y-110707500D01*
X101670000Y-103720000D02*
X102330000Y-104380000D01*
X78875000Y-112625000D02*
X78875000Y-111720000D01*
D84*
X104850000Y-102007500D02*
X104850000Y-102840000D01*
D86*
X91825000Y-108407500D02*
X91825000Y-109435000D01*
D84*
X96960000Y-83510000D02*
X98290000Y-83510000D01*
D87*
X105350000Y-93487500D02*
X105967500Y-93487500D01*
X105967500Y-93487500D02*
X107112500Y-93487500D01*
D84*
X112062500Y-96307500D02*
X112150000Y-96220000D01*
D86*
X101670000Y-102100000D02*
X101670000Y-103720000D01*
D84*
X103350000Y-97407500D02*
X103450000Y-97307500D01*
D86*
X82760000Y-114140000D02*
X80920000Y-114140000D01*
D84*
X112812240Y-99210000D02*
X113920000Y-99210000D01*
X112150000Y-96220000D02*
X112300000Y-96070000D01*
X103450000Y-97307500D02*
X104150000Y-97307500D01*
D86*
X91850000Y-111130000D02*
X91260000Y-111720000D01*
D88*
X103750000Y-108625000D02*
X103000000Y-107875000D01*
D89*
X128835000Y-84122500D02*
X128805000Y-84092500D01*
D84*
X106150000Y-94070000D02*
X106650000Y-94070000D01*
D88*
X108467500Y-107532500D02*
X107709520Y-108290480D01*
X106180583Y-108625000D02*
X103750000Y-108625000D01*
D84*
X102900000Y-101777500D02*
X102900000Y-101507500D01*
D88*
X106515103Y-108290480D02*
X106180583Y-108625000D01*
D86*
X103600000Y-93470000D02*
X103617500Y-93487500D01*
D84*
X96690000Y-82570000D02*
X96690000Y-83240000D01*
D81*
%TO.N,+5V*%
X91402500Y-83560000D02*
X87890000Y-83560000D01*
X91790000Y-85137500D02*
X91790000Y-83947500D01*
X78950000Y-89450000D02*
X78950000Y-93290000D01*
X87890000Y-83560000D02*
X86680000Y-84770000D01*
X81450000Y-98650000D02*
X81450000Y-99370000D01*
X80964500Y-96414500D02*
X80964500Y-98164500D01*
X80964500Y-96414500D02*
X83670000Y-96414500D01*
X83630000Y-84770000D02*
X78950000Y-89450000D01*
X78950000Y-94400000D02*
X80964500Y-96414500D01*
D86*
X78000000Y-93290000D02*
X78950000Y-93290000D01*
D81*
X76985000Y-101545000D02*
X76710000Y-101820000D01*
X79200000Y-101545000D02*
X76985000Y-101545000D01*
D86*
X79200000Y-101545000D02*
X83625000Y-101545000D01*
D81*
X91790000Y-83947500D02*
X91402500Y-83560000D01*
X81450000Y-99370000D02*
X84300000Y-102220000D01*
D86*
X88082500Y-102220000D02*
X88830000Y-102967500D01*
D81*
X76710000Y-101820000D02*
X76710000Y-102297500D01*
X84800000Y-84770000D02*
X83630000Y-84770000D01*
X86680000Y-84770000D02*
X84800000Y-84770000D01*
D86*
X84300000Y-102220000D02*
X88082500Y-102220000D01*
D81*
X78950000Y-93290000D02*
X78950000Y-94400000D01*
X80964500Y-98164500D02*
X81450000Y-98650000D01*
D86*
X83625000Y-101545000D02*
X84300000Y-102220000D01*
D81*
%TO.N,VBUS*%
X105270000Y-112990000D02*
X105682500Y-113402500D01*
X110700000Y-113650000D02*
X108275000Y-113650000D01*
X105682500Y-113402500D02*
X106450000Y-113402500D01*
X94000000Y-116907500D02*
X94699511Y-116207989D01*
X94699511Y-115630489D02*
X96330000Y-114000000D01*
X107894637Y-116375363D02*
X107894637Y-115115000D01*
X94690000Y-116200000D02*
X94690000Y-115622500D01*
X108275000Y-113650000D02*
X107894637Y-114030363D01*
D86*
X112144637Y-114602137D02*
X112710000Y-115167500D01*
D81*
X105762500Y-118507500D02*
X107894637Y-116375363D01*
D86*
X112710000Y-115167500D02*
X112801773Y-115167500D01*
D81*
X107266774Y-113402500D02*
X107894637Y-114030363D01*
X104180000Y-112060000D02*
X104520000Y-112400000D01*
X94607500Y-118507500D02*
X105762500Y-118507500D01*
X112144637Y-113287864D02*
X111062136Y-113287864D01*
D86*
X112144637Y-113287864D02*
X112144637Y-114602137D01*
D81*
X105020000Y-112400000D02*
X105270000Y-112650000D01*
X107894637Y-114030363D02*
X107894637Y-115115000D01*
X105270000Y-112650000D02*
X105270000Y-112990000D01*
X111062136Y-113287864D02*
X110700000Y-113650000D01*
D90*
X96330000Y-114000000D02*
X96330000Y-112200000D01*
D81*
X94000000Y-116907500D02*
X94000000Y-117900000D01*
X94000000Y-117900000D02*
X94607500Y-118507500D01*
X104520000Y-112400000D02*
X105020000Y-112400000D01*
X106450000Y-113402500D02*
X107266774Y-113402500D01*
D84*
%TO.N,+3.3VA*%
X108350000Y-102830000D02*
X108130000Y-103050000D01*
X108130000Y-103917500D02*
X108620000Y-104407500D01*
X108350000Y-102007500D02*
X108350000Y-102830000D01*
X108130000Y-103050000D02*
X108130000Y-103917500D01*
X108620000Y-105487500D02*
X108620000Y-104407500D01*
X108620000Y-106562500D02*
X108620000Y-105487500D01*
%TO.N,NRST*%
X107400000Y-103190000D02*
X107400000Y-103144282D01*
X109575000Y-107450000D02*
X109575000Y-108175000D01*
X108075000Y-108950000D02*
X109160000Y-108950000D01*
X107955000Y-109070000D02*
X108075000Y-108950000D01*
X109160000Y-108590000D02*
X109160000Y-108950000D01*
X107850000Y-102694282D02*
X107850000Y-102007500D01*
X109575000Y-108175000D02*
X109160000Y-108590000D01*
X107400000Y-103144282D02*
X107850000Y-102694282D01*
X106950000Y-109070000D02*
X107955000Y-109070000D01*
%TO.N,HSE_IN*%
X110530000Y-93050000D02*
X110947500Y-92632500D01*
X110947500Y-92632500D02*
X111350000Y-92632500D01*
X110350000Y-94270000D02*
X110530000Y-94090000D01*
X110530000Y-94090000D02*
X110530000Y-93050000D01*
X110350000Y-95107500D02*
X110350000Y-94270000D01*
%TO.N,HSE_OUT*%
X111800000Y-95057500D02*
X112350000Y-94507500D01*
X111800000Y-95707500D02*
X111800000Y-95057500D01*
X111700000Y-95807500D02*
X111800000Y-95707500D01*
X111050000Y-95807500D02*
X111700000Y-95807500D01*
X112350000Y-94507500D02*
X112350000Y-93982500D01*
%TO.N,LSE_IN*%
X105350000Y-103570000D02*
X105350000Y-102007500D01*
X104470000Y-106737500D02*
X104700000Y-106507500D01*
X104700000Y-106507500D02*
X104700000Y-105207500D01*
X104700000Y-105207500D02*
X104700000Y-104220000D01*
X104700000Y-104220000D02*
X105350000Y-103570000D01*
X104470000Y-106857500D02*
X104470000Y-106737500D01*
%TO.N,LSE_OUT*%
X105850000Y-103857500D02*
X105850000Y-102007500D01*
X107430000Y-106537500D02*
X107200000Y-106307500D01*
X107200000Y-106307500D02*
X107200000Y-105207500D01*
X107200000Y-105207500D02*
X105850000Y-103857500D01*
X107430000Y-106857500D02*
X107430000Y-106537500D01*
D91*
%TO.N,BLE_RF*%
X111782500Y-97307500D02*
X112832500Y-97307500D01*
X112832500Y-97307500D02*
X112840000Y-97300000D01*
X111050000Y-97307500D02*
X111782500Y-97307500D01*
X112840000Y-97300000D02*
X113885000Y-97300000D01*
D84*
%TO.N,Net-(C26-Pad1)*%
X98392500Y-101737500D02*
X98550000Y-101895000D01*
X98550000Y-101895000D02*
X98550000Y-100270000D01*
X94625000Y-101737500D02*
X98392500Y-101737500D01*
%TO.N,Net-(C27-Pad1)*%
X97250000Y-99070000D02*
X97875000Y-98445000D01*
X96450000Y-100427500D02*
X97250000Y-99627500D01*
X95560000Y-99537500D02*
X96450000Y-100427500D01*
X94750000Y-99537500D02*
X95560000Y-99537500D01*
X97250000Y-99627500D02*
X97250000Y-99070000D01*
X97875000Y-98445000D02*
X98550000Y-98445000D01*
%TO.N,Net-(D1-Pad2)*%
X79876500Y-108320000D02*
X79550000Y-107993500D01*
X84300000Y-109020000D02*
X82276500Y-109020000D01*
X82276500Y-109020000D02*
X81576500Y-108320000D01*
X85653000Y-114020000D02*
X85653000Y-113996500D01*
D92*
X84300000Y-112643500D02*
X84300000Y-109020000D01*
D84*
X81576500Y-108320000D02*
X79876500Y-108320000D01*
D92*
X85653000Y-113996500D02*
X84300000Y-112643500D01*
D84*
X79550000Y-107993500D02*
X79550000Y-107082500D01*
%TO.N,Net-(D2-Pad1)*%
X71270000Y-99350000D02*
X72490000Y-99350000D01*
X72490000Y-99350000D02*
X73977500Y-97862500D01*
X73977500Y-97862500D02*
X75220000Y-97862500D01*
%TO.N,Net-(D3-Pad1)*%
X70550000Y-101407500D02*
X74362500Y-101407500D01*
X70470000Y-105527500D02*
X69900000Y-104957500D01*
X69900000Y-104957500D02*
X69900000Y-102057500D01*
X69900000Y-102057500D02*
X70550000Y-101407500D01*
X74362500Y-101407500D02*
X74865000Y-100905000D01*
X74865000Y-100905000D02*
X75460000Y-100905000D01*
X71770000Y-105527500D02*
X70470000Y-105527500D01*
%TO.N,Net-(C19-Pad1)*%
X77230000Y-97952500D02*
X79272500Y-97952500D01*
X79272500Y-97952500D02*
X79280000Y-97960000D01*
X77537500Y-97995000D02*
X77580000Y-97952500D01*
X77537500Y-99770000D02*
X77537500Y-97995000D01*
%TO.N,SW_EN*%
X93750000Y-114807500D02*
X93750000Y-113207500D01*
%TO.N,BOOT0*%
X106513341Y-102895814D02*
X106350000Y-102732473D01*
X106350000Y-102732473D02*
X106350000Y-102007500D01*
X110850000Y-105697500D02*
X110850000Y-104657500D01*
%TO.N,PWM_VREF*%
X99650000Y-98859108D02*
X99650000Y-103320000D01*
X99250000Y-103720000D02*
X98550000Y-103720000D01*
X104150000Y-98307500D02*
X100201608Y-98307500D01*
X99650000Y-103320000D02*
X99250000Y-103720000D01*
X100201608Y-98307500D02*
X99650000Y-98859108D01*
D82*
%TO.N,Net-(C5-Pad1)*%
X115239273Y-110669273D02*
X114960000Y-110390000D01*
D88*
X117491773Y-110672500D02*
X116747500Y-110672500D01*
D82*
X114960000Y-110390000D02*
X114960000Y-109595000D01*
D88*
X116747500Y-110672500D02*
X116215000Y-111205000D01*
D82*
X115239273Y-111205000D02*
X115239273Y-110669273D01*
D88*
X116215000Y-111205000D02*
X115239273Y-111205000D01*
D84*
%TO.N,BUTT_BT*%
X119380000Y-88050000D02*
X119860000Y-87570000D01*
X119380000Y-90277500D02*
X118682500Y-90975000D01*
X108850000Y-91657500D02*
X108850000Y-95107500D01*
X118682500Y-90975000D02*
X109532500Y-90975000D01*
X119380000Y-89827500D02*
X119380000Y-90277500D01*
X109532500Y-90975000D02*
X108850000Y-91657500D01*
X119860000Y-87570000D02*
X119860000Y-85950000D01*
X119380000Y-89827500D02*
X119380000Y-88050000D01*
%TO.N,BUTT_1*%
X109000000Y-90507500D02*
X108350000Y-91157500D01*
X113080000Y-89807500D02*
X113080000Y-90377500D01*
X112950000Y-90507500D02*
X109000000Y-90507500D01*
X113840000Y-87917500D02*
X113080000Y-88677500D01*
X113080000Y-88677500D02*
X113080000Y-89807500D01*
X108350000Y-91157500D02*
X108350000Y-95107500D01*
X113080000Y-90377500D02*
X112950000Y-90507500D01*
X113840000Y-85927500D02*
X113840000Y-87917500D01*
%TO.N,BUTT_2*%
X107850000Y-91550000D02*
X107850000Y-95107500D01*
X107540000Y-87367500D02*
X106850000Y-88057500D01*
X106850000Y-88057500D02*
X106850000Y-89807500D01*
X106850000Y-90550000D02*
X107850000Y-91550000D01*
X106850000Y-89807500D02*
X106850000Y-90550000D01*
X107540000Y-85927500D02*
X107540000Y-87367500D01*
D89*
%TO.N,RESET_SHT31*%
X112000000Y-101170000D02*
X112000000Y-101770293D01*
X111050000Y-100807500D02*
X111637500Y-100807500D01*
D84*
X127960000Y-83130000D02*
X128305000Y-83475000D01*
X126150000Y-83130000D02*
X127960000Y-83130000D01*
D89*
X111637500Y-100807500D02*
X112000000Y-101170000D01*
D84*
X128305000Y-83475000D02*
X128305000Y-84092500D01*
%TO.N,MT3608_EN*%
X113214046Y-101783684D02*
X113214046Y-102371868D01*
X111737862Y-100307500D02*
X113214046Y-101783684D01*
X77650000Y-109357500D02*
X77650000Y-113280000D01*
X77650000Y-113280000D02*
X77850000Y-113480000D01*
X111050000Y-100307500D02*
X111737862Y-100307500D01*
%TO.N,OPAMP_ADC*%
X111050000Y-99807500D02*
X112085684Y-99807500D01*
X94330000Y-86637500D02*
X95937500Y-88245000D01*
X112085684Y-99807500D02*
X112651089Y-100372905D01*
X94330000Y-85137500D02*
X94330000Y-86637500D01*
X95937500Y-88245000D02*
X99450000Y-88245000D01*
%TO.N,WP7_EN*%
X104392500Y-94650000D02*
X104075000Y-94650000D01*
X104850000Y-95107500D02*
X104392500Y-94650000D01*
%TO.N,4273_EN*%
X97067500Y-106957500D02*
X99350000Y-104675000D01*
X80750000Y-106957500D02*
X97067500Y-106957500D01*
X101330000Y-99870000D02*
X101330000Y-99865018D01*
X101330000Y-99865018D02*
X101887518Y-99307500D01*
X101887518Y-99307500D02*
X104150000Y-99307500D01*
%TO.N,4261_EN*%
X97762468Y-107557500D02*
X100319968Y-105000000D01*
X100319968Y-105000000D02*
X100800000Y-105000000D01*
X102200000Y-99807500D02*
X102100000Y-99907500D01*
X93250000Y-107557500D02*
X97762468Y-107557500D01*
X104150000Y-99807500D02*
X102200000Y-99807500D01*
%TO.N,RGB_RED*%
X110436198Y-103407980D02*
X111857980Y-103407980D01*
X109850000Y-102007500D02*
X109850000Y-102821782D01*
X125890000Y-89860000D02*
X128055000Y-89860000D01*
X109850000Y-102821782D02*
X110436198Y-103407980D01*
X128055000Y-89860000D02*
X128060000Y-89855000D01*
X112640000Y-104190000D02*
X114435000Y-104190000D01*
X111857980Y-103407980D02*
X112640000Y-104190000D01*
X114435000Y-104190000D02*
X116090000Y-104190000D01*
X116090000Y-104190000D02*
X116660000Y-103620000D01*
%TO.N,RGB_GREEN*%
X129490000Y-90460000D02*
X130335000Y-91305000D01*
X112224794Y-102344794D02*
X113095463Y-103215463D01*
X130335000Y-91305000D02*
X130860000Y-91305000D01*
X111050000Y-101307500D02*
X111050000Y-102050000D01*
X111344794Y-102344794D02*
X112224794Y-102344794D01*
X111050000Y-102050000D02*
X111344794Y-102344794D01*
X129490000Y-89300000D02*
X129490000Y-90460000D01*
X114804537Y-103215463D02*
X115350000Y-102670000D01*
X128780000Y-88590000D02*
X129490000Y-89300000D01*
X113095463Y-103215463D02*
X114804537Y-103215463D01*
D89*
%TO.N,USB_D-*%
X102809090Y-95505578D02*
X103122334Y-95505578D01*
X100100000Y-106957500D02*
X100100000Y-107804227D01*
X99650000Y-106507500D02*
X100100000Y-106957500D01*
X98734834Y-95792334D02*
X100422334Y-95792334D01*
X100983166Y-95231502D02*
X101022334Y-95231502D01*
X101583166Y-95792334D02*
X101622334Y-95792334D01*
X103409090Y-95792334D02*
X104134834Y-95792334D01*
X100100000Y-107804227D02*
X100115773Y-107820000D01*
X101622334Y-95792334D02*
X102522334Y-95792334D01*
X104134834Y-95792334D02*
X104150000Y-95807500D01*
X102809090Y-95505578D02*
G75*
G03*
X102665712Y-95648956I-2J-143376D01*
G01*
X101302750Y-95511918D02*
G75*
G03*
X101022334Y-95231502I-280416J0D01*
G01*
X100702750Y-95511918D02*
G75*
G02*
X100422334Y-95792334I-280416J0D01*
G01*
X103265712Y-95648956D02*
G75*
G03*
X103122334Y-95505578I-143376J2D01*
G01*
X102665712Y-95648956D02*
G75*
G02*
X102522334Y-95792334I-143376J-2D01*
G01*
X103409090Y-95792334D02*
G75*
G02*
X103265712Y-95648956I-2J143376D01*
G01*
X100983166Y-95231502D02*
G75*
G03*
X100702750Y-95511918I0J-280416D01*
G01*
X101583166Y-95792334D02*
G75*
G02*
X101302750Y-95511918I0J280416D01*
G01*
%TO.N,USB_D+*%
X99389503Y-96220000D02*
X101250000Y-96220000D01*
X103310071Y-96220000D02*
X103397571Y-96307500D01*
X102015773Y-107023273D02*
X101450000Y-106457500D01*
X102050000Y-96220000D02*
X102450000Y-96220000D01*
X102450000Y-96220000D02*
X103310071Y-96220000D01*
X102015773Y-107820000D02*
X102015773Y-107023273D01*
X103397571Y-96307500D02*
X104150000Y-96307500D01*
X101450000Y-96420000D02*
X101850000Y-96420000D01*
X99267669Y-96341834D02*
X99389503Y-96220000D01*
X102050000Y-96220000D02*
G75*
G03*
X101950000Y-96320000I-1J-99999D01*
G01*
X101350000Y-96320000D02*
G75*
G03*
X101250000Y-96220000I-99999J1D01*
G01*
X101450000Y-96420000D02*
G75*
G02*
X101350000Y-96320000I-1J99999D01*
G01*
X101950000Y-96320000D02*
G75*
G02*
X101850000Y-96420000I-99999J-1D01*
G01*
D84*
%TO.N,SWDIO*%
X111920000Y-80680000D02*
X111920000Y-78877500D01*
X102850000Y-83907500D02*
X104967500Y-81790000D01*
X104967500Y-81790000D02*
X110810000Y-81790000D01*
X103120458Y-96807500D02*
X103096448Y-96783490D01*
X110810000Y-81790000D02*
X111920000Y-80680000D01*
X104150000Y-96807500D02*
X103120458Y-96807500D01*
X102850000Y-94907500D02*
X102850000Y-83907500D01*
%TO.N,SWCLK*%
X104750000Y-81107500D02*
X102300000Y-83557500D01*
X103536194Y-97857010D02*
X103585704Y-97807500D01*
X103585704Y-97807500D02*
X104150000Y-97807500D01*
X99537010Y-97857010D02*
X103536194Y-97857010D01*
X99200000Y-97520000D02*
X99537010Y-97857010D01*
X109380000Y-78877500D02*
X109380000Y-80377500D01*
X108650000Y-81107500D02*
X104750000Y-81107500D01*
X101700000Y-94357500D02*
X98900000Y-94357500D01*
X97750000Y-96907500D02*
X98362500Y-97520000D01*
X102300000Y-83557500D02*
X102300000Y-93757500D01*
X98900000Y-94357500D02*
X97750000Y-95507500D01*
X102300000Y-93757500D02*
X101700000Y-94357500D01*
X97750000Y-95507500D02*
X97750000Y-96907500D01*
X98362500Y-97520000D02*
X99200000Y-97520000D01*
X109380000Y-80377500D02*
X108650000Y-81107500D01*
%TO.N,I2C1_SCL*%
X116380000Y-81720000D02*
X118430000Y-83770000D01*
X102512468Y-100307500D02*
X104150000Y-100307500D01*
X100450000Y-100107500D02*
X100824501Y-100482001D01*
X118430000Y-83770000D02*
X121400000Y-83770000D01*
X97680000Y-77780000D02*
X98530000Y-76930000D01*
X115480000Y-76930000D02*
X116380000Y-77830000D01*
X125320000Y-87690000D02*
X128106522Y-87690000D01*
X97680000Y-78927500D02*
X97680000Y-77780000D01*
X97710000Y-82570000D02*
X97680000Y-82540000D01*
X100824501Y-100482001D02*
X102337967Y-100482001D01*
X128106522Y-87690000D02*
X128805000Y-86991522D01*
X97680000Y-82540000D02*
X97680000Y-78927500D01*
X102337967Y-100482001D02*
X102512468Y-100307500D01*
X116380000Y-77830000D02*
X116380000Y-81720000D01*
X128805000Y-86991522D02*
X128805000Y-86442500D01*
X98530000Y-76930000D02*
X115480000Y-76930000D01*
X121400000Y-83770000D02*
X125320000Y-87690000D01*
%TO.N,I2C1_SDA*%
X118780000Y-83190000D02*
X121710000Y-83190000D01*
X127305000Y-86825000D02*
X127305000Y-86442500D01*
X95130000Y-78937500D02*
X95140000Y-78927500D01*
X95130000Y-82570000D02*
X95130000Y-78937500D01*
X115810000Y-76430000D02*
X116940000Y-77560000D01*
X95140000Y-77780000D02*
X96490000Y-76430000D01*
X116940000Y-77560000D02*
X116940000Y-81350000D01*
X125670000Y-87150000D02*
X126980000Y-87150000D01*
X100250000Y-100807500D02*
X100374011Y-100931511D01*
X100374011Y-100931511D02*
X102524161Y-100931511D01*
X96490000Y-76430000D02*
X115810000Y-76430000D01*
X121710000Y-83190000D02*
X125670000Y-87150000D01*
X126980000Y-87150000D02*
X127305000Y-86825000D01*
X116940000Y-81350000D02*
X118780000Y-83190000D01*
X95140000Y-78927500D02*
X95140000Y-77780000D01*
X102648172Y-100807500D02*
X104150000Y-100807500D01*
X102524161Y-100931511D02*
X102648172Y-100807500D01*
D89*
%TO.N,USB_CONN_D-*%
X101089273Y-116546522D02*
X101015795Y-116620000D01*
X100089273Y-113307173D02*
X100089273Y-115572500D01*
X100115773Y-110095000D02*
X100115773Y-110535773D01*
X100162751Y-116620000D02*
X100089273Y-116546522D01*
X100115773Y-110535773D02*
X100815773Y-111235773D01*
X101089273Y-115572500D02*
X101089273Y-116546522D01*
X100815773Y-112580673D02*
X100089273Y-113307173D01*
X100815773Y-111235773D02*
X100815773Y-112580673D01*
X101015795Y-116620000D02*
X100162751Y-116620000D01*
X100089273Y-116546522D02*
X100089273Y-115572500D01*
%TO.N,USB_CONN_D+*%
X100589273Y-114810727D02*
X100589273Y-115572500D01*
X100589273Y-114750727D02*
X100589273Y-114810727D01*
X102015773Y-110524227D02*
X101315773Y-111224227D01*
X100800000Y-114540000D02*
X100589273Y-114750727D01*
X101315773Y-112787781D02*
X100589273Y-113514281D01*
X101589273Y-114729273D02*
X101400000Y-114540000D01*
X101315773Y-111224227D02*
X101315773Y-112787781D01*
X101400000Y-114540000D02*
X100800000Y-114540000D01*
X102015773Y-110095000D02*
X102015773Y-110524227D01*
X100589273Y-113514281D02*
X100589273Y-114810727D01*
X101589273Y-115572500D02*
X101589273Y-114729273D01*
D86*
%TO.N,+BATT*%
X117217500Y-115167500D02*
X115076773Y-115167500D01*
X117329273Y-116247500D02*
X118278773Y-117197000D01*
X115076773Y-115167500D02*
X115076773Y-114173227D01*
X117330000Y-115280000D02*
X117217500Y-115167500D01*
D84*
X113650000Y-109730000D02*
X113650000Y-112530000D01*
D86*
X108844637Y-119119637D02*
X110050000Y-120325000D01*
D84*
X114150000Y-113030000D02*
X115239273Y-113030000D01*
D86*
X115076773Y-114173227D02*
X115239273Y-114010727D01*
D84*
X112410000Y-108490000D02*
X113650000Y-109730000D01*
D86*
X115239273Y-114010727D02*
X115239273Y-113030000D01*
X110050000Y-120325000D02*
X115605000Y-120325000D01*
X108844637Y-117735000D02*
X108844637Y-119119637D01*
X117330000Y-115280000D02*
X117329273Y-115280727D01*
X117329273Y-118600727D02*
X117329273Y-116247500D01*
D84*
X113650000Y-112530000D02*
X114150000Y-113030000D01*
D86*
X118278773Y-117197000D02*
X122160000Y-117197000D01*
D84*
X112410000Y-108070000D02*
X112410000Y-108490000D01*
D86*
X115605000Y-120325000D02*
X117329273Y-118600727D01*
X117329273Y-115280727D02*
X117329273Y-116247500D01*
D84*
%TO.N,Net-(F1-Pad1)*%
X98389273Y-116396773D02*
X98389273Y-115572500D01*
D86*
X103289273Y-114638227D02*
X104180000Y-113747500D01*
D84*
X102478295Y-117207500D02*
X99200000Y-117207500D01*
D86*
X103289273Y-115572500D02*
X103289273Y-114638227D01*
D84*
X104180000Y-113747500D02*
X104180000Y-113635000D01*
X103289273Y-116396522D02*
X102478295Y-117207500D01*
X98389273Y-115572500D02*
X98389273Y-110100727D01*
X100784296Y-108970000D02*
X101065773Y-108688523D01*
X98389273Y-110100727D02*
X99520000Y-108970000D01*
X99200000Y-117207500D02*
X98389273Y-116396773D01*
X101065773Y-108688523D02*
X101065773Y-107820000D01*
X103289273Y-115572500D02*
X103289273Y-116396522D01*
X99520000Y-108970000D02*
X100784296Y-108970000D01*
%TO.N,Net-(Q1-Pad3)*%
X75207500Y-96050000D02*
X75220000Y-96037500D01*
X73410000Y-96050000D02*
X75207500Y-96050000D01*
X73130000Y-95770000D02*
X73410000Y-96050000D01*
%TO.N,Net-(Q2-Pad3)*%
X73920000Y-94270000D02*
X73920000Y-93520000D01*
X75534283Y-94720000D02*
X74370000Y-94720000D01*
X76430000Y-95615717D02*
X75534283Y-94720000D01*
X74370000Y-94720000D02*
X73920000Y-94270000D01*
X75795000Y-99255000D02*
X76430000Y-98620000D01*
X76430000Y-98620000D02*
X76430000Y-95615717D01*
X75460000Y-99255000D02*
X75795000Y-99255000D01*
%TO.N,Net-(Q3-Pad3)*%
X75260000Y-115257500D02*
X74712500Y-115257500D01*
X74345000Y-115625000D02*
X73040000Y-115625000D01*
X74712500Y-115257500D02*
X74345000Y-115625000D01*
%TO.N,Net-(Q4-Pad2)*%
X74872500Y-87310000D02*
X77180000Y-87310000D01*
X85032500Y-98827500D02*
X83670000Y-98827500D01*
X84587500Y-94477500D02*
X85700000Y-95590000D01*
X74232500Y-87950000D02*
X74872500Y-87310000D01*
X82662500Y-93457500D02*
X84587500Y-93457500D01*
X85700000Y-98160000D02*
X85032500Y-98827500D01*
X82700000Y-93420000D02*
X82662500Y-93457500D01*
X74232500Y-87950000D02*
X74232500Y-85780000D01*
X84587500Y-93457500D02*
X84587500Y-94477500D01*
X85700000Y-95590000D02*
X85700000Y-98160000D01*
X82700000Y-91357500D02*
X82700000Y-93420000D01*
D86*
%TO.N,Net-(R1-Pad2)*%
X75940000Y-105992500D02*
X76710000Y-105222500D01*
X77650000Y-107082500D02*
X77650000Y-107040000D01*
X77650000Y-107040000D02*
X77457500Y-106847500D01*
X77457500Y-106847500D02*
X75940000Y-106847500D01*
X75940000Y-106847500D02*
X75940000Y-105992500D01*
D84*
%TO.N,BATT_ADC*%
X111567500Y-103857500D02*
X112010000Y-104300000D01*
X112410000Y-106735000D02*
X112410000Y-107050000D01*
X112010000Y-106335000D02*
X112410000Y-106735000D01*
X110250000Y-103857500D02*
X111567500Y-103857500D01*
X112010000Y-104300000D02*
X112010000Y-105320000D01*
X112010000Y-105320000D02*
X112010000Y-106335000D01*
X112250000Y-105080000D02*
X112010000Y-105320000D01*
X109350000Y-102007500D02*
X109350000Y-102957500D01*
X112780000Y-105080000D02*
X112250000Y-105080000D01*
X109350000Y-102957500D02*
X110250000Y-103857500D01*
%TO.N,Net-(J1-PadA5)*%
X99589273Y-113906000D02*
X99365773Y-113682500D01*
X99589273Y-115572500D02*
X99589273Y-113906000D01*
X99365773Y-113682500D02*
X99365773Y-113367500D01*
%TO.N,Net-(R9-Pad1)*%
X117200000Y-108970000D02*
X117040000Y-108810000D01*
X118917500Y-110672500D02*
X118540000Y-110295000D01*
X118540000Y-110295000D02*
X118540000Y-109437155D01*
X118072845Y-108970000D02*
X117200000Y-108970000D01*
X119766773Y-110672500D02*
X118917500Y-110672500D01*
X117040000Y-108810000D02*
X117040000Y-108292500D01*
X118540000Y-109437155D02*
X118072845Y-108970000D01*
%TO.N,Net-(R10-Pad1)*%
X112825000Y-118750000D02*
X113175000Y-119100000D01*
X112801773Y-117067500D02*
X112825000Y-117090727D01*
X112825000Y-117090727D02*
X112825000Y-118750000D01*
%TO.N,Net-(J1-PadB5)*%
X102665773Y-113682500D02*
X102665773Y-113367500D01*
X102589273Y-113759000D02*
X102665773Y-113682500D01*
X102589273Y-115572500D02*
X102589273Y-113759000D01*
%TO.N,RGB_BLUE*%
X110350000Y-102630000D02*
X110350000Y-102007500D01*
X126375000Y-91305000D02*
X128060000Y-91305000D01*
X112780000Y-103670000D02*
X115500000Y-103670000D01*
X111970000Y-102860000D02*
X110580000Y-102860000D01*
X110580000Y-102860000D02*
X110350000Y-102630000D01*
X112780000Y-103670000D02*
X111970000Y-102860000D01*
X125970000Y-91710000D02*
X126375000Y-91305000D01*
X121980000Y-91710000D02*
X125970000Y-91710000D01*
X115500000Y-103670000D02*
X115990000Y-103180000D01*
%TO.N,Feedback_VREF*%
X108850000Y-103360000D02*
X108900000Y-103410000D01*
X90937500Y-98320000D02*
X90937500Y-94957500D01*
X93760000Y-102967500D02*
X91220000Y-100427500D01*
X88830000Y-100427500D02*
X90937500Y-98320000D01*
X108850000Y-102007500D02*
X108850000Y-103360000D01*
X91220000Y-100427500D02*
X88830000Y-100427500D01*
X96450000Y-102967500D02*
X93760000Y-102967500D01*
%TO.N,Net-(R23-Pad2)*%
X97850000Y-90107500D02*
X99412500Y-90107500D01*
X92762500Y-93770000D02*
X92750000Y-93757500D01*
X92750000Y-93717500D02*
X91790000Y-92757500D01*
X92750000Y-93757500D02*
X92750000Y-93717500D01*
X92762500Y-94957500D02*
X92762500Y-93770000D01*
X99412500Y-90107500D02*
X99450000Y-90070000D01*
%TO.N,Net-(R24-Pad1)*%
X84800000Y-88100000D02*
X85445000Y-88745000D01*
X84800000Y-87310000D02*
X84800000Y-88100000D01*
X85445000Y-88745000D02*
X86600000Y-88745000D01*
%TO.N,Net-(R24-Pad2)*%
X92142500Y-90570000D02*
X86600000Y-90570000D01*
X94537500Y-94957500D02*
X94537500Y-92965000D01*
X94330000Y-92757500D02*
X92142500Y-90570000D01*
X94537500Y-92965000D02*
X94330000Y-92757500D01*
%TO.N,FILT_PWM*%
X71670000Y-91250000D02*
X69600000Y-91250000D01*
X71070000Y-114760000D02*
X69200000Y-112890000D01*
X76080000Y-113960000D02*
X74880000Y-113960000D01*
X75510000Y-92250000D02*
X73920000Y-92250000D01*
X76730000Y-93470000D02*
X75510000Y-92250000D01*
X69200000Y-96760000D02*
X73710000Y-92250000D01*
X73710000Y-92250000D02*
X73920000Y-92250000D01*
X76722500Y-95270000D02*
X77580000Y-96127500D01*
X76720000Y-95270000D02*
X76722500Y-95270000D01*
X76730000Y-94690000D02*
X76730000Y-93470000D01*
X76720000Y-94700000D02*
X76730000Y-94690000D01*
X76720000Y-95270000D02*
X76720000Y-94700000D01*
X74880000Y-113960000D02*
X74080000Y-114760000D01*
X74080000Y-114760000D02*
X71070000Y-114760000D01*
X76530000Y-115257500D02*
X76530000Y-114410000D01*
X76530000Y-114410000D02*
X76080000Y-113960000D01*
X73920000Y-92250000D02*
X72670000Y-92250000D01*
X69200000Y-112890000D02*
X69200000Y-96760000D01*
X72670000Y-92250000D02*
X71670000Y-91250000D01*
%TO.N,Net-(Q5-Pad2)*%
X119630000Y-108550000D02*
X119630000Y-107855000D01*
X119766773Y-111622500D02*
X120602500Y-111622500D01*
X119998793Y-108918793D02*
X119630000Y-108550000D01*
X120960000Y-111265000D02*
X120960000Y-109240000D01*
X120638793Y-108918793D02*
X119998793Y-108918793D01*
X120960000Y-109240000D02*
X120638793Y-108918793D01*
X120602500Y-111622500D02*
X120960000Y-111265000D01*
%TO.N,Net-(Q5-Pad3)*%
X120174511Y-106779511D02*
X120280000Y-106885000D01*
X118980000Y-105955000D02*
X118980000Y-106654022D01*
X118980000Y-106654022D02*
X119105489Y-106779511D01*
X120280000Y-106885000D02*
X120280000Y-107855000D01*
X119105489Y-106779511D02*
X120174511Y-106779511D01*
%TO.N,Net-(Q5-Pad4)*%
X120280000Y-105955000D02*
X120280000Y-105205000D01*
X119695490Y-104620490D02*
X118309510Y-104620490D01*
X120280000Y-105205000D02*
X119695490Y-104620490D01*
X118309510Y-104620490D02*
X117650000Y-105280000D01*
X117650000Y-105280000D02*
X117650000Y-105857500D01*
X117650000Y-105857500D02*
X117040000Y-106467500D01*
%TO.N,Net-(Q5-Pad5)*%
X119630000Y-105955000D02*
X119630000Y-105385000D01*
X119630000Y-105385000D02*
X119315000Y-105070000D01*
X119315000Y-105070000D02*
X118655000Y-105070000D01*
X118180000Y-105545000D02*
X118180000Y-108367482D01*
X118180000Y-108367482D02*
X119535018Y-109722500D01*
X118655000Y-105070000D02*
X118180000Y-105545000D01*
X119535018Y-109722500D02*
X119766773Y-109722500D01*
%TO.N,BAT_STAT*%
X112899412Y-99773404D02*
X113250590Y-100124582D01*
X111774022Y-98807500D02*
X112739926Y-99773404D01*
X112739926Y-99773404D02*
X112899412Y-99773404D01*
X113250590Y-100621228D02*
X113886721Y-101257359D01*
X113886721Y-101257359D02*
X113886721Y-102640962D01*
X111050000Y-98807500D02*
X111774022Y-98807500D01*
X113250590Y-100124582D02*
X113250590Y-100621228D01*
X114420000Y-118460000D02*
X115076773Y-117803227D01*
X115076773Y-117803227D02*
X115076773Y-117067500D01*
%TO.N,Net-(D6-Pad2)*%
X130860000Y-89260000D02*
X130860000Y-89855000D01*
X131380000Y-88740000D02*
X130860000Y-89260000D01*
X131380000Y-88055000D02*
X131380000Y-88740000D01*
D91*
%TO.N,Net-(AE1-Pad1)*%
X122360000Y-97300000D02*
X118610000Y-97300000D01*
D88*
X123075000Y-97300000D02*
X122360000Y-97300000D01*
D91*
%TO.N,Net-(C25-Pad1)*%
X115910000Y-97300000D02*
X116910000Y-97300000D01*
X114855000Y-97300000D02*
X115910000Y-97300000D01*
D84*
%TO.N,Net-(R18-Pad2)*%
X72407500Y-85780000D02*
X72407500Y-84822500D01*
X72407500Y-87950000D02*
X72407500Y-85780000D01*
X73407500Y-83822500D02*
X74230000Y-83822500D01*
X72407500Y-84822500D02*
X73407500Y-83822500D01*
%TO.N,Net-(D4-Pad1)*%
X72375000Y-113975000D02*
X73040000Y-113975000D01*
X71770000Y-113370000D02*
X72375000Y-113975000D01*
X71770000Y-111777500D02*
X71770000Y-113370000D01*
%TO.N,PWM_LEDS*%
X104150000Y-98807500D02*
X101402500Y-98807500D01*
X80370000Y-99770000D02*
X79362500Y-99770000D01*
X101402500Y-98807500D02*
X101050000Y-99160000D01*
%TD*%
M02*
