%TF.GenerationSoftware,KiCad,Pcbnew,(6.0.0)*%
%TF.CreationDate,2023-04-24T11:59:45-05:00*%
%TF.ProjectId,SNAP_Project,534e4150-5f50-4726-9f6a-6563742e6b69,1.0*%
%TF.SameCoordinates,Original*%
%TF.FileFunction,Legend,Top*%
%TF.FilePolarity,Positive*%
%FSLAX46Y46*%
G04 Gerber Fmt 4.6, Leading zero omitted, Abs format (unit mm)*
G04 Created by KiCad (PCBNEW (6.0.0)) date 2023-04-24 11:59:45*
%MOMM*%
%LPD*%
G01*
G04 APERTURE LIST*
%ADD10C,0.100000*%
%ADD11C,0.150000*%
%ADD12C,0.200000*%
%ADD13C,0.120000*%
%ADD14C,0.250000*%
G04 APERTURE END LIST*
D10*
X86823333Y-95196666D02*
X86823333Y-94496666D01*
X87090000Y-94496666D01*
X87156666Y-94530000D01*
X87190000Y-94563333D01*
X87223333Y-94630000D01*
X87223333Y-94730000D01*
X87190000Y-94796666D01*
X87156666Y-94830000D01*
X87090000Y-94863333D01*
X86823333Y-94863333D01*
X87523333Y-95196666D02*
X87523333Y-94496666D01*
X87523333Y-94830000D02*
X87923333Y-94830000D01*
X87923333Y-95196666D02*
X87923333Y-94496666D01*
X88156666Y-94496666D02*
X88556666Y-94496666D01*
X88356666Y-95196666D02*
X88356666Y-94496666D01*
D11*
X89876666Y-88646666D02*
X89876666Y-89146666D01*
X89843333Y-89246666D01*
X89776666Y-89313333D01*
X89676666Y-89346666D01*
X89610000Y-89346666D01*
X90543333Y-89346666D02*
X90210000Y-89346666D01*
X90210000Y-88646666D01*
X91176666Y-89280000D02*
X91143333Y-89313333D01*
X91043333Y-89346666D01*
X90976666Y-89346666D01*
X90876666Y-89313333D01*
X90810000Y-89246666D01*
X90776666Y-89180000D01*
X90743333Y-89046666D01*
X90743333Y-88946666D01*
X90776666Y-88813333D01*
X90810000Y-88746666D01*
X90876666Y-88680000D01*
X90976666Y-88646666D01*
X91043333Y-88646666D01*
X91143333Y-88680000D01*
X91176666Y-88713333D01*
X91676666Y-88646666D02*
X91676666Y-89146666D01*
X91643333Y-89246666D01*
X91576666Y-89313333D01*
X91476666Y-89346666D01*
X91410000Y-89346666D01*
X92343333Y-89346666D02*
X92010000Y-89346666D01*
X92010000Y-88646666D01*
X92976666Y-89280000D02*
X92943333Y-89313333D01*
X92843333Y-89346666D01*
X92776666Y-89346666D01*
X92676666Y-89313333D01*
X92610000Y-89246666D01*
X92576666Y-89180000D01*
X92543333Y-89046666D01*
X92543333Y-88946666D01*
X92576666Y-88813333D01*
X92610000Y-88746666D01*
X92676666Y-88680000D01*
X92776666Y-88646666D01*
X92843333Y-88646666D01*
X92943333Y-88680000D01*
X92976666Y-88713333D01*
X93476666Y-88646666D02*
X93476666Y-89146666D01*
X93443333Y-89246666D01*
X93376666Y-89313333D01*
X93276666Y-89346666D01*
X93210000Y-89346666D01*
X94143333Y-89346666D02*
X93810000Y-89346666D01*
X93810000Y-88646666D01*
X94776666Y-89280000D02*
X94743333Y-89313333D01*
X94643333Y-89346666D01*
X94576666Y-89346666D01*
X94476666Y-89313333D01*
X94410000Y-89246666D01*
X94376666Y-89180000D01*
X94343333Y-89046666D01*
X94343333Y-88946666D01*
X94376666Y-88813333D01*
X94410000Y-88746666D01*
X94476666Y-88680000D01*
X94576666Y-88646666D01*
X94643333Y-88646666D01*
X94743333Y-88680000D01*
X94776666Y-88713333D01*
X95276666Y-88646666D02*
X95276666Y-89146666D01*
X95243333Y-89246666D01*
X95176666Y-89313333D01*
X95076666Y-89346666D01*
X95010000Y-89346666D01*
X95943333Y-89346666D02*
X95610000Y-89346666D01*
X95610000Y-88646666D01*
X96576666Y-89280000D02*
X96543333Y-89313333D01*
X96443333Y-89346666D01*
X96376666Y-89346666D01*
X96276666Y-89313333D01*
X96210000Y-89246666D01*
X96176666Y-89180000D01*
X96143333Y-89046666D01*
X96143333Y-88946666D01*
X96176666Y-88813333D01*
X96210000Y-88746666D01*
X96276666Y-88680000D01*
X96376666Y-88646666D01*
X96443333Y-88646666D01*
X96543333Y-88680000D01*
X96576666Y-88713333D01*
X67758095Y-104862380D02*
X67758095Y-103862380D01*
X68329523Y-104862380D02*
X67900952Y-104290952D01*
X68329523Y-103862380D02*
X67758095Y-104433809D01*
X125803333Y-117150000D02*
X126336666Y-117150000D01*
X126070000Y-117416666D02*
X126070000Y-116883333D01*
X104723333Y-89480000D02*
X105256666Y-89480000D01*
X87223333Y-96450000D02*
X87756666Y-96450000D01*
X87490000Y-96716666D02*
X87490000Y-96183333D01*
X95046666Y-110496666D02*
X95280000Y-111196666D01*
X95513333Y-110496666D01*
X95980000Y-110830000D02*
X96080000Y-110863333D01*
X96113333Y-110896666D01*
X96146666Y-110963333D01*
X96146666Y-111063333D01*
X96113333Y-111130000D01*
X96080000Y-111163333D01*
X96013333Y-111196666D01*
X95746666Y-111196666D01*
X95746666Y-110496666D01*
X95980000Y-110496666D01*
X96046666Y-110530000D01*
X96080000Y-110563333D01*
X96113333Y-110630000D01*
X96113333Y-110696666D01*
X96080000Y-110763333D01*
X96046666Y-110796666D01*
X95980000Y-110830000D01*
X95746666Y-110830000D01*
X96446666Y-110496666D02*
X96446666Y-111063333D01*
X96480000Y-111130000D01*
X96513333Y-111163333D01*
X96580000Y-111196666D01*
X96713333Y-111196666D01*
X96780000Y-111163333D01*
X96813333Y-111130000D01*
X96846666Y-111063333D01*
X96846666Y-110496666D01*
X97146666Y-111163333D02*
X97246666Y-111196666D01*
X97413333Y-111196666D01*
X97480000Y-111163333D01*
X97513333Y-111130000D01*
X97546666Y-111063333D01*
X97546666Y-110996666D01*
X97513333Y-110930000D01*
X97480000Y-110896666D01*
X97413333Y-110863333D01*
X97280000Y-110830000D01*
X97213333Y-110796666D01*
X97180000Y-110763333D01*
X97146666Y-110696666D01*
X97146666Y-110630000D01*
X97180000Y-110563333D01*
X97213333Y-110530000D01*
X97280000Y-110496666D01*
X97446666Y-110496666D01*
X97546666Y-110530000D01*
X67873333Y-105660000D02*
X68406666Y-105660000D01*
X116140952Y-120498571D02*
X116283809Y-120546190D01*
X116331428Y-120593809D01*
X116379047Y-120689047D01*
X116379047Y-120831904D01*
X116331428Y-120927142D01*
X116283809Y-120974761D01*
X116188571Y-121022380D01*
X115807619Y-121022380D01*
X115807619Y-120022380D01*
X116140952Y-120022380D01*
X116236190Y-120070000D01*
X116283809Y-120117619D01*
X116331428Y-120212857D01*
X116331428Y-120308095D01*
X116283809Y-120403333D01*
X116236190Y-120450952D01*
X116140952Y-120498571D01*
X115807619Y-120498571D01*
X116760000Y-120736666D02*
X117236190Y-120736666D01*
X116664761Y-121022380D02*
X116998095Y-120022380D01*
X117331428Y-121022380D01*
X117521904Y-120022380D02*
X118093333Y-120022380D01*
X117807619Y-121022380D02*
X117807619Y-120022380D01*
X118283809Y-120022380D02*
X118855238Y-120022380D01*
X118569523Y-121022380D02*
X118569523Y-120022380D01*
X111033333Y-89520000D02*
X111566666Y-89520000D01*
D12*
X74623809Y-79299523D02*
X74909523Y-79394761D01*
X75385714Y-79394761D01*
X75576190Y-79299523D01*
X75671428Y-79204285D01*
X75766666Y-79013809D01*
X75766666Y-78823333D01*
X75671428Y-78632857D01*
X75576190Y-78537619D01*
X75385714Y-78442380D01*
X75004761Y-78347142D01*
X74814285Y-78251904D01*
X74719047Y-78156666D01*
X74623809Y-77966190D01*
X74623809Y-77775714D01*
X74719047Y-77585238D01*
X74814285Y-77490000D01*
X75004761Y-77394761D01*
X75480952Y-77394761D01*
X75766666Y-77490000D01*
X76623809Y-79394761D02*
X76623809Y-77394761D01*
X77766666Y-79394761D01*
X77766666Y-77394761D01*
X78623809Y-78823333D02*
X79576190Y-78823333D01*
X78433333Y-79394761D02*
X79100000Y-77394761D01*
X79766666Y-79394761D01*
X80433333Y-79394761D02*
X80433333Y-77394761D01*
X81195238Y-77394761D01*
X81385714Y-77490000D01*
X81480952Y-77585238D01*
X81576190Y-77775714D01*
X81576190Y-78061428D01*
X81480952Y-78251904D01*
X81385714Y-78347142D01*
X81195238Y-78442380D01*
X80433333Y-78442380D01*
X83671428Y-77394761D02*
X84338095Y-79394761D01*
X85004761Y-77394761D01*
X86528571Y-77394761D02*
X86147619Y-77394761D01*
X85957142Y-77490000D01*
X85861904Y-77585238D01*
X85671428Y-77870952D01*
X85576190Y-78251904D01*
X85576190Y-79013809D01*
X85671428Y-79204285D01*
X85766666Y-79299523D01*
X85957142Y-79394761D01*
X86338095Y-79394761D01*
X86528571Y-79299523D01*
X86623809Y-79204285D01*
X86719047Y-79013809D01*
X86719047Y-78537619D01*
X86623809Y-78347142D01*
X86528571Y-78251904D01*
X86338095Y-78156666D01*
X85957142Y-78156666D01*
X85766666Y-78251904D01*
X85671428Y-78347142D01*
X85576190Y-78537619D01*
X87576190Y-79204285D02*
X87671428Y-79299523D01*
X87576190Y-79394761D01*
X87480952Y-79299523D01*
X87576190Y-79204285D01*
X87576190Y-79394761D01*
X89576190Y-79394761D02*
X88433333Y-79394761D01*
X89004761Y-79394761D02*
X89004761Y-77394761D01*
X88814285Y-77680476D01*
X88623809Y-77870952D01*
X88433333Y-77966190D01*
D11*
X121786666Y-113640000D02*
X121720000Y-113606666D01*
X121620000Y-113606666D01*
X121520000Y-113640000D01*
X121453333Y-113706666D01*
X121420000Y-113773333D01*
X121386666Y-113906666D01*
X121386666Y-114006666D01*
X121420000Y-114140000D01*
X121453333Y-114206666D01*
X121520000Y-114273333D01*
X121620000Y-114306666D01*
X121686666Y-114306666D01*
X121786666Y-114273333D01*
X121820000Y-114240000D01*
X121820000Y-114006666D01*
X121686666Y-114006666D01*
X122120000Y-114306666D02*
X122120000Y-113606666D01*
X122520000Y-114306666D01*
X122520000Y-113606666D01*
X122853333Y-114306666D02*
X122853333Y-113606666D01*
X123020000Y-113606666D01*
X123120000Y-113640000D01*
X123186666Y-113706666D01*
X123220000Y-113773333D01*
X123253333Y-113906666D01*
X123253333Y-114006666D01*
X123220000Y-114140000D01*
X123186666Y-114206666D01*
X123120000Y-114273333D01*
X123020000Y-114306666D01*
X122853333Y-114306666D01*
X67734285Y-111052380D02*
X67734285Y-110052380D01*
X68305714Y-111052380D01*
X68305714Y-110052380D01*
X90207619Y-80852380D02*
X90398095Y-80852380D01*
X90493333Y-80900000D01*
X90588571Y-80995238D01*
X90636190Y-81185714D01*
X90636190Y-81519047D01*
X90588571Y-81709523D01*
X90493333Y-81804761D01*
X90398095Y-81852380D01*
X90207619Y-81852380D01*
X90112380Y-81804761D01*
X90017142Y-81709523D01*
X89969523Y-81519047D01*
X89969523Y-81185714D01*
X90017142Y-80995238D01*
X90112380Y-80900000D01*
X90207619Y-80852380D01*
X91540952Y-81852380D02*
X91064761Y-81852380D01*
X91064761Y-80852380D01*
X91874285Y-81328571D02*
X92207619Y-81328571D01*
X92350476Y-81852380D02*
X91874285Y-81852380D01*
X91874285Y-80852380D01*
X92350476Y-80852380D01*
X92779047Y-81852380D02*
X92779047Y-80852380D01*
X93017142Y-80852380D01*
X93160000Y-80900000D01*
X93255238Y-80995238D01*
X93302857Y-81090476D01*
X93350476Y-81280952D01*
X93350476Y-81423809D01*
X93302857Y-81614285D01*
X93255238Y-81709523D01*
X93160000Y-81804761D01*
X93017142Y-81852380D01*
X92779047Y-81852380D01*
X76580952Y-119212380D02*
X76771428Y-119212380D01*
X76866666Y-119260000D01*
X76961904Y-119355238D01*
X77009523Y-119545714D01*
X77009523Y-119879047D01*
X76961904Y-120069523D01*
X76866666Y-120164761D01*
X76771428Y-120212380D01*
X76580952Y-120212380D01*
X76485714Y-120164761D01*
X76390476Y-120069523D01*
X76342857Y-119879047D01*
X76342857Y-119545714D01*
X76390476Y-119355238D01*
X76485714Y-119260000D01*
X76580952Y-119212380D01*
X77438095Y-120212380D02*
X77438095Y-119212380D01*
X78009523Y-120212380D01*
X78009523Y-119212380D01*
X125823333Y-119700000D02*
X126356666Y-119700000D01*
X67953333Y-109270000D02*
X68486666Y-109270000D01*
X68220000Y-109536666D02*
X68220000Y-109003333D01*
X67923333Y-111850000D02*
X68456666Y-111850000D01*
X67943333Y-96840000D02*
X68476666Y-96840000D01*
X68210000Y-97106666D02*
X68210000Y-96573333D01*
X116082857Y-81804761D02*
X116225714Y-81852380D01*
X116463809Y-81852380D01*
X116559047Y-81804761D01*
X116606666Y-81757142D01*
X116654285Y-81661904D01*
X116654285Y-81566666D01*
X116606666Y-81471428D01*
X116559047Y-81423809D01*
X116463809Y-81376190D01*
X116273333Y-81328571D01*
X116178095Y-81280952D01*
X116130476Y-81233333D01*
X116082857Y-81138095D01*
X116082857Y-81042857D01*
X116130476Y-80947619D01*
X116178095Y-80900000D01*
X116273333Y-80852380D01*
X116511428Y-80852380D01*
X116654285Y-80900000D01*
X116987619Y-80852380D02*
X117225714Y-81852380D01*
X117416190Y-81138095D01*
X117606666Y-81852380D01*
X117844761Y-80852380D01*
X118225714Y-81852380D02*
X118225714Y-80852380D01*
X118463809Y-80852380D01*
X118606666Y-80900000D01*
X118701904Y-80995238D01*
X118749523Y-81090476D01*
X118797142Y-81280952D01*
X118797142Y-81423809D01*
X118749523Y-81614285D01*
X118701904Y-81709523D01*
X118606666Y-81804761D01*
X118463809Y-81852380D01*
X118225714Y-81852380D01*
X67863333Y-103060000D02*
X68396666Y-103060000D01*
X68130000Y-103326666D02*
X68130000Y-102793333D01*
X119833333Y-89690000D02*
X120366666Y-89690000D01*
X120100000Y-89956666D02*
X120100000Y-89423333D01*
X76920000Y-92060000D02*
X77453333Y-92060000D01*
X77186666Y-92326666D02*
X77186666Y-91793333D01*
X78120000Y-91626666D02*
X77786666Y-91626666D01*
X77753333Y-91960000D01*
X77786666Y-91926666D01*
X77853333Y-91893333D01*
X78020000Y-91893333D01*
X78086666Y-91926666D01*
X78120000Y-91960000D01*
X78153333Y-92026666D01*
X78153333Y-92193333D01*
X78120000Y-92260000D01*
X78086666Y-92293333D01*
X78020000Y-92326666D01*
X77853333Y-92326666D01*
X77786666Y-92293333D01*
X77753333Y-92260000D01*
X78353333Y-91626666D02*
X78586666Y-92326666D01*
X78820000Y-91626666D01*
X67938095Y-98762380D02*
X67938095Y-97762380D01*
X68319047Y-97762380D01*
X68414285Y-97810000D01*
X68461904Y-97857619D01*
X68509523Y-97952857D01*
X68509523Y-98095714D01*
X68461904Y-98190952D01*
X68414285Y-98238571D01*
X68319047Y-98286190D01*
X67938095Y-98286190D01*
X107303333Y-89450000D02*
X107836666Y-89450000D01*
X107570000Y-89716666D02*
X107570000Y-89183333D01*
X87163333Y-98890000D02*
X87696666Y-98890000D01*
X117093333Y-89600000D02*
X117626666Y-89600000D01*
X86920000Y-114950000D02*
X87453333Y-114950000D01*
X87186666Y-115216666D02*
X87186666Y-114683333D01*
X88086666Y-114750000D02*
X88086666Y-115216666D01*
X87920000Y-114483333D02*
X87753333Y-114983333D01*
X88186666Y-114983333D01*
X88353333Y-114516666D02*
X88586666Y-115216666D01*
X88820000Y-114516666D01*
X119214285Y-95408571D02*
X119357142Y-95456190D01*
X119404761Y-95503809D01*
X119452380Y-95599047D01*
X119452380Y-95741904D01*
X119404761Y-95837142D01*
X119357142Y-95884761D01*
X119261904Y-95932380D01*
X118880952Y-95932380D01*
X118880952Y-94932380D01*
X119214285Y-94932380D01*
X119309523Y-94980000D01*
X119357142Y-95027619D01*
X119404761Y-95122857D01*
X119404761Y-95218095D01*
X119357142Y-95313333D01*
X119309523Y-95360952D01*
X119214285Y-95408571D01*
X118880952Y-95408571D01*
X120357142Y-95932380D02*
X119880952Y-95932380D01*
X119880952Y-94932380D01*
X120690476Y-95408571D02*
X121023809Y-95408571D01*
X121166666Y-95932380D02*
X120690476Y-95932380D01*
X120690476Y-94932380D01*
X121166666Y-94932380D01*
X67833333Y-99410000D02*
X68366666Y-99410000D01*
X89687619Y-119262380D02*
X89878095Y-119262380D01*
X89973333Y-119310000D01*
X90068571Y-119405238D01*
X90116190Y-119595714D01*
X90116190Y-119929047D01*
X90068571Y-120119523D01*
X89973333Y-120214761D01*
X89878095Y-120262380D01*
X89687619Y-120262380D01*
X89592380Y-120214761D01*
X89497142Y-120119523D01*
X89449523Y-119929047D01*
X89449523Y-119595714D01*
X89497142Y-119405238D01*
X89592380Y-119310000D01*
X89687619Y-119262380D01*
X90878095Y-119738571D02*
X90544761Y-119738571D01*
X90544761Y-120262380D02*
X90544761Y-119262380D01*
X91020952Y-119262380D01*
X91735238Y-119738571D02*
X91401904Y-119738571D01*
X91401904Y-120262380D02*
X91401904Y-119262380D01*
X91878095Y-119262380D01*
X113603333Y-89470000D02*
X114136666Y-89470000D01*
X113870000Y-89736666D02*
X113870000Y-89203333D01*
D13*
%TO.C,J4*%
X104140000Y-75897500D02*
X93760000Y-75897500D01*
X101960000Y-75897500D02*
X101960000Y-76497500D01*
X94340000Y-76497500D02*
X95940000Y-76497500D01*
X103560000Y-76497500D02*
X103560000Y-75897500D01*
X94340000Y-75897500D02*
X94340000Y-76497500D01*
X95390000Y-81917500D02*
X95390000Y-80917500D01*
X102510000Y-80387500D02*
X102760000Y-80917500D01*
X95140000Y-80917500D02*
X95390000Y-80387500D01*
X95140000Y-81917500D02*
X95140000Y-80917500D01*
X99420000Y-75897500D02*
X99420000Y-76497500D01*
X96880000Y-76497500D02*
X98480000Y-76497500D01*
X93470000Y-76927500D02*
X93470000Y-80927500D01*
X96880000Y-75897500D02*
X96880000Y-76497500D01*
X101960000Y-76497500D02*
X103560000Y-76497500D01*
X101020000Y-76497500D02*
X101020000Y-75897500D01*
X99420000Y-76497500D02*
X101020000Y-76497500D01*
X95940000Y-76497500D02*
X95940000Y-75897500D01*
X95390000Y-80387500D02*
X102510000Y-80387500D01*
X104140000Y-81917500D02*
X104140000Y-75897500D01*
X102510000Y-81917500D02*
X102510000Y-80917500D01*
X93760000Y-75897500D02*
X93760000Y-81917500D01*
X98480000Y-76497500D02*
X98480000Y-75897500D01*
X95140000Y-80917500D02*
X102760000Y-80917500D01*
X102760000Y-80917500D02*
X102760000Y-81917500D01*
X93760000Y-81917500D02*
X104140000Y-81917500D01*
%TO.C,C13*%
X102470000Y-102162164D02*
X102470000Y-102377836D01*
X103190000Y-102162164D02*
X103190000Y-102377836D01*
D12*
%TO.C,IC1*%
X94250000Y-112282500D02*
X91350000Y-112282500D01*
X94250000Y-111632500D02*
X94250000Y-112282500D01*
X91350000Y-111632500D02*
X94250000Y-111632500D01*
X91350000Y-112282500D02*
X91350000Y-111632500D01*
X91300000Y-113782500D02*
X91300000Y-112632500D01*
D13*
%TO.C,C24*%
X107510000Y-93077836D02*
X107510000Y-92862164D01*
X106790000Y-93077836D02*
X106790000Y-92862164D01*
%TO.C,SW2*%
X107760000Y-112300000D02*
X108060000Y-112300000D01*
X110260000Y-109000000D02*
X110560000Y-109000000D01*
X110560000Y-109000000D02*
X110560000Y-112300000D01*
X107760000Y-109000000D02*
X107760000Y-112300000D01*
X108060000Y-109000000D02*
X107760000Y-109000000D01*
X110560000Y-112300000D02*
X110260000Y-112300000D01*
%TO.C,Q3*%
X78330000Y-113407500D02*
X74730000Y-113407500D01*
X76530000Y-117857501D02*
G75*
G03*
X78368478Y-113419022I0J2600001D01*
G01*
X74691522Y-113419022D02*
G75*
G03*
X76530000Y-117857500I1838478J-1838478D01*
G01*
%TO.C,C5*%
X114050000Y-108831252D02*
X114050000Y-107408748D01*
X115870000Y-108831252D02*
X115870000Y-107408748D01*
%TO.C,R27*%
X73547064Y-86515000D02*
X73092936Y-86515000D01*
X73547064Y-85045000D02*
X73092936Y-85045000D01*
%TO.C,R4*%
X75982500Y-100317258D02*
X75982500Y-99842742D01*
X74937500Y-100317258D02*
X74937500Y-99842742D01*
%TO.C,C20*%
X77102164Y-94330000D02*
X77317836Y-94330000D01*
X77102164Y-95050000D02*
X77317836Y-95050000D01*
%TO.C,TP1*%
X97030000Y-112200000D02*
G75*
G03*
X97030000Y-112200000I-700000J0D01*
G01*
%TO.C,R11*%
X107185000Y-112717064D02*
X107185000Y-112262936D01*
X105715000Y-112717064D02*
X105715000Y-112262936D01*
%TO.C,C31*%
X101057836Y-96747500D02*
X100842164Y-96747500D01*
X101057836Y-97467500D02*
X100842164Y-97467500D01*
%TO.C,C9*%
X103940000Y-93115336D02*
X103940000Y-92899664D01*
X104660000Y-93115336D02*
X104660000Y-92899664D01*
%TO.C,R19*%
X99285000Y-103034564D02*
X99285000Y-102580436D01*
X97815000Y-103034564D02*
X97815000Y-102580436D01*
%TO.C,R1*%
X75800000Y-103032936D02*
X75800000Y-104487064D01*
X77620000Y-103032936D02*
X77620000Y-104487064D01*
%TO.C,R18*%
X73547064Y-88685000D02*
X73092936Y-88685000D01*
X73547064Y-87215000D02*
X73092936Y-87215000D01*
D10*
%TO.C,FL1*%
X117660000Y-96300000D02*
X117660000Y-96300000D01*
X117760000Y-96300000D02*
X117760000Y-96300000D01*
X117660000Y-96300000D02*
G75*
G03*
X117760000Y-96300000I50000J0D01*
G01*
X117760000Y-96300000D02*
G75*
G03*
X117660000Y-96300000I-50000J0D01*
G01*
D13*
%TO.C,U2*%
X77040000Y-108220000D02*
X77040000Y-107420000D01*
X80160000Y-108220000D02*
X80160000Y-109020000D01*
X77040000Y-108220000D02*
X77040000Y-109020000D01*
X80160000Y-108220000D02*
X80160000Y-106420000D01*
D12*
%TO.C,Y1*%
X111350000Y-91807500D02*
X111350000Y-91807500D01*
X111350000Y-91607500D02*
X111350000Y-91607500D01*
X111350000Y-91607500D02*
X111350000Y-91607500D01*
X111350000Y-91607500D02*
G75*
G03*
X111350000Y-91807500I0J-100000D01*
G01*
X111350000Y-91807500D02*
G75*
G03*
X111350000Y-91607500I0J100000D01*
G01*
X111350000Y-91607500D02*
G75*
G03*
X111350000Y-91807500I0J-100000D01*
G01*
D13*
%TO.C,BT1*%
X124150000Y-119610000D02*
X124150000Y-117070000D01*
X119730000Y-116270000D02*
X119130000Y-116270000D01*
X124150000Y-119610000D02*
X123620000Y-119360000D01*
X119130000Y-120990000D02*
X125150000Y-120990000D01*
X125150000Y-119360000D02*
X124150000Y-119360000D01*
X119130000Y-120410000D02*
X119730000Y-120410000D01*
X125150000Y-115690000D02*
X119130000Y-115690000D01*
X125150000Y-120990000D02*
X125150000Y-115690000D01*
X123620000Y-117320000D02*
X124150000Y-117070000D01*
X120160000Y-121280000D02*
X124160000Y-121280000D01*
X125150000Y-117320000D02*
X124150000Y-117320000D01*
X123620000Y-119360000D02*
X123620000Y-117320000D01*
X125150000Y-119610000D02*
X124150000Y-119610000D01*
X119130000Y-117870000D02*
X119730000Y-117870000D01*
X124150000Y-117070000D02*
X125150000Y-117070000D01*
X119130000Y-115690000D02*
X119130000Y-120990000D01*
X119730000Y-118810000D02*
X119130000Y-118810000D01*
X119730000Y-120410000D02*
X119730000Y-118810000D01*
X119730000Y-117870000D02*
X119730000Y-116270000D01*
%TO.C,Q2*%
X72070000Y-90450000D02*
X72070000Y-94050000D01*
X76520001Y-92250000D02*
G75*
G03*
X72081522Y-90411522I-2600001J0D01*
G01*
X72081522Y-94088478D02*
G75*
G03*
X76520000Y-92250000I1838478J1838478D01*
G01*
%TO.C,R28*%
X74965000Y-83137064D02*
X74965000Y-82682936D01*
X73495000Y-83137064D02*
X73495000Y-82682936D01*
%TO.C,TP4*%
X121150000Y-113920000D02*
G75*
G03*
X121150000Y-113920000I-700000J0D01*
G01*
%TO.C,TP2*%
X78700000Y-93290000D02*
G75*
G03*
X78700000Y-93290000I-700000J0D01*
G01*
%TO.C,R30*%
X76845000Y-97267064D02*
X76845000Y-96812936D01*
X78315000Y-97267064D02*
X78315000Y-96812936D01*
%TO.C,Y2*%
X105275000Y-104332500D02*
X106625000Y-104332500D01*
X105275000Y-106082500D02*
X106625000Y-106082500D01*
%TO.C,D4*%
X69340000Y-108437500D02*
X68740000Y-108437500D01*
X73230000Y-111527500D02*
X73230000Y-109487500D01*
X68740000Y-107857500D02*
X68740000Y-113157500D01*
X73230000Y-109487500D02*
X73760000Y-109237500D01*
X74760000Y-109487500D02*
X73760000Y-109487500D01*
X74760000Y-111527500D02*
X73760000Y-111527500D01*
X74760000Y-113157500D02*
X74760000Y-107857500D01*
X68740000Y-110037500D02*
X69340000Y-110037500D01*
X69340000Y-110977500D02*
X68740000Y-110977500D01*
X69340000Y-110037500D02*
X69340000Y-108437500D01*
X73760000Y-111777500D02*
X73760000Y-109237500D01*
X68740000Y-113157500D02*
X74760000Y-113157500D01*
X69340000Y-112577500D02*
X69340000Y-110977500D01*
X74760000Y-111777500D02*
X73760000Y-111777500D01*
X68740000Y-112577500D02*
X69340000Y-112577500D01*
X74760000Y-107857500D02*
X68740000Y-107857500D01*
X73760000Y-111777500D02*
X73230000Y-111527500D01*
X73760000Y-109237500D02*
X74760000Y-109237500D01*
X69770000Y-113447500D02*
X73770000Y-113447500D01*
%TO.C,C7*%
X118239273Y-115483752D02*
X118239273Y-114061248D01*
X116419273Y-115483752D02*
X116419273Y-114061248D01*
%TO.C,C22*%
X107057836Y-107217500D02*
X106842164Y-107217500D01*
X107057836Y-106497500D02*
X106842164Y-106497500D01*
%TO.C,C12*%
X104990000Y-93115336D02*
X104990000Y-92899664D01*
X105710000Y-93115336D02*
X105710000Y-92899664D01*
%TO.C,C11*%
X114280000Y-99582164D02*
X114280000Y-99797836D01*
X113560000Y-99582164D02*
X113560000Y-99797836D01*
%TO.C,R26*%
X98715000Y-88930436D02*
X98715000Y-89384564D01*
X100185000Y-88930436D02*
X100185000Y-89384564D01*
%TO.C,C2*%
X91061252Y-109317500D02*
X89638748Y-109317500D01*
X91061252Y-107497500D02*
X89638748Y-107497500D01*
%TO.C,R22*%
X81977064Y-92722500D02*
X81522936Y-92722500D01*
X81977064Y-94192500D02*
X81522936Y-94192500D01*
%TO.C,C6*%
X111234637Y-112524116D02*
X111234637Y-111101612D01*
X113054637Y-112524116D02*
X113054637Y-111101612D01*
%TO.C,U1*%
X99505773Y-108957500D02*
X99505773Y-110757500D01*
X102625773Y-108957500D02*
X102625773Y-108157500D01*
X102625773Y-108957500D02*
X102625773Y-109757500D01*
X99505773Y-108957500D02*
X99505773Y-108157500D01*
%TO.C,R9*%
X117775000Y-107607064D02*
X117775000Y-107152936D01*
X116305000Y-107607064D02*
X116305000Y-107152936D01*
%TO.C,J1*%
X96139273Y-117717500D02*
X96139273Y-119717500D01*
X105539273Y-117717500D02*
X105539273Y-119717500D01*
%TO.C,C28*%
X119007836Y-90187500D02*
X118792164Y-90187500D01*
X119007836Y-89467500D02*
X118792164Y-89467500D01*
%TO.C,U8*%
X113939273Y-114557500D02*
X113139273Y-114557500D01*
X113939273Y-117677500D02*
X115739273Y-117677500D01*
X113939273Y-117677500D02*
X113139273Y-117677500D01*
X113939273Y-114557500D02*
X114739273Y-114557500D01*
%TO.C,D3*%
X68740000Y-103787500D02*
X69340000Y-103787500D01*
X73760000Y-105527500D02*
X73230000Y-105277500D01*
X73230000Y-103237500D02*
X73760000Y-102987500D01*
X73230000Y-105277500D02*
X73230000Y-103237500D01*
X69340000Y-106327500D02*
X69340000Y-104727500D01*
X74760000Y-106907500D02*
X74760000Y-101607500D01*
X68740000Y-106907500D02*
X74760000Y-106907500D01*
X68740000Y-101607500D02*
X68740000Y-106907500D01*
X74760000Y-103237500D02*
X73760000Y-103237500D01*
X69770000Y-107197500D02*
X73770000Y-107197500D01*
X68740000Y-106327500D02*
X69340000Y-106327500D01*
X74760000Y-105527500D02*
X73760000Y-105527500D01*
X69340000Y-103787500D02*
X69340000Y-102187500D01*
X69340000Y-104727500D02*
X68740000Y-104727500D01*
X69340000Y-102187500D02*
X68740000Y-102187500D01*
X73760000Y-105527500D02*
X73760000Y-102987500D01*
X74760000Y-105277500D02*
X73760000Y-105277500D01*
X73760000Y-102987500D02*
X74760000Y-102987500D01*
X74760000Y-101607500D02*
X68740000Y-101607500D01*
%TO.C,R23*%
X91622936Y-94222500D02*
X92077064Y-94222500D01*
X91622936Y-95692500D02*
X92077064Y-95692500D01*
%TO.C,C3*%
X78111252Y-110810000D02*
X76688748Y-110810000D01*
X78111252Y-112630000D02*
X76688748Y-112630000D01*
%TO.C,C26*%
X94265000Y-101365336D02*
X94265000Y-101149664D01*
X94985000Y-101365336D02*
X94985000Y-101149664D01*
D12*
%TO.C,D5*%
X89448000Y-118149500D02*
X94452000Y-118149500D01*
X94452000Y-115665500D02*
X89100000Y-115665500D01*
D13*
%TO.C,R24*%
X85865000Y-89430436D02*
X85865000Y-89884564D01*
X87335000Y-89430436D02*
X87335000Y-89884564D01*
%TO.C,R15*%
X94466359Y-82190000D02*
X94773641Y-82190000D01*
X94466359Y-82950000D02*
X94773641Y-82950000D01*
%TO.C,Q1*%
X71450000Y-93050000D02*
X71450000Y-89450000D01*
X66999999Y-91250000D02*
G75*
G03*
X71438478Y-93088478I2600001J0D01*
G01*
X71438478Y-89411522D02*
G75*
G03*
X67000000Y-91250000I-1838478J-1838478D01*
G01*
%TO.C,J3*%
X114210000Y-80337500D02*
X114460000Y-80867500D01*
X105460000Y-75847500D02*
X105460000Y-81867500D01*
X113660000Y-76447500D02*
X115260000Y-76447500D01*
X114460000Y-80867500D02*
X114460000Y-81867500D01*
X106040000Y-76447500D02*
X107640000Y-76447500D01*
X115840000Y-75847500D02*
X105460000Y-75847500D01*
X110180000Y-76447500D02*
X110180000Y-75847500D01*
X108580000Y-75847500D02*
X108580000Y-76447500D01*
X114210000Y-81867500D02*
X114210000Y-80867500D01*
X105170000Y-76877500D02*
X105170000Y-80877500D01*
X106840000Y-81867500D02*
X106840000Y-80867500D01*
X115840000Y-81867500D02*
X115840000Y-75847500D01*
X108580000Y-76447500D02*
X110180000Y-76447500D01*
X107090000Y-80337500D02*
X114210000Y-80337500D01*
X106840000Y-80867500D02*
X114460000Y-80867500D01*
X112720000Y-76447500D02*
X112720000Y-75847500D01*
X107090000Y-81867500D02*
X107090000Y-80867500D01*
X106040000Y-75847500D02*
X106040000Y-76447500D01*
X106840000Y-80867500D02*
X107090000Y-80337500D01*
X111120000Y-75847500D02*
X111120000Y-76447500D01*
X111120000Y-76447500D02*
X112720000Y-76447500D01*
X105460000Y-81867500D02*
X115840000Y-81867500D01*
X107640000Y-76447500D02*
X107640000Y-75847500D01*
X115260000Y-76447500D02*
X115260000Y-75847500D01*
X113660000Y-75847500D02*
X113660000Y-76447500D01*
%TO.C,R2*%
X75030000Y-107582936D02*
X75030000Y-109037064D01*
X76850000Y-107582936D02*
X76850000Y-109037064D01*
%TO.C,R13*%
X113136359Y-104700000D02*
X113443641Y-104700000D01*
X113136359Y-105460000D02*
X113443641Y-105460000D01*
%TO.C,R25*%
X95222936Y-95692500D02*
X95677064Y-95692500D01*
X95222936Y-94222500D02*
X95677064Y-94222500D01*
%TO.C,R29*%
X78677064Y-100505000D02*
X78222936Y-100505000D01*
X78677064Y-99035000D02*
X78222936Y-99035000D01*
%TO.C,L1*%
X80586500Y-112325000D02*
X80586500Y-111380000D01*
X85866500Y-111380000D02*
X85866500Y-112325000D01*
X80586500Y-111380000D02*
X85866500Y-111380000D01*
X85866500Y-116660000D02*
X85866500Y-115715000D01*
X80586500Y-116660000D02*
X85866500Y-116660000D01*
X80586500Y-115715000D02*
X80586500Y-116660000D01*
%TO.C,Q6*%
X110344637Y-117375000D02*
X109344637Y-117375000D01*
X110354637Y-117355000D02*
X110354637Y-114925000D01*
X107294637Y-117375000D02*
X107294637Y-115525000D01*
X108344637Y-117375000D02*
X107294637Y-117375000D01*
%TO.C,R6*%
X102285773Y-112703859D02*
X102285773Y-113011141D01*
X103045773Y-112703859D02*
X103045773Y-113011141D01*
%TO.C,SW3*%
X118120000Y-83520000D02*
X118120000Y-82920000D01*
X119610000Y-88940000D02*
X119610000Y-87940000D01*
X116520000Y-83520000D02*
X118120000Y-83520000D01*
X117320000Y-88940000D02*
X117320000Y-87940000D01*
X121240000Y-88940000D02*
X121240000Y-82920000D01*
X117570000Y-88940000D02*
X117570000Y-87940000D01*
X119060000Y-83520000D02*
X120660000Y-83520000D01*
X116520000Y-82920000D02*
X116520000Y-83520000D01*
X117320000Y-87940000D02*
X117570000Y-87410000D01*
X117570000Y-87410000D02*
X119610000Y-87410000D01*
X120660000Y-83520000D02*
X120660000Y-82920000D01*
X115940000Y-88940000D02*
X121240000Y-88940000D01*
X121240000Y-82920000D02*
X115940000Y-82920000D01*
X115650000Y-83950000D02*
X115650000Y-87950000D01*
X119860000Y-87940000D02*
X119860000Y-88940000D01*
X117320000Y-87940000D02*
X119860000Y-87940000D01*
X115940000Y-82920000D02*
X115940000Y-88940000D01*
X119610000Y-87410000D02*
X119860000Y-87940000D01*
X119060000Y-82920000D02*
X119060000Y-83520000D01*
%TO.C,C18*%
X106590000Y-109442164D02*
X106590000Y-109657836D01*
X107310000Y-109442164D02*
X107310000Y-109657836D01*
%TO.C,C1*%
X88890000Y-112668752D02*
X88890000Y-111246248D01*
X90710000Y-112668752D02*
X90710000Y-111246248D01*
%TO.C,C4*%
X78290000Y-102308748D02*
X78290000Y-103731252D01*
X80110000Y-102308748D02*
X80110000Y-103731252D01*
%TO.C,C21*%
X104842164Y-106497500D02*
X105057836Y-106497500D01*
X104842164Y-107217500D02*
X105057836Y-107217500D01*
%TO.C,C25*%
X115550000Y-97672164D02*
X115550000Y-97887836D01*
X116270000Y-97672164D02*
X116270000Y-97887836D01*
%TO.C,R7*%
X98985773Y-112703859D02*
X98985773Y-113011141D01*
X99745773Y-112703859D02*
X99745773Y-113011141D01*
%TO.C,R12*%
X112030000Y-107713641D02*
X112030000Y-107406359D01*
X112790000Y-107713641D02*
X112790000Y-107406359D01*
%TO.C,C17*%
X108992164Y-104047500D02*
X109207836Y-104047500D01*
X108992164Y-104767500D02*
X109207836Y-104767500D01*
%TO.C,R5*%
X73562500Y-114562742D02*
X73562500Y-115037258D01*
X72517500Y-114562742D02*
X72517500Y-115037258D01*
%TO.C,C19*%
X79640000Y-97587836D02*
X79640000Y-97372164D01*
X78920000Y-97587836D02*
X78920000Y-97372164D01*
D12*
%TO.C,D6*%
X127130000Y-89850000D02*
X127130000Y-89850000D01*
X127130000Y-89850000D02*
X127130000Y-89850000D01*
X127230000Y-89850000D02*
X127230000Y-89850000D01*
X127230000Y-89850000D02*
G75*
G03*
X127130000Y-89850000I-50000J0D01*
G01*
X127130000Y-89850000D02*
G75*
G03*
X127230000Y-89850000I50000J0D01*
G01*
X127130000Y-89850000D02*
G75*
G03*
X127230000Y-89850000I50000J0D01*
G01*
D13*
%TO.C,U5*%
X95290000Y-96557500D02*
X89990000Y-96557500D01*
X95290000Y-106837500D02*
X95290000Y-96557500D01*
X89990000Y-96557500D02*
X89990000Y-106837500D01*
X89990000Y-106837500D02*
X91640000Y-106837500D01*
X93640000Y-106837500D02*
X95290000Y-106837500D01*
X93640000Y-106837500D02*
G75*
G03*
X91640000Y-106837500I-1000000J0D01*
G01*
%TO.C,C27*%
X94390000Y-99165336D02*
X94390000Y-98949664D01*
X95110000Y-99165336D02*
X95110000Y-98949664D01*
%TO.C,R8*%
X114504273Y-112344564D02*
X114504273Y-111890436D01*
X115974273Y-112344564D02*
X115974273Y-111890436D01*
%TO.C,C23*%
X113200000Y-97672164D02*
X113200000Y-97887836D01*
X112480000Y-97672164D02*
X112480000Y-97887836D01*
%TO.C,R10*%
X112587258Y-118577500D02*
X112112742Y-118577500D01*
X112587258Y-119622500D02*
X112112742Y-119622500D01*
%TO.C,C10*%
X104027836Y-102700000D02*
X103812164Y-102700000D01*
X104027836Y-103420000D02*
X103812164Y-103420000D01*
%TO.C,U6*%
X79990000Y-80900000D02*
X78340000Y-80900000D01*
X83640000Y-91180000D02*
X83640000Y-80900000D01*
X83640000Y-80900000D02*
X81990000Y-80900000D01*
X78340000Y-80900000D02*
X78340000Y-91180000D01*
X78340000Y-91180000D02*
X83640000Y-91180000D01*
X79990000Y-80900000D02*
G75*
G03*
X81990000Y-80900000I1000000J0D01*
G01*
%TO.C,C8*%
X130340000Y-84482164D02*
X130340000Y-84697836D01*
X129620000Y-84482164D02*
X129620000Y-84697836D01*
%TO.C,R16*%
X97046359Y-82190000D02*
X97353641Y-82190000D01*
X97046359Y-82950000D02*
X97353641Y-82950000D01*
%TO.C,R3*%
X75962500Y-97387258D02*
X75962500Y-96912742D01*
X74917500Y-97387258D02*
X74917500Y-96912742D01*
%TO.C,R21*%
X85272936Y-92722500D02*
X85727064Y-92722500D01*
X85272936Y-94192500D02*
X85727064Y-94192500D01*
%TO.C,U4*%
X126645000Y-86357500D02*
X126645000Y-84617500D01*
X129465000Y-85917500D02*
X129465000Y-84617500D01*
%TO.C,SW4*%
X111550000Y-88917500D02*
X111550000Y-87917500D01*
X109920000Y-88917500D02*
X115220000Y-88917500D01*
X110500000Y-83497500D02*
X112100000Y-83497500D01*
X113590000Y-87387500D02*
X113840000Y-87917500D01*
X113040000Y-82897500D02*
X113040000Y-83497500D01*
X111300000Y-87917500D02*
X113840000Y-87917500D01*
X111300000Y-87917500D02*
X111550000Y-87387500D01*
X110500000Y-82897500D02*
X110500000Y-83497500D01*
X109630000Y-83927500D02*
X109630000Y-87927500D01*
X112100000Y-83497500D02*
X112100000Y-82897500D01*
X114640000Y-83497500D02*
X114640000Y-82897500D01*
X113040000Y-83497500D02*
X114640000Y-83497500D01*
X113840000Y-87917500D02*
X113840000Y-88917500D01*
X111550000Y-87387500D02*
X113590000Y-87387500D01*
X109920000Y-82897500D02*
X109920000Y-88917500D01*
X111300000Y-88917500D02*
X111300000Y-87917500D01*
X115220000Y-82897500D02*
X109920000Y-82897500D01*
X115220000Y-88917500D02*
X115220000Y-82897500D01*
X113590000Y-88917500D02*
X113590000Y-87917500D01*
%TO.C,R17*%
X111230000Y-106053859D02*
X111230000Y-106361141D01*
X110470000Y-106053859D02*
X110470000Y-106361141D01*
D12*
%TO.C,Q5*%
X120655000Y-107005000D02*
X118605000Y-107005000D01*
X118430000Y-108355000D02*
X118430000Y-107355000D01*
X118605000Y-106805000D02*
X120655000Y-106805000D01*
X120655000Y-106805000D02*
X120655000Y-107005000D01*
X118605000Y-107005000D02*
X118605000Y-106805000D01*
D13*
%TO.C,R14*%
X131902500Y-87467258D02*
X131902500Y-86992742D01*
X130857500Y-87467258D02*
X130857500Y-86992742D01*
%TO.C,U7*%
X87920000Y-91597500D02*
X98200000Y-91597500D01*
X98200000Y-91597500D02*
X98200000Y-86297500D01*
X87920000Y-89947500D02*
X87920000Y-91597500D01*
X87920000Y-86297500D02*
X87920000Y-87947500D01*
X98200000Y-86297500D02*
X87920000Y-86297500D01*
X87920000Y-89947500D02*
G75*
G03*
X87920000Y-87947500I0J1000000D01*
G01*
%TO.C,C30*%
X106262164Y-89447500D02*
X106477836Y-89447500D01*
X106262164Y-90167500D02*
X106477836Y-90167500D01*
%TO.C,C29*%
X112707836Y-90167500D02*
X112492164Y-90167500D01*
X112707836Y-89447500D02*
X112492164Y-89447500D01*
%TO.C,F1*%
X103670000Y-113010279D02*
X103670000Y-112684721D01*
X104690000Y-113010279D02*
X104690000Y-112684721D01*
D12*
%TO.C,SW1*%
X79450000Y-121847640D02*
X88050000Y-121847640D01*
X79450000Y-117447640D02*
X88050000Y-117447640D01*
X80809280Y-117057640D02*
G75*
G03*
X80809280Y-117057640I-99280J0D01*
G01*
D13*
%TO.C,C14*%
X113292164Y-94760000D02*
X113507836Y-94760000D01*
X113292164Y-95480000D02*
X113507836Y-95480000D01*
%TO.C,C15*%
X113292164Y-96580000D02*
X113507836Y-96580000D01*
X113292164Y-95860000D02*
X113507836Y-95860000D01*
%TO.C,D2*%
X73260000Y-99107500D02*
X73260000Y-97067500D01*
X74790000Y-100737500D02*
X74790000Y-95437500D01*
X69370000Y-96017500D02*
X68770000Y-96017500D01*
X74790000Y-97067500D02*
X73790000Y-97067500D01*
X73790000Y-99357500D02*
X73790000Y-96817500D01*
X69800000Y-101027500D02*
X73800000Y-101027500D01*
X74790000Y-99357500D02*
X73790000Y-99357500D01*
X74790000Y-99107500D02*
X73790000Y-99107500D01*
X69370000Y-100157500D02*
X69370000Y-98557500D01*
X73790000Y-99357500D02*
X73260000Y-99107500D01*
X68770000Y-100737500D02*
X74790000Y-100737500D01*
X74790000Y-95437500D02*
X68770000Y-95437500D01*
X69370000Y-97617500D02*
X69370000Y-96017500D01*
X68770000Y-95437500D02*
X68770000Y-100737500D01*
X68770000Y-100157500D02*
X69370000Y-100157500D01*
X69370000Y-98557500D02*
X68770000Y-98557500D01*
X73260000Y-97067500D02*
X73790000Y-96817500D01*
X68770000Y-97617500D02*
X69370000Y-97617500D01*
X73790000Y-96817500D02*
X74790000Y-96817500D01*
%TO.C,U3*%
X118629273Y-112232500D02*
X120429273Y-112232500D01*
X118629273Y-109112500D02*
X119429273Y-109112500D01*
X118629273Y-112232500D02*
X117829273Y-112232500D01*
X118629273Y-109112500D02*
X117829273Y-109112500D01*
%TO.C,TP3*%
X88370000Y-116200000D02*
G75*
G03*
X88370000Y-116200000I-700000J0D01*
G01*
%TO.C,C16*%
X108992164Y-105847500D02*
X109207836Y-105847500D01*
X108992164Y-105127500D02*
X109207836Y-105127500D01*
%TO.C,Q4*%
X85130000Y-96537500D02*
X85660000Y-96287500D01*
X81670000Y-100497500D02*
X85670000Y-100497500D01*
X80640000Y-100207500D02*
X86660000Y-100207500D01*
X80640000Y-99627500D02*
X81240000Y-99627500D01*
X86660000Y-94907500D02*
X80640000Y-94907500D01*
X81240000Y-97087500D02*
X81240000Y-95487500D01*
X85660000Y-96287500D02*
X86660000Y-96287500D01*
X85130000Y-98577500D02*
X85130000Y-96537500D01*
X80640000Y-97087500D02*
X81240000Y-97087500D01*
X81240000Y-99627500D02*
X81240000Y-98027500D01*
X81240000Y-95487500D02*
X80640000Y-95487500D01*
X86660000Y-100207500D02*
X86660000Y-94907500D01*
X81240000Y-98027500D02*
X80640000Y-98027500D01*
X86660000Y-98827500D02*
X85660000Y-98827500D01*
X85660000Y-98827500D02*
X85660000Y-96287500D01*
X85660000Y-98827500D02*
X85130000Y-98577500D01*
X86660000Y-98577500D02*
X85660000Y-98577500D01*
X86660000Y-96537500D02*
X85660000Y-96537500D01*
X80640000Y-94907500D02*
X80640000Y-100207500D01*
%TO.C,R20*%
X99285000Y-99584564D02*
X99285000Y-99130436D01*
X97815000Y-99584564D02*
X97815000Y-99130436D01*
%TO.C,SW5*%
X105000000Y-88917500D02*
X105000000Y-87917500D01*
X104200000Y-82897500D02*
X104200000Y-83497500D01*
X108920000Y-82897500D02*
X103620000Y-82897500D01*
X108340000Y-83497500D02*
X108340000Y-82897500D01*
X103330000Y-83927500D02*
X103330000Y-87927500D01*
X103620000Y-82897500D02*
X103620000Y-88917500D01*
X107290000Y-88917500D02*
X107290000Y-87917500D01*
X108920000Y-88917500D02*
X108920000Y-82897500D01*
X107540000Y-87917500D02*
X107540000Y-88917500D01*
X106740000Y-82897500D02*
X106740000Y-83497500D01*
X105250000Y-87387500D02*
X107290000Y-87387500D01*
X106740000Y-83497500D02*
X108340000Y-83497500D01*
X105250000Y-88917500D02*
X105250000Y-87917500D01*
X104200000Y-83497500D02*
X105800000Y-83497500D01*
X105000000Y-87917500D02*
X105250000Y-87387500D01*
X103620000Y-88917500D02*
X108920000Y-88917500D01*
X105000000Y-87917500D02*
X107540000Y-87917500D01*
X107290000Y-87387500D02*
X107540000Y-87917500D01*
X105800000Y-83497500D02*
X105800000Y-82897500D01*
D14*
%TO.C,IC2*%
X104460000Y-102367500D02*
G75*
G03*
X104460000Y-102367500I-125000J0D01*
G01*
D13*
%TO.C,D1*%
X81050000Y-100820000D02*
X81050000Y-109220000D01*
X87550000Y-100820000D02*
X87550000Y-109220000D01*
X81050000Y-100820000D02*
X87550000Y-100820000D01*
%TD*%
M02*
