%TF.GenerationSoftware,KiCad,Pcbnew,(6.0.0)*%
%TF.CreationDate,2023-04-24T11:59:45-05:00*%
%TF.ProjectId,SNAP_Project,534e4150-5f50-4726-9f6a-6563742e6b69,1.0*%
%TF.SameCoordinates,Original*%
%TF.FileFunction,Legend,Bot*%
%TF.FilePolarity,Positive*%
%FSLAX46Y46*%
G04 Gerber Fmt 4.6, Leading zero omitted, Abs format (unit mm)*
G04 Created by KiCad (PCBNEW (6.0.0)) date 2023-04-24 11:59:45*
%MOMM*%
%LPD*%
G01*
G04 APERTURE LIST*
%ADD10C,0.150000*%
%ADD11C,0.300000*%
G04 APERTURE END LIST*
D10*
X102831428Y-80984285D02*
X102831428Y-81746190D01*
X103212380Y-81365238D02*
X102450476Y-81365238D01*
X102212380Y-82698571D02*
X102212380Y-82222380D01*
X102688571Y-82174761D01*
X102640952Y-82222380D01*
X102593333Y-82317619D01*
X102593333Y-82555714D01*
X102640952Y-82650952D01*
X102688571Y-82698571D01*
X102783809Y-82746190D01*
X103021904Y-82746190D01*
X103117142Y-82698571D01*
X103164761Y-82650952D01*
X103212380Y-82555714D01*
X103212380Y-82317619D01*
X103164761Y-82222380D01*
X103117142Y-82174761D01*
X102212380Y-83031904D02*
X103212380Y-83365238D01*
X102212380Y-83698571D01*
X98024761Y-81199523D02*
X98072380Y-81342380D01*
X98072380Y-81580476D01*
X98024761Y-81675714D01*
X97977142Y-81723333D01*
X97881904Y-81770952D01*
X97786666Y-81770952D01*
X97691428Y-81723333D01*
X97643809Y-81675714D01*
X97596190Y-81580476D01*
X97548571Y-81390000D01*
X97500952Y-81294761D01*
X97453333Y-81247142D01*
X97358095Y-81199523D01*
X97262857Y-81199523D01*
X97167619Y-81247142D01*
X97120000Y-81294761D01*
X97072380Y-81390000D01*
X97072380Y-81628095D01*
X97120000Y-81770952D01*
X97977142Y-82770952D02*
X98024761Y-82723333D01*
X98072380Y-82580476D01*
X98072380Y-82485238D01*
X98024761Y-82342380D01*
X97929523Y-82247142D01*
X97834285Y-82199523D01*
X97643809Y-82151904D01*
X97500952Y-82151904D01*
X97310476Y-82199523D01*
X97215238Y-82247142D01*
X97120000Y-82342380D01*
X97072380Y-82485238D01*
X97072380Y-82580476D01*
X97120000Y-82723333D01*
X97167619Y-82770952D01*
X98072380Y-83675714D02*
X98072380Y-83199523D01*
X97072380Y-83199523D01*
X95494761Y-81135714D02*
X95542380Y-81278571D01*
X95542380Y-81516666D01*
X95494761Y-81611904D01*
X95447142Y-81659523D01*
X95351904Y-81707142D01*
X95256666Y-81707142D01*
X95161428Y-81659523D01*
X95113809Y-81611904D01*
X95066190Y-81516666D01*
X95018571Y-81326190D01*
X94970952Y-81230952D01*
X94923333Y-81183333D01*
X94828095Y-81135714D01*
X94732857Y-81135714D01*
X94637619Y-81183333D01*
X94590000Y-81230952D01*
X94542380Y-81326190D01*
X94542380Y-81564285D01*
X94590000Y-81707142D01*
X95542380Y-82135714D02*
X94542380Y-82135714D01*
X94542380Y-82373809D01*
X94590000Y-82516666D01*
X94685238Y-82611904D01*
X94780476Y-82659523D01*
X94970952Y-82707142D01*
X95113809Y-82707142D01*
X95304285Y-82659523D01*
X95399523Y-82611904D01*
X95494761Y-82516666D01*
X95542380Y-82373809D01*
X95542380Y-82135714D01*
X95256666Y-83088095D02*
X95256666Y-83564285D01*
X95542380Y-82992857D02*
X94542380Y-83326190D01*
X95542380Y-83659523D01*
X109737142Y-81374761D02*
X109784761Y-81327142D01*
X109832380Y-81184285D01*
X109832380Y-81089047D01*
X109784761Y-80946190D01*
X109689523Y-80850952D01*
X109594285Y-80803333D01*
X109403809Y-80755714D01*
X109260952Y-80755714D01*
X109070476Y-80803333D01*
X108975238Y-80850952D01*
X108880000Y-80946190D01*
X108832380Y-81089047D01*
X108832380Y-81184285D01*
X108880000Y-81327142D01*
X108927619Y-81374761D01*
X109832380Y-82279523D02*
X109832380Y-81803333D01*
X108832380Y-81803333D01*
X109832380Y-82612857D02*
X108832380Y-82612857D01*
X109832380Y-83184285D02*
X109260952Y-82755714D01*
X108832380Y-83184285D02*
X109403809Y-82612857D01*
X120645833Y-117193166D02*
X120645833Y-117759833D01*
X120612500Y-117826500D01*
X120579166Y-117859833D01*
X120512500Y-117893166D01*
X120379166Y-117893166D01*
X120312500Y-117859833D01*
X120279166Y-117826500D01*
X120245833Y-117759833D01*
X120245833Y-117193166D01*
X119912500Y-117426500D02*
X119912500Y-117893166D01*
X119912500Y-117493166D02*
X119879166Y-117459833D01*
X119812500Y-117426500D01*
X119712500Y-117426500D01*
X119645833Y-117459833D01*
X119612500Y-117526500D01*
X119612500Y-117893166D01*
X119279166Y-117893166D02*
X119279166Y-117426500D01*
X119279166Y-117193166D02*
X119312500Y-117226500D01*
X119279166Y-117259833D01*
X119245833Y-117226500D01*
X119279166Y-117193166D01*
X119279166Y-117259833D01*
X119012500Y-117426500D02*
X118845833Y-117893166D01*
X118679166Y-117426500D01*
X118145833Y-117859833D02*
X118212500Y-117893166D01*
X118345833Y-117893166D01*
X118412500Y-117859833D01*
X118445833Y-117793166D01*
X118445833Y-117526500D01*
X118412500Y-117459833D01*
X118345833Y-117426500D01*
X118212500Y-117426500D01*
X118145833Y-117459833D01*
X118112500Y-117526500D01*
X118112500Y-117593166D01*
X118445833Y-117659833D01*
X117812500Y-117893166D02*
X117812500Y-117426500D01*
X117812500Y-117559833D02*
X117779166Y-117493166D01*
X117745833Y-117459833D01*
X117679166Y-117426500D01*
X117612500Y-117426500D01*
X117412500Y-117859833D02*
X117345833Y-117893166D01*
X117212500Y-117893166D01*
X117145833Y-117859833D01*
X117112500Y-117793166D01*
X117112500Y-117759833D01*
X117145833Y-117693166D01*
X117212500Y-117659833D01*
X117312500Y-117659833D01*
X117379166Y-117626500D01*
X117412500Y-117559833D01*
X117412500Y-117526500D01*
X117379166Y-117459833D01*
X117312500Y-117426500D01*
X117212500Y-117426500D01*
X117145833Y-117459833D01*
X116812500Y-117893166D02*
X116812500Y-117426500D01*
X116812500Y-117193166D02*
X116845833Y-117226500D01*
X116812500Y-117259833D01*
X116779166Y-117226500D01*
X116812500Y-117193166D01*
X116812500Y-117259833D01*
X116179166Y-117893166D02*
X116179166Y-117193166D01*
X116179166Y-117859833D02*
X116245833Y-117893166D01*
X116379166Y-117893166D01*
X116445833Y-117859833D01*
X116479166Y-117826500D01*
X116512500Y-117759833D01*
X116512500Y-117559833D01*
X116479166Y-117493166D01*
X116445833Y-117459833D01*
X116379166Y-117426500D01*
X116245833Y-117426500D01*
X116179166Y-117459833D01*
X115545833Y-117893166D02*
X115545833Y-117526500D01*
X115579166Y-117459833D01*
X115645833Y-117426500D01*
X115779166Y-117426500D01*
X115845833Y-117459833D01*
X115545833Y-117859833D02*
X115612500Y-117893166D01*
X115779166Y-117893166D01*
X115845833Y-117859833D01*
X115879166Y-117793166D01*
X115879166Y-117726500D01*
X115845833Y-117659833D01*
X115779166Y-117626500D01*
X115612500Y-117626500D01*
X115545833Y-117593166D01*
X114912500Y-117893166D02*
X114912500Y-117193166D01*
X114912500Y-117859833D02*
X114979166Y-117893166D01*
X115112500Y-117893166D01*
X115179166Y-117859833D01*
X115212500Y-117826500D01*
X115245833Y-117759833D01*
X115245833Y-117559833D01*
X115212500Y-117493166D01*
X115179166Y-117459833D01*
X115112500Y-117426500D01*
X114979166Y-117426500D01*
X114912500Y-117459833D01*
X113745833Y-117893166D02*
X113745833Y-117193166D01*
X113745833Y-117859833D02*
X113812500Y-117893166D01*
X113945833Y-117893166D01*
X114012500Y-117859833D01*
X114045833Y-117826500D01*
X114079166Y-117759833D01*
X114079166Y-117559833D01*
X114045833Y-117493166D01*
X114012500Y-117459833D01*
X113945833Y-117426500D01*
X113812500Y-117426500D01*
X113745833Y-117459833D01*
X113145833Y-117859833D02*
X113212500Y-117893166D01*
X113345833Y-117893166D01*
X113412500Y-117859833D01*
X113445833Y-117793166D01*
X113445833Y-117526500D01*
X113412500Y-117459833D01*
X113345833Y-117426500D01*
X113212500Y-117426500D01*
X113145833Y-117459833D01*
X113112500Y-117526500D01*
X113112500Y-117593166D01*
X113445833Y-117659833D01*
X112279166Y-117893166D02*
X112279166Y-117193166D01*
X111945833Y-117426500D02*
X111945833Y-117893166D01*
X111945833Y-117493166D02*
X111912500Y-117459833D01*
X111845833Y-117426500D01*
X111745833Y-117426500D01*
X111679166Y-117459833D01*
X111645833Y-117526500D01*
X111645833Y-117893166D01*
X111012500Y-117426500D02*
X111012500Y-117993166D01*
X111045833Y-118059833D01*
X111079166Y-118093166D01*
X111145833Y-118126500D01*
X111245833Y-118126500D01*
X111312500Y-118093166D01*
X111012500Y-117859833D02*
X111079166Y-117893166D01*
X111212500Y-117893166D01*
X111279166Y-117859833D01*
X111312500Y-117826500D01*
X111345833Y-117759833D01*
X111345833Y-117559833D01*
X111312500Y-117493166D01*
X111279166Y-117459833D01*
X111212500Y-117426500D01*
X111079166Y-117426500D01*
X111012500Y-117459833D01*
X110412500Y-117859833D02*
X110479166Y-117893166D01*
X110612500Y-117893166D01*
X110679166Y-117859833D01*
X110712500Y-117793166D01*
X110712500Y-117526500D01*
X110679166Y-117459833D01*
X110612500Y-117426500D01*
X110479166Y-117426500D01*
X110412500Y-117459833D01*
X110379166Y-117526500D01*
X110379166Y-117593166D01*
X110712500Y-117659833D01*
X110079166Y-117426500D02*
X110079166Y-117893166D01*
X110079166Y-117493166D02*
X110045833Y-117459833D01*
X109979166Y-117426500D01*
X109879166Y-117426500D01*
X109812500Y-117459833D01*
X109779166Y-117526500D01*
X109779166Y-117893166D01*
X109445833Y-117893166D02*
X109445833Y-117426500D01*
X109445833Y-117193166D02*
X109479166Y-117226500D01*
X109445833Y-117259833D01*
X109412500Y-117226500D01*
X109445833Y-117193166D01*
X109445833Y-117259833D01*
X108845833Y-117859833D02*
X108912500Y-117893166D01*
X109045833Y-117893166D01*
X109112500Y-117859833D01*
X109145833Y-117793166D01*
X109145833Y-117526500D01*
X109112500Y-117459833D01*
X109045833Y-117426500D01*
X108912500Y-117426500D01*
X108845833Y-117459833D01*
X108812500Y-117526500D01*
X108812500Y-117593166D01*
X109145833Y-117659833D01*
X108512500Y-117893166D02*
X108512500Y-117426500D01*
X108512500Y-117559833D02*
X108479166Y-117493166D01*
X108445833Y-117459833D01*
X108379166Y-117426500D01*
X108312500Y-117426500D01*
X108079166Y-117893166D02*
X108079166Y-117426500D01*
X108012500Y-117159833D02*
X108112500Y-117259833D01*
X107445833Y-117893166D02*
X107445833Y-117526500D01*
X107479166Y-117459833D01*
X107545833Y-117426500D01*
X107679166Y-117426500D01*
X107745833Y-117459833D01*
X107445833Y-117859833D02*
X107512500Y-117893166D01*
X107679166Y-117893166D01*
X107745833Y-117859833D01*
X107779166Y-117793166D01*
X107779166Y-117726500D01*
X107745833Y-117659833D01*
X107679166Y-117626500D01*
X107512500Y-117626500D01*
X107445833Y-117593166D01*
X120712500Y-118553500D02*
X120545833Y-119020166D01*
X120379166Y-118553500D02*
X120545833Y-119020166D01*
X120612500Y-119186833D01*
X120645833Y-119220166D01*
X120712500Y-119253500D01*
X119679166Y-118320166D02*
X119279166Y-118320166D01*
X119479166Y-119020166D02*
X119479166Y-118320166D01*
X118779166Y-118986833D02*
X118845833Y-119020166D01*
X118979166Y-119020166D01*
X119045833Y-118986833D01*
X119079166Y-118920166D01*
X119079166Y-118653500D01*
X119045833Y-118586833D01*
X118979166Y-118553500D01*
X118845833Y-118553500D01*
X118779166Y-118586833D01*
X118745833Y-118653500D01*
X118745833Y-118720166D01*
X119079166Y-118786833D01*
X118145833Y-118986833D02*
X118212500Y-119020166D01*
X118345833Y-119020166D01*
X118412500Y-118986833D01*
X118445833Y-118953500D01*
X118479166Y-118886833D01*
X118479166Y-118686833D01*
X118445833Y-118620166D01*
X118412500Y-118586833D01*
X118345833Y-118553500D01*
X118212500Y-118553500D01*
X118145833Y-118586833D01*
X117845833Y-118553500D02*
X117845833Y-119020166D01*
X117845833Y-118620166D02*
X117812500Y-118586833D01*
X117745833Y-118553500D01*
X117645833Y-118553500D01*
X117579166Y-118586833D01*
X117545833Y-118653500D01*
X117545833Y-119020166D01*
X117112500Y-119020166D02*
X117179166Y-118986833D01*
X117212500Y-118953500D01*
X117245833Y-118886833D01*
X117245833Y-118686833D01*
X117212500Y-118620166D01*
X117179166Y-118586833D01*
X117112500Y-118553500D01*
X117012500Y-118553500D01*
X116945833Y-118586833D01*
X116912500Y-118620166D01*
X116879166Y-118686833D01*
X116879166Y-118886833D01*
X116912500Y-118953500D01*
X116945833Y-118986833D01*
X117012500Y-119020166D01*
X117112500Y-119020166D01*
X116479166Y-119020166D02*
X116545833Y-118986833D01*
X116579166Y-118920166D01*
X116579166Y-118320166D01*
X116112500Y-119020166D02*
X116179166Y-118986833D01*
X116212500Y-118953500D01*
X116245833Y-118886833D01*
X116245833Y-118686833D01*
X116212500Y-118620166D01*
X116179166Y-118586833D01*
X116112500Y-118553500D01*
X116012500Y-118553500D01*
X115945833Y-118586833D01*
X115912500Y-118620166D01*
X115879166Y-118686833D01*
X115879166Y-118886833D01*
X115912500Y-118953500D01*
X115945833Y-118986833D01*
X116012500Y-119020166D01*
X116112500Y-119020166D01*
X115279166Y-118553500D02*
X115279166Y-119120166D01*
X115312500Y-119186833D01*
X115345833Y-119220166D01*
X115412500Y-119253500D01*
X115512500Y-119253500D01*
X115579166Y-119220166D01*
X115279166Y-118986833D02*
X115345833Y-119020166D01*
X115479166Y-119020166D01*
X115545833Y-118986833D01*
X115579166Y-118953500D01*
X115612500Y-118886833D01*
X115612500Y-118686833D01*
X115579166Y-118620166D01*
X115545833Y-118586833D01*
X115479166Y-118553500D01*
X115345833Y-118553500D01*
X115279166Y-118586833D01*
X114945833Y-119020166D02*
X114945833Y-118553500D01*
X114879166Y-118286833D02*
X114979166Y-118386833D01*
X114312500Y-119020166D02*
X114312500Y-118653500D01*
X114345833Y-118586833D01*
X114412500Y-118553500D01*
X114545833Y-118553500D01*
X114612500Y-118586833D01*
X114312500Y-118986833D02*
X114379166Y-119020166D01*
X114545833Y-119020166D01*
X114612500Y-118986833D01*
X114645833Y-118920166D01*
X114645833Y-118853500D01*
X114612500Y-118786833D01*
X114545833Y-118753500D01*
X114379166Y-118753500D01*
X114312500Y-118720166D01*
X114060000Y-81328095D02*
X114012380Y-81232857D01*
X114012380Y-81090000D01*
X114060000Y-80947142D01*
X114155238Y-80851904D01*
X114250476Y-80804285D01*
X114440952Y-80756666D01*
X114583809Y-80756666D01*
X114774285Y-80804285D01*
X114869523Y-80851904D01*
X114964761Y-80947142D01*
X115012380Y-81090000D01*
X115012380Y-81185238D01*
X114964761Y-81328095D01*
X114917142Y-81375714D01*
X114583809Y-81375714D01*
X114583809Y-81185238D01*
X115012380Y-81804285D02*
X114012380Y-81804285D01*
X115012380Y-82375714D01*
X114012380Y-82375714D01*
X115012380Y-82851904D02*
X114012380Y-82851904D01*
X114012380Y-83090000D01*
X114060000Y-83232857D01*
X114155238Y-83328095D01*
X114250476Y-83375714D01*
X114440952Y-83423333D01*
X114583809Y-83423333D01*
X114774285Y-83375714D01*
X114869523Y-83328095D01*
X114964761Y-83232857D01*
X115012380Y-83090000D01*
X115012380Y-82851904D01*
X112382380Y-80786190D02*
X111382380Y-80786190D01*
X111382380Y-81024285D01*
X111430000Y-81167142D01*
X111525238Y-81262380D01*
X111620476Y-81310000D01*
X111810952Y-81357619D01*
X111953809Y-81357619D01*
X112144285Y-81310000D01*
X112239523Y-81262380D01*
X112334761Y-81167142D01*
X112382380Y-81024285D01*
X112382380Y-80786190D01*
X112382380Y-81786190D02*
X111382380Y-81786190D01*
X111382380Y-82452857D02*
X111382380Y-82643333D01*
X111430000Y-82738571D01*
X111525238Y-82833809D01*
X111715714Y-82881428D01*
X112049047Y-82881428D01*
X112239523Y-82833809D01*
X112334761Y-82738571D01*
X112382380Y-82643333D01*
X112382380Y-82452857D01*
X112334761Y-82357619D01*
X112239523Y-82262380D01*
X112049047Y-82214761D01*
X111715714Y-82214761D01*
X111525238Y-82262380D01*
X111430000Y-82357619D01*
X111382380Y-82452857D01*
D11*
X104725714Y-114128571D02*
X104725714Y-112628571D01*
X104225714Y-113700000D01*
X103725714Y-112628571D01*
X103725714Y-114128571D01*
X103082857Y-113700000D02*
X102368571Y-113700000D01*
X103225714Y-114128571D02*
X102725714Y-112628571D01*
X102225714Y-114128571D01*
X101868571Y-112628571D02*
X100868571Y-114128571D01*
X100868571Y-112628571D02*
X101868571Y-114128571D01*
X98440000Y-112628571D02*
X99154285Y-112628571D01*
X99225714Y-113342857D01*
X99154285Y-113271428D01*
X99011428Y-113200000D01*
X98654285Y-113200000D01*
X98511428Y-113271428D01*
X98440000Y-113342857D01*
X98368571Y-113485714D01*
X98368571Y-113842857D01*
X98440000Y-113985714D01*
X98511428Y-114057142D01*
X98654285Y-114128571D01*
X99011428Y-114128571D01*
X99154285Y-114057142D01*
X99225714Y-113985714D01*
X97940000Y-112628571D02*
X97440000Y-114128571D01*
X96940000Y-112628571D01*
D10*
X99600000Y-81568095D02*
X99552380Y-81472857D01*
X99552380Y-81330000D01*
X99600000Y-81187142D01*
X99695238Y-81091904D01*
X99790476Y-81044285D01*
X99980952Y-80996666D01*
X100123809Y-80996666D01*
X100314285Y-81044285D01*
X100409523Y-81091904D01*
X100504761Y-81187142D01*
X100552380Y-81330000D01*
X100552380Y-81425238D01*
X100504761Y-81568095D01*
X100457142Y-81615714D01*
X100123809Y-81615714D01*
X100123809Y-81425238D01*
X100552380Y-82044285D02*
X99552380Y-82044285D01*
X100552380Y-82615714D01*
X99552380Y-82615714D01*
X100552380Y-83091904D02*
X99552380Y-83091904D01*
X99552380Y-83330000D01*
X99600000Y-83472857D01*
X99695238Y-83568095D01*
X99790476Y-83615714D01*
X99980952Y-83663333D01*
X100123809Y-83663333D01*
X100314285Y-83615714D01*
X100409523Y-83568095D01*
X100504761Y-83472857D01*
X100552380Y-83330000D01*
X100552380Y-83091904D01*
%TO.C,G\u002A\u002A\u002A*%
G36*
X119016544Y-113488526D02*
G01*
X119281938Y-113496130D01*
X119429740Y-113524631D01*
X119499811Y-113587444D01*
X119532009Y-113697990D01*
X119549695Y-113856495D01*
X119494421Y-113968242D01*
X119320732Y-113996313D01*
X119289705Y-113997546D01*
X119229575Y-114021252D01*
X119193366Y-114097705D01*
X119176919Y-114256014D01*
X119176075Y-114525284D01*
X119186676Y-114934624D01*
X119203202Y-115321323D01*
X119240744Y-115674696D01*
X119310678Y-115904907D01*
X119427692Y-116037597D01*
X119606475Y-116098407D01*
X119861715Y-116112980D01*
X119986139Y-116107501D01*
X120179767Y-116055287D01*
X120311333Y-115928526D01*
X120391771Y-115703768D01*
X120432016Y-115357567D01*
X120443000Y-114866474D01*
X120442955Y-114784241D01*
X120439677Y-114419924D01*
X120426995Y-114189222D01*
X120399024Y-114061884D01*
X120349877Y-114007664D01*
X120273667Y-113996313D01*
X120229956Y-113993692D01*
X120130944Y-113928233D01*
X120104334Y-113742313D01*
X120104334Y-113488313D01*
X121289667Y-113488313D01*
X121289667Y-113742313D01*
X121287920Y-113807880D01*
X121244281Y-113956397D01*
X121120334Y-113996313D01*
X121087427Y-113997548D01*
X121024215Y-114021020D01*
X120984254Y-114096977D01*
X120962255Y-114254629D01*
X120952933Y-114523184D01*
X120951000Y-114931851D01*
X120950390Y-115067283D01*
X120930908Y-115567461D01*
X120877111Y-115933549D01*
X120779652Y-116192994D01*
X120629182Y-116373244D01*
X120416355Y-116501748D01*
X120335023Y-116533128D01*
X120006998Y-116593730D01*
X119644621Y-116588923D01*
X119313180Y-116523550D01*
X119077961Y-116402456D01*
X119000984Y-116327228D01*
X118841486Y-116096586D01*
X118737880Y-115793736D01*
X118681831Y-115387250D01*
X118665000Y-114845699D01*
X118664984Y-114796052D01*
X118662024Y-114426541D01*
X118649714Y-114192413D01*
X118621951Y-114063067D01*
X118572636Y-114007901D01*
X118495667Y-113996313D01*
X118451956Y-113993692D01*
X118352944Y-113928233D01*
X118326334Y-113742313D01*
X118326334Y-113488313D01*
X118909130Y-113488313D01*
X119016544Y-113488526D01*
G37*
G36*
X115178124Y-113721146D02*
G01*
X115118671Y-113899798D01*
X114960834Y-113981035D01*
X114884656Y-113997846D01*
X114830115Y-114042375D01*
X114796432Y-114142466D01*
X114778587Y-114326561D01*
X114771561Y-114623104D01*
X114770334Y-115060535D01*
X114770334Y-116112980D01*
X114982000Y-116112980D01*
X115021007Y-116113873D01*
X115158698Y-116163524D01*
X115193667Y-116324646D01*
X115193667Y-116536313D01*
X112907667Y-116536313D01*
X112907667Y-116112980D01*
X112909672Y-115943086D01*
X112931042Y-115773417D01*
X112993712Y-115703371D01*
X113119334Y-115689646D01*
X113158341Y-115690540D01*
X113296031Y-115740191D01*
X113331000Y-115901313D01*
X113338629Y-116007023D01*
X113391103Y-116078445D01*
X113529970Y-116107485D01*
X113796667Y-116112980D01*
X114262334Y-116112980D01*
X114262334Y-115275162D01*
X113817834Y-115249571D01*
X113631077Y-115236325D01*
X113459767Y-115203888D01*
X113387912Y-115136722D01*
X113373334Y-115012313D01*
X113378571Y-114923080D01*
X113425977Y-114838774D01*
X113558338Y-114796937D01*
X113817834Y-114775055D01*
X114262334Y-114749464D01*
X114262334Y-113902797D01*
X113817834Y-113928388D01*
X113693874Y-113936733D01*
X113485219Y-113968043D01*
X113384056Y-114030554D01*
X113346279Y-114144480D01*
X113285341Y-114285353D01*
X113113445Y-114334980D01*
X113034436Y-114331166D01*
X112950013Y-114288523D01*
X112914754Y-114163080D01*
X112907667Y-113911646D01*
X112907667Y-113488313D01*
X115204915Y-113488313D01*
X115178124Y-113721146D01*
G37*
G36*
X111458337Y-113544656D02*
G01*
X111872203Y-113753490D01*
X112195653Y-114073759D01*
X112406595Y-114489721D01*
X112482941Y-114985634D01*
X112447590Y-115424035D01*
X112296993Y-115858800D01*
X112016928Y-116199302D01*
X111595334Y-116465656D01*
X111354183Y-116551111D01*
X110888901Y-116604355D01*
X110414966Y-116545014D01*
X110002901Y-116377012D01*
X109995999Y-116372738D01*
X109797637Y-116227969D01*
X109710023Y-116078386D01*
X109690334Y-115852074D01*
X109690678Y-115784161D01*
X109709044Y-115604854D01*
X109783874Y-115533267D01*
X109954209Y-115520313D01*
X110078964Y-115525595D01*
X110178291Y-115571406D01*
X110173636Y-115690281D01*
X110172629Y-115812313D01*
X110292868Y-115970302D01*
X110541636Y-116075048D01*
X110895749Y-116112980D01*
X111161016Y-116095303D01*
X111378428Y-116013732D01*
X111607476Y-115832561D01*
X111764736Y-115655364D01*
X111932817Y-115299565D01*
X111966647Y-114920809D01*
X111872198Y-114556942D01*
X111655439Y-114245809D01*
X111322342Y-114025254D01*
X111041811Y-113948304D01*
X110715453Y-113946825D01*
X110432695Y-114030241D01*
X110233277Y-114185753D01*
X110156941Y-114400562D01*
X110112175Y-114504096D01*
X109923167Y-114573437D01*
X109880383Y-114577980D01*
X109752012Y-114569673D01*
X109700056Y-114481594D01*
X109690334Y-114269059D01*
X109708433Y-114073900D01*
X109820823Y-113834736D01*
X110055856Y-113660055D01*
X110436336Y-113527180D01*
X110447715Y-113524261D01*
X110976144Y-113462999D01*
X111458337Y-113544656D01*
G37*
G36*
X118085329Y-113911699D02*
G01*
X118096822Y-114114323D01*
X118084178Y-114265895D01*
X118021230Y-114325001D01*
X117887722Y-114335032D01*
X117876858Y-114334964D01*
X117701759Y-114291587D01*
X117633722Y-114144480D01*
X117624629Y-114098452D01*
X117537161Y-113978061D01*
X117331500Y-113927448D01*
X117056334Y-113900917D01*
X117056334Y-115006948D01*
X117057531Y-115431825D01*
X117064040Y-115748831D01*
X117079987Y-115948528D01*
X117109492Y-116057837D01*
X117156679Y-116103681D01*
X117225667Y-116112980D01*
X117355314Y-116158665D01*
X117395000Y-116324646D01*
X117392666Y-116398991D01*
X117363652Y-116476903D01*
X117272316Y-116517835D01*
X117082988Y-116533675D01*
X116760000Y-116536313D01*
X116536967Y-116535535D01*
X116303229Y-116525863D01*
X116180434Y-116495418D01*
X116132914Y-116432309D01*
X116125000Y-116324646D01*
X116126094Y-116281706D01*
X116176793Y-116147003D01*
X116339197Y-116112980D01*
X116553393Y-116112980D01*
X116529697Y-115033480D01*
X116506000Y-113953980D01*
X116230834Y-113927448D01*
X116069086Y-113920917D01*
X115975478Y-113970654D01*
X115955667Y-114117948D01*
X115949310Y-114215552D01*
X115882897Y-114312499D01*
X115701667Y-114334980D01*
X115576236Y-114330226D01*
X115487337Y-114287216D01*
X115453216Y-114162249D01*
X115447667Y-113911646D01*
X115447667Y-113488313D01*
X118055991Y-113488313D01*
X118085329Y-113911699D01*
G37*
%TD*%
M02*
