%FSLAX45Y45*%
G04 Gerber Fmt 4.5, Leading zero omitted, Abs format (unit mm)*
G04 Created by KiCad (PCBNEW (6.0.0)) date 2023-04-24 11:59:40*
%MOMM*%
%LPD*%
G01*
G04 APERTURE LIST*
%TA.AperFunction,Profile*%
%ADD10C,0.100000*%
%TD*%
%ADD11C,0.200000*%
%ADD12C,0.065000*%
G04 APERTURE END LIST*
D10*
X6680000Y-11905750D02*
X6690000Y-7785750D01*
X13049868Y-12195868D02*
G75*
G03*
X13349868Y-11895868I0J300000D01*
G01*
X13049868Y-12195868D02*
X6980000Y-12205750D01*
X6990000Y-7485750D02*
G75*
G03*
X6690000Y-7785750I0J-300000D01*
G01*
X13349868Y-11895868D02*
X13350000Y-7781000D01*
X6680000Y-11905750D02*
G75*
G03*
X6980000Y-12205750I300000J0D01*
G01*
X13350000Y-7781000D02*
G75*
G03*
X13050000Y-7481000I-300000J0D01*
G01*
X13050000Y-7481000D02*
X6990000Y-7485750D01*
D11*
D12*
X9762427Y-11669250D02*
X9827427Y-11734250D01*
X9827427Y-11669250D02*
X9762427Y-11734250D01*
X10340427Y-11669250D02*
X10405427Y-11734250D01*
X10405427Y-11669250D02*
X10340427Y-11734250D01*
D11*
X6932619Y-12521226D02*
X6932619Y-12321226D01*
X6980238Y-12321226D01*
X7008809Y-12330750D01*
X7027857Y-12349798D01*
X7037381Y-12368845D01*
X7046905Y-12406940D01*
X7046905Y-12435512D01*
X7037381Y-12473607D01*
X7027857Y-12492655D01*
X7008809Y-12511702D01*
X6980238Y-12521226D01*
X6932619Y-12521226D01*
X7132619Y-12521226D02*
X7132619Y-12387893D01*
X7132619Y-12425988D02*
X7142143Y-12406940D01*
X7151667Y-12397417D01*
X7170714Y-12387893D01*
X7189762Y-12387893D01*
X7256428Y-12521226D02*
X7256428Y-12387893D01*
X7256428Y-12321226D02*
X7246905Y-12330750D01*
X7256428Y-12340274D01*
X7265952Y-12330750D01*
X7256428Y-12321226D01*
X7256428Y-12340274D01*
X7380238Y-12521226D02*
X7361190Y-12511702D01*
X7351667Y-12492655D01*
X7351667Y-12321226D01*
X7485000Y-12521226D02*
X7465952Y-12511702D01*
X7456428Y-12492655D01*
X7456428Y-12321226D01*
X7713571Y-12521226D02*
X7713571Y-12321226D01*
X7780238Y-12464083D01*
X7846905Y-12321226D01*
X7846905Y-12521226D01*
X8027857Y-12521226D02*
X8027857Y-12416464D01*
X8018333Y-12397417D01*
X7999286Y-12387893D01*
X7961190Y-12387893D01*
X7942143Y-12397417D01*
X8027857Y-12511702D02*
X8008809Y-12521226D01*
X7961190Y-12521226D01*
X7942143Y-12511702D01*
X7932619Y-12492655D01*
X7932619Y-12473607D01*
X7942143Y-12454559D01*
X7961190Y-12445036D01*
X8008809Y-12445036D01*
X8027857Y-12435512D01*
X8123095Y-12387893D02*
X8123095Y-12587893D01*
X8123095Y-12397417D02*
X8142143Y-12387893D01*
X8180238Y-12387893D01*
X8199286Y-12397417D01*
X8208809Y-12406940D01*
X8218333Y-12425988D01*
X8218333Y-12483131D01*
X8208809Y-12502178D01*
X8199286Y-12511702D01*
X8180238Y-12521226D01*
X8142143Y-12521226D01*
X8123095Y-12511702D01*
X8304048Y-12502178D02*
X8313571Y-12511702D01*
X8304048Y-12521226D01*
X8294524Y-12511702D01*
X8304048Y-12502178D01*
X8304048Y-12521226D01*
X8304048Y-12397417D02*
X8313571Y-12406940D01*
X8304048Y-12416464D01*
X8294524Y-12406940D01*
X8304048Y-12397417D01*
X8304048Y-12416464D01*
D12*
X6610000Y-12818250D02*
X6675000Y-12883250D01*
X6675000Y-12818250D02*
X6610000Y-12883250D01*
D11*
X6970714Y-12741226D02*
X6989762Y-12741226D01*
X7008809Y-12750750D01*
X7018333Y-12760274D01*
X7027857Y-12779321D01*
X7037381Y-12817417D01*
X7037381Y-12865036D01*
X7027857Y-12903131D01*
X7018333Y-12922178D01*
X7008809Y-12931702D01*
X6989762Y-12941226D01*
X6970714Y-12941226D01*
X6951667Y-12931702D01*
X6942143Y-12922178D01*
X6932619Y-12903131D01*
X6923095Y-12865036D01*
X6923095Y-12817417D01*
X6932619Y-12779321D01*
X6942143Y-12760274D01*
X6951667Y-12750750D01*
X6970714Y-12741226D01*
X7123095Y-12922178D02*
X7132619Y-12931702D01*
X7123095Y-12941226D01*
X7113571Y-12931702D01*
X7123095Y-12922178D01*
X7123095Y-12941226D01*
X7304048Y-12741226D02*
X7265952Y-12741226D01*
X7246905Y-12750750D01*
X7237381Y-12760274D01*
X7218333Y-12788845D01*
X7208809Y-12826940D01*
X7208809Y-12903131D01*
X7218333Y-12922178D01*
X7227857Y-12931702D01*
X7246905Y-12941226D01*
X7285000Y-12941226D01*
X7304048Y-12931702D01*
X7313571Y-12922178D01*
X7323095Y-12903131D01*
X7323095Y-12855512D01*
X7313571Y-12836464D01*
X7304048Y-12826940D01*
X7285000Y-12817417D01*
X7246905Y-12817417D01*
X7227857Y-12826940D01*
X7218333Y-12836464D01*
X7208809Y-12855512D01*
X7504048Y-12741226D02*
X7408809Y-12741226D01*
X7399286Y-12836464D01*
X7408809Y-12826940D01*
X7427857Y-12817417D01*
X7475476Y-12817417D01*
X7494524Y-12826940D01*
X7504048Y-12836464D01*
X7513571Y-12855512D01*
X7513571Y-12903131D01*
X7504048Y-12922178D01*
X7494524Y-12931702D01*
X7475476Y-12941226D01*
X7427857Y-12941226D01*
X7408809Y-12931702D01*
X7399286Y-12922178D01*
X7637381Y-12741226D02*
X7656428Y-12741226D01*
X7675476Y-12750750D01*
X7685000Y-12760274D01*
X7694524Y-12779321D01*
X7704048Y-12817417D01*
X7704048Y-12865036D01*
X7694524Y-12903131D01*
X7685000Y-12922178D01*
X7675476Y-12931702D01*
X7656428Y-12941226D01*
X7637381Y-12941226D01*
X7618333Y-12931702D01*
X7608809Y-12922178D01*
X7599286Y-12903131D01*
X7589762Y-12865036D01*
X7589762Y-12817417D01*
X7599286Y-12779321D01*
X7608809Y-12760274D01*
X7618333Y-12750750D01*
X7637381Y-12741226D01*
X7789762Y-12941226D02*
X7789762Y-12807893D01*
X7789762Y-12826940D02*
X7799286Y-12817417D01*
X7818333Y-12807893D01*
X7846905Y-12807893D01*
X7865952Y-12817417D01*
X7875476Y-12836464D01*
X7875476Y-12941226D01*
X7875476Y-12836464D02*
X7885000Y-12817417D01*
X7904048Y-12807893D01*
X7932619Y-12807893D01*
X7951667Y-12817417D01*
X7961190Y-12836464D01*
X7961190Y-12941226D01*
X8056428Y-12941226D02*
X8056428Y-12807893D01*
X8056428Y-12826940D02*
X8065952Y-12817417D01*
X8085000Y-12807893D01*
X8113571Y-12807893D01*
X8132619Y-12817417D01*
X8142143Y-12836464D01*
X8142143Y-12941226D01*
X8142143Y-12836464D02*
X8151667Y-12817417D01*
X8170714Y-12807893D01*
X8199286Y-12807893D01*
X8218333Y-12817417D01*
X8227857Y-12836464D01*
X8227857Y-12941226D01*
X8618333Y-12731702D02*
X8446905Y-12988845D01*
X8875476Y-12741226D02*
X8894524Y-12741226D01*
X8913571Y-12750750D01*
X8923095Y-12760274D01*
X8932619Y-12779321D01*
X8942143Y-12817417D01*
X8942143Y-12865036D01*
X8932619Y-12903131D01*
X8923095Y-12922178D01*
X8913571Y-12931702D01*
X8894524Y-12941226D01*
X8875476Y-12941226D01*
X8856429Y-12931702D01*
X8846905Y-12922178D01*
X8837381Y-12903131D01*
X8827857Y-12865036D01*
X8827857Y-12817417D01*
X8837381Y-12779321D01*
X8846905Y-12760274D01*
X8856429Y-12750750D01*
X8875476Y-12741226D01*
X9027857Y-12922178D02*
X9037381Y-12931702D01*
X9027857Y-12941226D01*
X9018333Y-12931702D01*
X9027857Y-12922178D01*
X9027857Y-12941226D01*
X9161190Y-12741226D02*
X9180238Y-12741226D01*
X9199286Y-12750750D01*
X9208810Y-12760274D01*
X9218333Y-12779321D01*
X9227857Y-12817417D01*
X9227857Y-12865036D01*
X9218333Y-12903131D01*
X9208810Y-12922178D01*
X9199286Y-12931702D01*
X9180238Y-12941226D01*
X9161190Y-12941226D01*
X9142143Y-12931702D01*
X9132619Y-12922178D01*
X9123095Y-12903131D01*
X9113571Y-12865036D01*
X9113571Y-12817417D01*
X9123095Y-12779321D01*
X9132619Y-12760274D01*
X9142143Y-12750750D01*
X9161190Y-12741226D01*
X9304048Y-12760274D02*
X9313571Y-12750750D01*
X9332619Y-12741226D01*
X9380238Y-12741226D01*
X9399286Y-12750750D01*
X9408810Y-12760274D01*
X9418333Y-12779321D01*
X9418333Y-12798369D01*
X9408810Y-12826940D01*
X9294524Y-12941226D01*
X9418333Y-12941226D01*
X9599286Y-12741226D02*
X9504048Y-12741226D01*
X9494524Y-12836464D01*
X9504048Y-12826940D01*
X9523095Y-12817417D01*
X9570714Y-12817417D01*
X9589762Y-12826940D01*
X9599286Y-12836464D01*
X9608810Y-12855512D01*
X9608810Y-12903131D01*
X9599286Y-12922178D01*
X9589762Y-12931702D01*
X9570714Y-12941226D01*
X9523095Y-12941226D01*
X9504048Y-12931702D01*
X9494524Y-12922178D01*
X9780238Y-12741226D02*
X9742143Y-12741226D01*
X9723095Y-12750750D01*
X9713571Y-12760274D01*
X9694524Y-12788845D01*
X9685000Y-12826940D01*
X9685000Y-12903131D01*
X9694524Y-12922178D01*
X9704048Y-12931702D01*
X9723095Y-12941226D01*
X9761190Y-12941226D01*
X9780238Y-12931702D01*
X9789762Y-12922178D01*
X9799286Y-12903131D01*
X9799286Y-12855512D01*
X9789762Y-12836464D01*
X9780238Y-12826940D01*
X9761190Y-12817417D01*
X9723095Y-12817417D01*
X9704048Y-12826940D01*
X9694524Y-12836464D01*
X9685000Y-12855512D01*
X9875476Y-12741226D02*
X9875476Y-12779321D01*
X9951667Y-12741226D02*
X9951667Y-12779321D01*
X10246905Y-13017417D02*
X10237381Y-13007893D01*
X10218333Y-12979321D01*
X10208810Y-12960274D01*
X10199286Y-12931702D01*
X10189762Y-12884083D01*
X10189762Y-12845988D01*
X10199286Y-12798369D01*
X10208810Y-12769798D01*
X10218333Y-12750750D01*
X10237381Y-12722178D01*
X10246905Y-12712655D01*
X10313571Y-12760274D02*
X10323095Y-12750750D01*
X10342143Y-12741226D01*
X10389762Y-12741226D01*
X10408810Y-12750750D01*
X10418333Y-12760274D01*
X10427857Y-12779321D01*
X10427857Y-12798369D01*
X10418333Y-12826940D01*
X10304048Y-12941226D01*
X10427857Y-12941226D01*
X10665952Y-12941226D02*
X10665952Y-12741226D01*
X10751667Y-12941226D02*
X10751667Y-12836464D01*
X10742143Y-12817417D01*
X10723095Y-12807893D01*
X10694524Y-12807893D01*
X10675476Y-12817417D01*
X10665952Y-12826940D01*
X10875476Y-12941226D02*
X10856429Y-12931702D01*
X10846905Y-12922178D01*
X10837381Y-12903131D01*
X10837381Y-12845988D01*
X10846905Y-12826940D01*
X10856429Y-12817417D01*
X10875476Y-12807893D01*
X10904048Y-12807893D01*
X10923095Y-12817417D01*
X10932619Y-12826940D01*
X10942143Y-12845988D01*
X10942143Y-12903131D01*
X10932619Y-12922178D01*
X10923095Y-12931702D01*
X10904048Y-12941226D01*
X10875476Y-12941226D01*
X11056429Y-12941226D02*
X11037381Y-12931702D01*
X11027857Y-12912655D01*
X11027857Y-12741226D01*
X11208809Y-12931702D02*
X11189762Y-12941226D01*
X11151667Y-12941226D01*
X11132619Y-12931702D01*
X11123095Y-12912655D01*
X11123095Y-12836464D01*
X11132619Y-12817417D01*
X11151667Y-12807893D01*
X11189762Y-12807893D01*
X11208809Y-12817417D01*
X11218333Y-12836464D01*
X11218333Y-12855512D01*
X11123095Y-12874559D01*
X11294524Y-12931702D02*
X11313571Y-12941226D01*
X11351667Y-12941226D01*
X11370714Y-12931702D01*
X11380238Y-12912655D01*
X11380238Y-12903131D01*
X11370714Y-12884083D01*
X11351667Y-12874559D01*
X11323095Y-12874559D01*
X11304048Y-12865036D01*
X11294524Y-12845988D01*
X11294524Y-12836464D01*
X11304048Y-12817417D01*
X11323095Y-12807893D01*
X11351667Y-12807893D01*
X11370714Y-12817417D01*
X11446905Y-13017417D02*
X11456428Y-13007893D01*
X11475476Y-12979321D01*
X11485000Y-12960274D01*
X11494524Y-12931702D01*
X11504048Y-12884083D01*
X11504048Y-12845988D01*
X11494524Y-12798369D01*
X11485000Y-12769798D01*
X11475476Y-12750750D01*
X11456428Y-12722178D01*
X11446905Y-12712655D01*
X11808809Y-13017417D02*
X11799286Y-13007893D01*
X11780238Y-12979321D01*
X11770714Y-12960274D01*
X11761190Y-12931702D01*
X11751667Y-12884083D01*
X11751667Y-12845988D01*
X11761190Y-12798369D01*
X11770714Y-12769798D01*
X11780238Y-12750750D01*
X11799286Y-12722178D01*
X11808809Y-12712655D01*
X11885000Y-12807893D02*
X11885000Y-12941226D01*
X11885000Y-12826940D02*
X11894524Y-12817417D01*
X11913571Y-12807893D01*
X11942143Y-12807893D01*
X11961190Y-12817417D01*
X11970714Y-12836464D01*
X11970714Y-12941226D01*
X12094524Y-12941226D02*
X12075476Y-12931702D01*
X12065952Y-12922178D01*
X12056428Y-12903131D01*
X12056428Y-12845988D01*
X12065952Y-12826940D01*
X12075476Y-12817417D01*
X12094524Y-12807893D01*
X12123095Y-12807893D01*
X12142143Y-12817417D01*
X12151667Y-12826940D01*
X12161190Y-12845988D01*
X12161190Y-12903131D01*
X12151667Y-12922178D01*
X12142143Y-12931702D01*
X12123095Y-12941226D01*
X12094524Y-12941226D01*
X12218333Y-12807893D02*
X12294524Y-12807893D01*
X12246905Y-12741226D02*
X12246905Y-12912655D01*
X12256428Y-12931702D01*
X12275476Y-12941226D01*
X12294524Y-12941226D01*
X12513571Y-12807893D02*
X12513571Y-13007893D01*
X12513571Y-12817417D02*
X12532619Y-12807893D01*
X12570714Y-12807893D01*
X12589762Y-12817417D01*
X12599286Y-12826940D01*
X12608809Y-12845988D01*
X12608809Y-12903131D01*
X12599286Y-12922178D01*
X12589762Y-12931702D01*
X12570714Y-12941226D01*
X12532619Y-12941226D01*
X12513571Y-12931702D01*
X12723095Y-12941226D02*
X12704048Y-12931702D01*
X12694524Y-12912655D01*
X12694524Y-12741226D01*
X12885000Y-12941226D02*
X12885000Y-12836464D01*
X12875476Y-12817417D01*
X12856428Y-12807893D01*
X12818333Y-12807893D01*
X12799286Y-12817417D01*
X12885000Y-12931702D02*
X12865952Y-12941226D01*
X12818333Y-12941226D01*
X12799286Y-12931702D01*
X12789762Y-12912655D01*
X12789762Y-12893607D01*
X12799286Y-12874559D01*
X12818333Y-12865036D01*
X12865952Y-12865036D01*
X12885000Y-12855512D01*
X12951667Y-12807893D02*
X13027857Y-12807893D01*
X12980238Y-12741226D02*
X12980238Y-12912655D01*
X12989762Y-12931702D01*
X13008809Y-12941226D01*
X13027857Y-12941226D01*
X13170714Y-12931702D02*
X13151667Y-12941226D01*
X13113571Y-12941226D01*
X13094524Y-12931702D01*
X13085000Y-12912655D01*
X13085000Y-12836464D01*
X13094524Y-12817417D01*
X13113571Y-12807893D01*
X13151667Y-12807893D01*
X13170714Y-12817417D01*
X13180238Y-12836464D01*
X13180238Y-12855512D01*
X13085000Y-12874559D01*
X13351667Y-12941226D02*
X13351667Y-12741226D01*
X13351667Y-12931702D02*
X13332619Y-12941226D01*
X13294524Y-12941226D01*
X13275476Y-12931702D01*
X13265952Y-12922178D01*
X13256428Y-12903131D01*
X13256428Y-12845988D01*
X13265952Y-12826940D01*
X13275476Y-12817417D01*
X13294524Y-12807893D01*
X13332619Y-12807893D01*
X13351667Y-12817417D01*
X13427857Y-13017417D02*
X13437381Y-13007893D01*
X13456428Y-12979321D01*
X13465952Y-12960274D01*
X13475476Y-12931702D01*
X13485000Y-12884083D01*
X13485000Y-12845988D01*
X13475476Y-12798369D01*
X13465952Y-12769798D01*
X13456428Y-12750750D01*
X13437381Y-12722178D01*
X13427857Y-12712655D01*
M02*
